<?xml version="1.0" encoding="UTF-8" standalone="no"?><!-- Generator: Gravit.io --><svg xmlns="http://www.w3.org/2000/svg" xmlns:xlink="http://www.w3.org/1999/xlink" style="isolation:isolate" viewBox="0 0 400 140" width="400pt" height="140pt"><defs><clipPath id="_clipPath_XwHC7lowQxqNce4f96PgoI1sHD7QEWZV"><rect width="400" height="140"/></clipPath></defs><g clip-path="url(#_clipPath_XwHC7lowQxqNce4f96PgoI1sHD7QEWZV)"><g><path d=" M -201 300 L 507 300 L 507 0 L -201 0 L -201 300 Z " fill="none"/></g><g><g><path d=" M -201 300 L 507 300 L 507 0 L -201 0 L -201 300 Z " fill="none"/></g><g><rect x="90.333" y="-17" width="233.333" height="300" transform="matrix(1,0,0,1,0,0)" fill="none"/><g><clipPath id="_clipPath_EjL1JNnEzSJs7JHM4q0pjnl40QCbBZvJ"><rect x="90.333" y="-17" width="233.333" height="300" transform="matrix(1,0,0,1,0,0)" fill="rgb(255,255,255)"/></clipPath><g clip-path="url(#_clipPath_EjL1JNnEzSJs7JHM4q0pjnl40QCbBZvJ)"><mask id="_mask_Pxc7Qir6nlyz8bKbKW3caWnrZl2Rk0yl" x="-200%" y="-200%" width="400%" height="400%"><rect x="-200%" y="-200%" width="400%" height="400%" style="fill:white;"/><path d=" M 207.099 132.369 L 207.592 133.871 L 207.258 133.87 L 207.251 135.203 L 206.918 135.201 L 206.925 133.868 L 206.592 133.866 L 207.099 132.369 Z " fill="black" stroke="none"/></mask><path d=" M 207.099 132.369 L 207.592 133.871 L 207.258 133.87 L 207.251 135.203 L 206.918 135.201 L 206.925 133.868 L 206.592 133.866 L 207.099 132.369 Z " fill="rgb(179,0,0)" mask="url(#_mask_Pxc7Qir6nlyz8bKbKW3caWnrZl2Rk0yl)" vector-effect="non-scaling-stroke" stroke-width="2" stroke="rgb(179,0,0)" stroke-linejoin="miter" stroke-linecap="butt" stroke-miterlimit="4"/><path d=" M 207.099 132.369 L 207.592 133.871 L 207.258 133.87 L 207.251 135.203 L 206.918 135.201 L 206.925 133.868 L 206.592 133.866 L 207.099 132.369 Z " fill="rgb(179,0,0)"/></g></g><g><clipPath id="_clipPath_Q0jomev5e6BPtzxvZ44B9XuoEjkFpizn"><rect x="90.333" y="-17" width="233.333" height="300" transform="matrix(1,0,0,1,0,0)" fill="rgb(255,255,255)"/></clipPath><g clip-path="url(#_clipPath_Q0jomev5e6BPtzxvZ44B9XuoEjkFpizn)"><mask id="_mask_RSFzIWElxqthadPhLE1mAymZ14taFn17" x="-200%" y="-200%" width="400%" height="400%"><rect x="-200%" y="-200%" width="400%" height="400%" style="fill:white;"/><path d=" M 205.252 94.558 L 205.94 95.982 L 205.61 96.024 L 205.781 97.347 L 205.45 97.389 L 205.279 96.067 L 204.949 96.11 L 205.252 94.558 Z " fill="black" stroke="none"/></mask><path d=" M 205.252 94.558 L 205.94 95.982 L 205.61 96.024 L 205.781 97.347 L 205.45 97.389 L 205.279 96.067 L 204.949 96.11 L 205.252 94.558 Z " fill="rgb(179,0,0)" mask="url(#_mask_RSFzIWElxqthadPhLE1mAymZ14taFn17)" vector-effect="non-scaling-stroke" stroke-width="2" stroke="rgb(179,0,0)" stroke-linejoin="miter" stroke-linecap="butt" stroke-miterlimit="4"/><path d=" M 205.252 94.558 L 205.94 95.982 L 205.61 96.024 L 205.781 97.347 L 205.45 97.389 L 205.279 96.067 L 204.949 96.11 L 205.252 94.558 Z " fill="rgb(179,0,0)"/></g></g><g><clipPath id="_clipPath_BPlmraZfTs9si0i6PRlxbLFRHbuPa4wF"><rect x="90.333" y="-17" width="233.333" height="300" transform="matrix(1,0,0,1,0,0)" fill="rgb(255,255,255)"/></clipPath><g clip-path="url(#_clipPath_BPlmraZfTs9si0i6PRlxbLFRHbuPa4wF)"><mask id="_mask_dpeCtmHRNhoBcJ2HO8sx5ovMRQpEWc8C" x="-200%" y="-200%" width="400%" height="400%"><rect x="-200%" y="-200%" width="400%" height="400%" style="fill:white;"/><path d=" M 202.484 71.891 L 203.134 73.332 L 202.802 73.366 L 202.937 74.693 L 202.606 74.727 L 202.47 73.4 L 202.139 73.434 L 202.484 71.891 Z " fill="black" stroke="none"/></mask><path d=" M 202.484 71.891 L 203.134 73.332 L 202.802 73.366 L 202.937 74.693 L 202.606 74.727 L 202.47 73.4 L 202.139 73.434 L 202.484 71.891 Z " fill="rgb(179,0,0)" mask="url(#_mask_dpeCtmHRNhoBcJ2HO8sx5ovMRQpEWc8C)" vector-effect="non-scaling-stroke" stroke-width="2" stroke="rgb(179,0,0)" stroke-linejoin="miter" stroke-linecap="butt" stroke-miterlimit="4"/><path d=" M 202.484 71.891 L 203.134 73.332 L 202.802 73.366 L 202.937 74.693 L 202.606 74.727 L 202.47 73.4 L 202.139 73.434 L 202.484 71.891 Z " fill="rgb(179,0,0)"/></g></g><g><clipPath id="_clipPath_UsS9abHGMLNUJyUGOkJXaDlyrk1Vg6xY"><rect x="90.333" y="-17" width="233.333" height="300" transform="matrix(1,0,0,1,0,0)" fill="rgb(255,255,255)"/></clipPath><g clip-path="url(#_clipPath_UsS9abHGMLNUJyUGOkJXaDlyrk1Vg6xY)"><mask id="_mask_6FvqA6rDK9oUCTlOKk1K5hMLMmLdXaJL" x="-200%" y="-200%" width="400%" height="400%"><rect x="-200%" y="-200%" width="400%" height="400%" style="fill:white;"/><path d=" M 201.943 35.121 L 202.5 36.6 L 202.167 36.613 L 202.218 37.946 L 201.885 37.958 L 201.834 36.626 L 201.501 36.639 L 201.943 35.121 Z " fill="black" stroke="none"/></mask><path d=" M 201.943 35.121 L 202.5 36.6 L 202.167 36.613 L 202.218 37.946 L 201.885 37.958 L 201.834 36.626 L 201.501 36.639 L 201.943 35.121 Z " fill="rgb(179,0,0)" mask="url(#_mask_6FvqA6rDK9oUCTlOKk1K5hMLMmLdXaJL)" vector-effect="non-scaling-stroke" stroke-width="2" stroke="rgb(179,0,0)" stroke-linejoin="miter" stroke-linecap="butt" stroke-miterlimit="4"/><path d=" M 201.943 35.121 L 202.5 36.6 L 202.167 36.613 L 202.218 37.946 L 201.885 37.958 L 201.834 36.626 L 201.501 36.639 L 201.943 35.121 Z " fill="rgb(179,0,0)"/></g></g><g><clipPath id="_clipPath_fiewe3lvnBpOgZeALjVJBICyTRaHPlU5"><rect x="90.333" y="-17" width="233.333" height="300" transform="matrix(1,0,0,1,0,0)" fill="rgb(255,255,255)"/></clipPath><g clip-path="url(#_clipPath_fiewe3lvnBpOgZeALjVJBICyTRaHPlU5)"><mask id="_mask_oW0o5MksnhmeDsOmKzQ4Ac3KcGT1y5Hh" x="-200%" y="-200%" width="400%" height="400%"><rect x="-200%" y="-200%" width="400%" height="400%" style="fill:white;"/><path d=" M 200.921 4.043 L 201.296 5.579 L 200.964 5.552 L 200.854 6.88 L 200.521 6.853 L 200.631 5.524 L 200.299 5.497 L 200.921 4.043 Z " fill="black" stroke="none"/></mask><path d=" M 200.921 4.043 L 201.296 5.579 L 200.964 5.552 L 200.854 6.88 L 200.521 6.853 L 200.631 5.524 L 200.299 5.497 L 200.921 4.043 Z " fill="rgb(179,0,0)" mask="url(#_mask_oW0o5MksnhmeDsOmKzQ4Ac3KcGT1y5Hh)" vector-effect="non-scaling-stroke" stroke-width="2" stroke="rgb(179,0,0)" stroke-linejoin="miter" stroke-linecap="butt" stroke-miterlimit="4"/><path d=" M 200.921 4.043 L 201.296 5.579 L 200.964 5.552 L 200.854 6.88 L 200.521 6.853 L 200.631 5.524 L 200.299 5.497 L 200.921 4.043 Z " fill="rgb(179,0,0)"/></g></g></g></g><g><rect x="90.333" y="-17" width="233.333" height="300" transform="matrix(1,0,0,1,0,0)" fill="none"/><g><clipPath id="_clipPath_A9YdcVVDavH1mCv9MVuOw7imcq74UxCN"><rect x="90.333" y="-17" width="233.333" height="300" transform="matrix(1,0,0,1,0,0)" fill="rgb(255,255,255)"/></clipPath><g clip-path="url(#_clipPath_A9YdcVVDavH1mCv9MVuOw7imcq74UxCN)"><mask id="_mask_02E4leL39KmiQjUzo4r1Z4Nd1JVIyfm1" x="-200%" y="-200%" width="400%" height="400%"><rect x="-200%" y="-200%" width="400%" height="400%" style="fill:white;"/><path d=" M 207.646 130.511 L 208.158 132.007 L 207.824 132.01 L 207.835 133.343 L 207.502 133.346 L 207.491 132.012 L 207.158 132.015 L 207.646 130.511 Z " fill="black" stroke="none"/></mask><path d=" M 207.646 130.511 L 208.158 132.007 L 207.824 132.01 L 207.835 133.343 L 207.502 133.346 L 207.491 132.012 L 207.158 132.015 L 207.646 130.511 Z " fill="rgb(255,165,0)" mask="url(#_mask_02E4leL39KmiQjUzo4r1Z4Nd1JVIyfm1)" vector-effect="non-scaling-stroke" stroke-width="2" stroke="rgb(255,165,0)" stroke-linejoin="miter" stroke-linecap="butt" stroke-miterlimit="4"/><path d=" M 207.646 130.511 L 208.158 132.007 L 207.824 132.01 L 207.835 133.343 L 207.502 133.346 L 207.491 132.012 L 207.158 132.015 L 207.646 130.511 Z " fill="rgb(255,165,0)"/></g></g><g><clipPath id="_clipPath_VrbsN4zL2CXxPwqmJ8SseZcCrdphwl6Y"><rect x="90.333" y="-17" width="233.333" height="300" transform="matrix(1,0,0,1,0,0)" fill="rgb(255,255,255)"/></clipPath><g clip-path="url(#_clipPath_VrbsN4zL2CXxPwqmJ8SseZcCrdphwl6Y)"><mask id="_mask_NjT1k3QmUzVB1w2jKOURM68auTLcyGnx" x="-200%" y="-200%" width="400%" height="400%"><rect x="-200%" y="-200%" width="400%" height="400%" style="fill:white;"/><path d=" M 207.474 116.261 L 207.964 117.764 L 207.631 117.762 L 207.622 119.095 L 207.289 119.093 L 207.298 117.76 L 206.964 117.758 L 207.474 116.261 Z " fill="black" stroke="none"/></mask><path d=" M 207.474 116.261 L 207.964 117.764 L 207.631 117.762 L 207.622 119.095 L 207.289 119.093 L 207.298 117.76 L 206.964 117.758 L 207.474 116.261 Z " fill="rgb(255,165,0)" mask="url(#_mask_NjT1k3QmUzVB1w2jKOURM68auTLcyGnx)" vector-effect="non-scaling-stroke" stroke-width="2" stroke="rgb(255,165,0)" stroke-linejoin="miter" stroke-linecap="butt" stroke-miterlimit="4"/><path d=" M 207.474 116.261 L 207.964 117.764 L 207.631 117.762 L 207.622 119.095 L 207.289 119.093 L 207.298 117.76 L 206.964 117.758 L 207.474 116.261 Z " fill="rgb(255,165,0)"/></g></g><g><clipPath id="_clipPath_m9mz8DPdyCR5tOxEkmSS39j8Lo8hgZPj"><rect x="90.333" y="-17" width="233.333" height="300" transform="matrix(1,0,0,1,0,0)" fill="rgb(255,255,255)"/></clipPath><g clip-path="url(#_clipPath_m9mz8DPdyCR5tOxEkmSS39j8Lo8hgZPj)"><mask id="_mask_o0UTsFquyJM4fQUwcR2nOrLRAidi3Ty1" x="-200%" y="-200%" width="400%" height="400%"><rect x="-200%" y="-200%" width="400%" height="400%" style="fill:white;"/><path d=" M 207.933 105.817 L 208.379 107.334 L 208.046 107.322 L 207.998 108.654 L 207.665 108.642 L 207.713 107.31 L 207.38 107.298 L 207.933 105.817 Z " fill="black" stroke="none"/></mask><path d=" M 207.933 105.817 L 208.379 107.334 L 208.046 107.322 L 207.998 108.654 L 207.665 108.642 L 207.713 107.31 L 207.38 107.298 L 207.933 105.817 Z " fill="rgb(255,165,0)" mask="url(#_mask_o0UTsFquyJM4fQUwcR2nOrLRAidi3Ty1)" vector-effect="non-scaling-stroke" stroke-width="2" stroke="rgb(255,165,0)" stroke-linejoin="miter" stroke-linecap="butt" stroke-miterlimit="4"/><path d=" M 207.933 105.817 L 208.379 107.334 L 208.046 107.322 L 207.998 108.654 L 207.665 108.642 L 207.713 107.31 L 207.38 107.298 L 207.933 105.817 Z " fill="rgb(255,165,0)"/></g></g><g><clipPath id="_clipPath_x21HoIAmpXwxAXmID9mnThUJDBEX1aMZ"><rect x="90.333" y="-17" width="233.333" height="300" transform="matrix(1,0,0,1,0,0)" fill="rgb(255,255,255)"/></clipPath><g clip-path="url(#_clipPath_x21HoIAmpXwxAXmID9mnThUJDBEX1aMZ)"><mask id="_mask_nyQkdnqS6KWTTwhs9Op2K88soBdcE4iv" x="-200%" y="-200%" width="400%" height="400%"><rect x="-200%" y="-200%" width="400%" height="400%" style="fill:white;"/><path d=" M 207.027 95.15 L 207.573 96.634 L 207.24 96.644 L 207.28 97.976 L 206.947 97.987 L 206.907 96.654 L 206.573 96.664 L 207.027 95.15 Z " fill="black" stroke="none"/></mask><path d=" M 207.027 95.15 L 207.573 96.634 L 207.24 96.644 L 207.28 97.976 L 206.947 97.987 L 206.907 96.654 L 206.573 96.664 L 207.027 95.15 Z " fill="rgb(255,165,0)" mask="url(#_mask_nyQkdnqS6KWTTwhs9Op2K88soBdcE4iv)" vector-effect="non-scaling-stroke" stroke-width="2" stroke="rgb(255,165,0)" stroke-linejoin="miter" stroke-linecap="butt" stroke-miterlimit="4"/><path d=" M 207.027 95.15 L 207.573 96.634 L 207.24 96.644 L 207.28 97.976 L 206.947 97.987 L 206.907 96.654 L 206.573 96.664 L 207.027 95.15 Z " fill="rgb(255,165,0)"/></g></g><g><clipPath id="_clipPath_4usJEN7ENRfn1QBgPCT7tXoc7DnVRcQY"><rect x="90.333" y="-17" width="233.333" height="300" transform="matrix(1,0,0,1,0,0)" fill="rgb(255,255,255)"/></clipPath><g clip-path="url(#_clipPath_4usJEN7ENRfn1QBgPCT7tXoc7DnVRcQY)"><mask id="_mask_LYNTTBqBcOMkG5WTcbH4d7VHdkvHzIb8" x="-200%" y="-200%" width="400%" height="400%"><rect x="-200%" y="-200%" width="400%" height="400%" style="fill:white;"/><path d=" M 206.712 83.947 L 207.238 85.438 L 206.905 85.444 L 206.928 86.777 L 206.595 86.783 L 206.572 85.45 L 206.238 85.455 L 206.712 83.947 Z " fill="black" stroke="none"/></mask><path d=" M 206.712 83.947 L 207.238 85.438 L 206.905 85.444 L 206.928 86.777 L 206.595 86.783 L 206.572 85.45 L 206.238 85.455 L 206.712 83.947 Z " fill="rgb(255,165,0)" mask="url(#_mask_LYNTTBqBcOMkG5WTcbH4d7VHdkvHzIb8)" vector-effect="non-scaling-stroke" stroke-width="2" stroke="rgb(255,165,0)" stroke-linejoin="miter" stroke-linecap="butt" stroke-miterlimit="4"/><path d=" M 206.712 83.947 L 207.238 85.438 L 206.905 85.444 L 206.928 86.777 L 206.595 86.783 L 206.572 85.45 L 206.238 85.455 L 206.712 83.947 Z " fill="rgb(255,165,0)"/></g></g></g></g></svg>