<?xml version="1.0" encoding="UTF-8" standalone="no"?><!-- Generator: Gravit.io --><svg xmlns="http://www.w3.org/2000/svg" xmlns:xlink="http://www.w3.org/1999/xlink" style="isolation:isolate" viewBox="0 0 960 200" width="960pt" height="200pt"><defs><clipPath id="_clipPath_hox6OqqyYHKTtqHR3Ag3ZsCRRWqYvfkM"><rect width="960" height="200"/></clipPath></defs><g clip-path="url(#_clipPath_hox6OqqyYHKTtqHR3Ag3ZsCRRWqYvfkM)"><clipPath id="_clipPath_dzaFDtbwFwXvo6cDvb9Pwpfe3Kxk5vfg"><path d=" M 0 0 L 960 0 L 960 540 L 0 540 L 0 0 Z " fill="rgb(255,255,255)"/></clipPath><g clip-path="url(#_clipPath_dzaFDtbwFwXvo6cDvb9Pwpfe3Kxk5vfg)"><g><path d=" M 0 0 L 960 0 L 960 540 L 0 540 L 0 0 Z " fill-rule="evenodd" fill="rgb(255,255,255)"/><path d=" M 249.703 91.341 L 295.624 91.341 L 295.624 134.9 L 249.703 134.9 L 249.703 91.341 Z " fill-rule="evenodd" fill="rgb(240,241,255)"/><path d=" M 670.31 92.91 L 716.231 92.91 L 716.231 136.469 L 670.31 136.469 L 670.31 92.91 Z " fill-rule="evenodd" fill="rgb(240,241,255)"/><path d=" M 307.185 92.25 L 353.106 92.25 L 353.106 135.809 L 307.185 135.809 L 307.185 92.25 Z " fill-rule="evenodd" fill="rgb(111,168,220)"/><path d=" M 606.427 92.888 L 652.348 92.888 L 652.348 136.447 L 606.427 136.447 L 606.427 92.888 Z " fill-rule="evenodd" fill="rgb(111,168,220)"/><path d=" M 387.878 92.25 L 578.933 92.25 L 578.933 135.809 L 387.878 135.809 L 387.878 92.25 Z " fill-rule="evenodd" fill="rgb(159,197,232)"/><line x1="241.05" y1="116.468" x2="734.468" y2="116.468"/><mask id="_mask_VXLlvS0HxcRiixDd4xrf5Bodihac4JLt" x="-200%" y="-200%" width="400%" height="400%"><rect x="-200%" y="-200%" width="400%" height="400%" style="fill:white;"/><path d=" M 728.468 118.12 L 733.006 116.468 L 728.468 114.816 L 728.468 118.12 Z " fill-rule="evenodd" fill="black" stroke="none"/></mask><path d=" M 728.468 118.12 L 733.006 116.468 L 728.468 114.816 L 728.468 118.12 Z " fill-rule="evenodd" fill="rgb(89,89,89)" mask="url(#_mask_VXLlvS0HxcRiixDd4xrf5Bodihac4JLt)" vector-effect="non-scaling-stroke" stroke-width="2" stroke="rgb(89,89,89)" stroke-linejoin="miter" stroke-linecap="butt" stroke-miterlimit="10"/><path d=" M 728.468 118.12 L 733.006 116.468 L 728.468 114.816 L 728.468 118.12 Z " fill-rule="evenodd" fill="rgb(89,89,89)"/><line x1="330.129" y1="78.107" x2="330.129" y2="151.241"/><mask id="_mask_BfE7FhyNvqufpUXRzHP3rjsW1yGn3WKr" x="-200%" y="-200%" width="400%" height="400%"><rect x="-200%" y="-200%" width="400%" height="400%" style="fill:white;"/><line x1="330.129" y1="78.107" x2="330.129" y2="151.241" fill="black" stroke="none"/></mask><line x1="330.129" y1="78.107" x2="330.129" y2="151.241" mask="url(#_mask_BfE7FhyNvqufpUXRzHP3rjsW1yGn3WKr)" vector-effect="non-scaling-stroke" stroke-width="4" stroke="rgb(89,89,89)" stroke-linejoin="round" stroke-linecap="butt" stroke-miterlimit="10"/><line x1="629.671" y1="79.242" x2="629.671" y2="152.376"/><mask id="_mask_hOuw3jZXPd1B3z0Ylep65X0uaBopBKOY" x="-200%" y="-200%" width="400%" height="400%"><rect x="-200%" y="-200%" width="400%" height="400%" style="fill:white;"/><line x1="629.671" y1="79.242" x2="629.671" y2="152.376" fill="black" stroke="none"/></mask><line x1="629.671" y1="79.242" x2="629.671" y2="152.376" mask="url(#_mask_hOuw3jZXPd1B3z0Ylep65X0uaBopBKOY)" vector-effect="non-scaling-stroke" stroke-width="4" stroke="rgb(89,89,89)" stroke-linejoin="round" stroke-linecap="butt" stroke-miterlimit="10"/><path d=" M 256.577 143.41 L 486.12 143.41 L 486.12 264.513 L 256.577 264.513 L 256.577 143.41 Z " fill-rule="evenodd" fill="none"/><path d=" M 274.561 164.143 L 268.374 164.143 L 268.374 170.33 L 267.249 170.33 L 267.249 157.065 L 275.467 157.065 L 275.467 158.018 L 268.374 158.018 L 268.374 163.174 L 274.561 163.174 L 274.561 164.143 Z  M 276.692 165.252 Q 276.692 163.83 277.239 162.705 Q 277.801 161.565 278.801 160.94 Q 279.817 160.299 281.083 160.299 Q 283.051 160.299 284.27 161.674 Q 285.504 163.049 285.504 165.33 L 285.504 165.565 Q 285.504 166.987 284.942 168.127 Q 284.395 169.268 283.395 169.893 Q 282.395 170.518 281.114 170.518 Q 279.145 170.518 277.911 169.143 Q 276.692 167.752 276.692 165.471 L 276.692 165.252 Z  M 277.786 165.565 Q 277.786 167.33 278.708 168.471 Q 279.629 169.596 281.114 169.596 Q 282.583 169.596 283.489 168.471 Q 284.411 167.33 284.411 165.471 L 284.411 165.252 Q 284.411 164.127 283.989 163.19 Q 283.583 162.252 282.817 161.737 Q 282.067 161.221 281.083 161.221 Q 279.629 161.221 278.708 162.362 Q 277.786 163.502 277.786 165.362 L 277.786 165.565 Z  M 292 168.69 L 292.078 168.971 L 292.156 168.69 L 296.328 157.065 L 297.562 157.065 L 292.625 170.33 L 291.547 170.33 L 286.609 157.065 L 287.828 157.065 L 292 168.69 Z " fill="rgb(153,153,153)"/><path d=" M 302.052 177.33 L 301.318 177.33 L 301.318 169.362 L 298.911 170.252 L 298.911 169.58 L 301.927 168.455 L 302.052 168.455 L 302.052 177.33 Z " fill="rgb(153,153,153)"/><path d=" M 311.669 160.471 L 311.716 162.08 Q 312.263 161.19 313.075 160.752 Q 313.903 160.299 314.903 160.299 Q 317.231 160.299 317.856 162.205 Q 318.388 161.283 319.263 160.799 Q 320.153 160.299 321.216 160.299 Q 324.388 160.299 324.45 163.752 L 324.45 170.33 L 323.356 170.33 L 323.356 163.83 Q 323.356 162.518 322.794 161.877 Q 322.231 161.237 320.966 161.237 Q 319.794 161.252 318.981 162.002 Q 318.169 162.737 318.075 163.815 L 318.075 170.33 L 316.981 170.33 L 316.981 163.752 Q 316.981 162.487 316.388 161.862 Q 315.809 161.237 314.575 161.237 Q 313.559 161.237 312.809 161.83 Q 312.075 162.408 311.716 163.565 L 311.716 170.33 L 310.622 170.33 L 310.622 160.471 L 311.669 160.471 Z  M 326.609 165.252 Q 326.609 163.83 327.156 162.705 Q 327.718 161.565 328.718 160.94 Q 329.734 160.299 330.999 160.299 Q 332.968 160.299 334.187 161.674 Q 335.421 163.049 335.421 165.33 L 335.421 165.565 Q 335.421 166.987 334.859 168.127 Q 334.312 169.268 333.312 169.893 Q 332.312 170.518 331.031 170.518 Q 329.062 170.518 327.828 169.143 Q 326.609 167.752 326.609 165.471 L 326.609 165.252 Z  M 327.703 165.565 Q 327.703 167.33 328.624 168.471 Q 329.546 169.596 331.031 169.596 Q 332.499 169.596 333.406 168.471 Q 334.328 167.33 334.328 165.471 L 334.328 165.252 Q 334.328 164.127 333.906 163.19 Q 333.499 162.252 332.734 161.737 Q 331.984 161.221 330.999 161.221 Q 329.546 161.221 328.624 162.362 Q 327.703 163.502 327.703 165.362 L 327.703 165.565 Z  M 337.229 165.315 Q 337.229 163.018 338.245 161.658 Q 339.276 160.299 341.042 160.299 Q 343.026 160.299 344.073 161.862 L 344.073 156.33 L 345.167 156.33 L 345.167 170.33 L 344.136 170.33 L 344.104 169.018 Q 343.057 170.518 341.011 170.518 Q 339.307 170.518 338.261 169.143 Q 337.229 167.768 337.229 165.44 L 337.229 165.315 Z  M 338.339 165.502 Q 338.339 167.393 339.089 168.487 Q 339.839 169.565 341.214 169.565 Q 343.229 169.565 344.073 167.783 L 344.073 163.158 Q 343.229 161.237 341.229 161.237 Q 339.854 161.237 339.089 162.315 Q 338.339 163.393 338.339 165.502 Z  M 351.846 170.518 Q 350.596 170.518 349.58 169.893 Q 348.565 169.268 347.986 168.174 Q 347.424 167.065 347.424 165.69 L 347.424 165.299 Q 347.424 163.877 347.971 162.737 Q 348.533 161.596 349.518 160.955 Q 350.502 160.299 351.643 160.299 Q 353.44 160.299 354.486 161.518 Q 355.549 162.737 355.549 164.862 L 355.549 165.471 L 348.518 165.471 L 348.518 165.69 Q 348.518 167.362 349.471 168.487 Q 350.44 169.596 351.893 169.596 Q 352.768 169.596 353.44 169.283 Q 354.111 168.955 354.658 168.252 L 355.346 168.768 Q 354.143 170.518 351.846 170.518 Z  M 351.643 161.221 Q 350.424 161.221 349.58 162.127 Q 348.736 163.018 348.549 164.549 L 354.471 164.549 L 354.471 164.424 Q 354.424 163.002 353.658 162.112 Q 352.893 161.221 351.643 161.221 Z  M 362.577 170.33 L 361.484 170.33 L 361.484 158.377 L 357.874 159.721 L 357.874 158.69 L 362.39 157.018 L 362.577 157.018 L 362.577 170.33 Z " fill="rgb(153,153,153)"/><path d=" M 555.528 143.487 L 785.072 143.487 L 785.072 264.589 L 555.528 264.589 L 555.528 143.487 Z " fill-rule="evenodd" fill="none"/><path d=" M 573.513 164.219 L 567.325 164.219 L 567.325 170.407 L 566.2 170.407 L 566.2 157.141 L 574.419 157.141 L 574.419 158.094 L 567.325 158.094 L 567.325 163.25 L 573.513 163.25 L 573.513 164.219 Z  M 575.643 165.328 Q 575.643 163.907 576.19 162.782 Q 576.753 161.641 577.753 161.016 Q 578.768 160.375 580.034 160.375 Q 582.003 160.375 583.222 161.75 Q 584.456 163.125 584.456 165.407 L 584.456 165.641 Q 584.456 167.063 583.893 168.203 Q 583.347 169.344 582.347 169.969 Q 581.347 170.594 580.065 170.594 Q 578.097 170.594 576.862 169.219 Q 575.643 167.828 575.643 165.547 L 575.643 165.328 Z  M 576.737 165.641 Q 576.737 167.407 577.659 168.547 Q 578.581 169.672 580.065 169.672 Q 581.534 169.672 582.44 168.547 Q 583.362 167.407 583.362 165.547 L 583.362 165.328 Q 583.362 164.203 582.94 163.266 Q 582.534 162.328 581.768 161.813 Q 581.018 161.297 580.034 161.297 Q 578.581 161.297 577.659 162.438 Q 576.737 163.578 576.737 165.438 L 576.737 165.641 Z  M 590.951 168.766 L 591.03 169.047 L 591.108 168.766 L 595.28 157.141 L 596.514 157.141 L 591.576 170.407 L 590.498 170.407 L 585.561 157.141 L 586.78 157.141 L 590.951 168.766 Z " fill="rgb(153,153,153)"/><path d=" M 601.004 177.407 L 600.269 177.407 L 600.269 169.438 L 597.863 170.328 L 597.863 169.657 L 600.879 168.532 L 601.004 168.532 L 601.004 177.407 Z " fill="rgb(153,153,153)"/><path d=" M 610.62 160.547 L 610.667 162.157 Q 611.214 161.266 612.027 160.828 Q 612.855 160.375 613.855 160.375 Q 616.183 160.375 616.808 162.282 Q 617.339 161.36 618.214 160.875 Q 619.105 160.375 620.167 160.375 Q 623.339 160.375 623.402 163.828 L 623.402 170.407 L 622.308 170.407 L 622.308 163.907 Q 622.308 162.594 621.745 161.953 Q 621.183 161.313 619.917 161.313 Q 618.745 161.328 617.933 162.078 Q 617.12 162.813 617.027 163.891 L 617.027 170.407 L 615.933 170.407 L 615.933 163.828 Q 615.933 162.563 615.339 161.938 Q 614.761 161.313 613.527 161.313 Q 612.511 161.313 611.761 161.907 Q 611.027 162.485 610.667 163.641 L 610.667 170.407 L 609.573 170.407 L 609.573 160.547 L 610.62 160.547 Z  M 625.56 165.328 Q 625.56 163.907 626.107 162.782 Q 626.67 161.641 627.67 161.016 Q 628.685 160.375 629.951 160.375 Q 631.92 160.375 633.138 161.75 Q 634.373 163.125 634.373 165.407 L 634.373 165.641 Q 634.373 167.063 633.81 168.203 Q 633.263 169.344 632.263 169.969 Q 631.263 170.594 629.982 170.594 Q 628.013 170.594 626.779 169.219 Q 625.56 167.828 625.56 165.547 L 625.56 165.328 Z  M 626.654 165.641 Q 626.654 167.407 627.576 168.547 Q 628.498 169.672 629.982 169.672 Q 631.451 169.672 632.357 168.547 Q 633.279 167.407 633.279 165.547 L 633.279 165.328 Q 633.279 164.203 632.857 163.266 Q 632.451 162.328 631.685 161.813 Q 630.935 161.297 629.951 161.297 Q 628.498 161.297 627.576 162.438 Q 626.654 163.578 626.654 165.438 L 626.654 165.641 Z  M 636.181 165.391 Q 636.181 163.094 637.196 161.735 Q 638.228 160.375 639.993 160.375 Q 641.978 160.375 643.025 161.938 L 643.025 156.407 L 644.118 156.407 L 644.118 170.407 L 643.087 170.407 L 643.056 169.094 Q 642.009 170.594 639.962 170.594 Q 638.259 170.594 637.212 169.219 Q 636.181 167.844 636.181 165.516 L 636.181 165.391 Z  M 637.29 165.578 Q 637.29 167.469 638.04 168.563 Q 638.79 169.641 640.165 169.641 Q 642.181 169.641 643.025 167.86 L 643.025 163.235 Q 642.181 161.313 640.181 161.313 Q 638.806 161.313 638.04 162.391 Q 637.29 163.469 637.29 165.578 Z  M 650.797 170.594 Q 649.547 170.594 648.532 169.969 Q 647.516 169.344 646.938 168.25 Q 646.376 167.141 646.376 165.766 L 646.376 165.375 Q 646.376 163.953 646.922 162.813 Q 647.485 161.672 648.469 161.032 Q 649.454 160.375 650.594 160.375 Q 652.391 160.375 653.438 161.594 Q 654.501 162.813 654.501 164.938 L 654.501 165.547 L 647.469 165.547 L 647.469 165.766 Q 647.469 167.438 648.422 168.563 Q 649.391 169.672 650.844 169.672 Q 651.719 169.672 652.391 169.36 Q 653.063 169.032 653.61 168.328 L 654.297 168.844 Q 653.094 170.594 650.797 170.594 Z  M 650.594 161.297 Q 649.376 161.297 648.532 162.203 Q 647.688 163.094 647.501 164.625 L 653.422 164.625 L 653.422 164.5 Q 653.376 163.078 652.61 162.188 Q 651.844 161.297 650.594 161.297 Z  M 664.763 170.407 L 656.451 170.407 L 656.451 169.563 L 660.998 164.407 Q 662.123 163.11 662.56 162.266 Q 662.998 161.422 662.998 160.61 Q 662.998 159.36 662.263 158.625 Q 661.529 157.891 660.232 157.891 Q 658.888 157.891 658.06 158.75 Q 657.248 159.61 657.248 160.969 L 656.154 160.969 Q 656.154 159.844 656.654 158.938 Q 657.17 158.016 658.092 157.485 Q 659.029 156.953 660.232 156.953 Q 662.045 156.953 663.076 157.922 Q 664.107 158.875 664.107 160.516 Q 664.107 161.453 663.529 162.563 Q 662.951 163.657 661.482 165.313 L 657.795 169.485 L 664.763 169.485 L 664.763 170.407 Z " fill="rgb(153,153,153)"/><path d=" M 175.247 28.782 L 316.822 28.782 L 316.822 130.451 L 175.247 130.451 L 175.247 28.782 Z " fill-rule="evenodd" fill="none"/><path d=" M 193.247 49.343 L 187.044 49.343 L 187.044 54.749 L 194.169 54.749 L 194.169 55.702 L 185.919 55.702 L 185.919 42.437 L 194.137 42.437 L 194.137 43.39 L 187.044 43.39 L 187.044 48.39 L 193.247 48.39 L 193.247 49.343 Z  M 199.375 49.843 L 202.031 45.843 L 203.328 45.843 L 199.984 50.687 L 203.484 55.702 L 202.187 55.702 L 199.391 51.53 L 196.578 55.702 L 195.297 55.702 L 198.781 50.687 L 195.437 45.843 L 196.719 45.843 L 199.375 49.843 Z  M 207.042 43.327 L 207.042 45.843 L 209.089 45.843 L 209.089 46.733 L 207.042 46.733 L 207.042 53.312 Q 207.042 54.124 207.339 54.53 Q 207.635 54.921 208.339 54.921 Q 208.604 54.921 209.214 54.843 L 209.26 55.733 Q 208.839 55.89 208.089 55.89 Q 206.979 55.89 206.464 55.233 Q 205.948 54.577 205.948 53.312 L 205.948 46.733 L 204.135 46.733 L 204.135 45.843 L 205.948 45.843 L 205.948 43.327 L 207.042 43.327 Z  M 215.895 46.78 Q 215.551 46.718 215.161 46.718 Q 214.145 46.718 213.442 47.28 Q 212.739 47.843 212.426 48.937 L 212.426 55.702 L 211.348 55.702 L 211.348 45.843 L 212.411 45.843 L 212.426 47.405 Q 213.301 45.671 215.208 45.671 Q 215.661 45.671 215.926 45.78 L 215.895 46.78 Z  M 223.479 55.702 Q 223.323 55.233 223.276 54.327 Q 222.698 55.077 221.807 55.483 Q 220.916 55.89 219.932 55.89 Q 218.51 55.89 217.62 55.093 Q 216.745 54.296 216.745 53.093 Q 216.745 51.655 217.948 50.812 Q 219.151 49.968 221.291 49.968 L 223.26 49.968 L 223.26 48.858 Q 223.26 47.796 222.604 47.187 Q 221.963 46.577 220.713 46.577 Q 219.573 46.577 218.823 47.171 Q 218.073 47.749 218.073 48.577 L 216.979 48.562 Q 216.979 47.39 218.073 46.53 Q 219.166 45.671 220.76 45.671 Q 222.416 45.671 223.37 46.499 Q 224.323 47.312 224.354 48.78 L 224.354 53.452 Q 224.354 54.89 224.651 55.593 L 224.651 55.702 L 223.479 55.702 Z  M 220.057 54.921 Q 221.151 54.921 222.01 54.39 Q 222.87 53.858 223.26 52.983 L 223.26 50.812 L 221.307 50.812 Q 219.682 50.827 218.76 51.405 Q 217.838 51.983 217.838 52.999 Q 217.838 53.827 218.448 54.374 Q 219.073 54.921 220.057 54.921 Z  M 235.175 50.874 Q 235.175 53.187 234.159 54.546 Q 233.144 55.89 231.425 55.89 Q 229.409 55.89 228.331 54.468 L 228.331 59.499 L 227.238 59.499 L 227.238 45.843 L 228.253 45.843 L 228.316 47.233 Q 229.378 45.671 231.394 45.671 Q 233.159 45.671 234.159 47.015 Q 235.175 48.343 235.175 50.718 L 235.175 50.874 Z  M 234.081 50.687 Q 234.081 48.796 233.3 47.702 Q 232.534 46.608 231.144 46.608 Q 230.144 46.608 229.425 47.093 Q 228.706 47.577 228.331 48.499 L 228.331 53.218 Q 228.722 54.077 229.441 54.53 Q 230.175 54.968 231.175 54.968 Q 232.55 54.968 233.316 53.874 Q 234.081 52.765 234.081 50.687 Z  M 236.983 50.624 Q 236.983 49.202 237.53 48.077 Q 238.093 46.937 239.093 46.312 Q 240.108 45.671 241.374 45.671 Q 243.343 45.671 244.561 47.046 Q 245.796 48.421 245.796 50.702 L 245.796 50.937 Q 245.796 52.358 245.233 53.499 Q 244.686 54.64 243.686 55.265 Q 242.686 55.89 241.405 55.89 Q 239.436 55.89 238.202 54.515 Q 236.983 53.124 236.983 50.843 L 236.983 50.624 Z  M 238.077 50.937 Q 238.077 52.702 238.999 53.843 Q 239.921 54.968 241.405 54.968 Q 242.874 54.968 243.78 53.843 Q 244.702 52.702 244.702 50.843 L 244.702 50.624 Q 244.702 49.499 244.28 48.562 Q 243.874 47.624 243.108 47.108 Q 242.358 46.593 241.374 46.593 Q 239.921 46.593 238.999 47.733 Q 238.077 48.874 238.077 50.733 L 238.077 50.937 Z  M 249.26 55.702 L 248.166 55.702 L 248.166 41.702 L 249.26 41.702 L 249.26 55.702 Z  M 258.441 55.702 Q 258.285 55.233 258.238 54.327 Q 257.66 55.077 256.769 55.483 Q 255.879 55.89 254.894 55.89 Q 253.472 55.89 252.582 55.093 Q 251.707 54.296 251.707 53.093 Q 251.707 51.655 252.91 50.812 Q 254.113 49.968 256.254 49.968 L 258.222 49.968 L 258.222 48.858 Q 258.222 47.796 257.566 47.187 Q 256.926 46.577 255.676 46.577 Q 254.535 46.577 253.785 47.171 Q 253.035 47.749 253.035 48.577 L 251.941 48.562 Q 251.941 47.39 253.035 46.53 Q 254.129 45.671 255.722 45.671 Q 257.379 45.671 258.332 46.499 Q 259.285 47.312 259.316 48.78 L 259.316 53.452 Q 259.316 54.89 259.613 55.593 L 259.613 55.702 L 258.441 55.702 Z  M 255.019 54.921 Q 256.113 54.921 256.972 54.39 Q 257.832 53.858 258.222 52.983 L 258.222 50.812 L 256.269 50.812 Q 254.644 50.827 253.722 51.405 Q 252.801 51.983 252.801 52.999 Q 252.801 53.827 253.41 54.374 Q 254.035 54.921 255.019 54.921 Z  M 263.903 43.327 L 263.903 45.843 L 265.95 45.843 L 265.95 46.733 L 263.903 46.733 L 263.903 53.312 Q 263.903 54.124 264.2 54.53 Q 264.497 54.921 265.2 54.921 Q 265.465 54.921 266.075 54.843 L 266.122 55.733 Q 265.7 55.89 264.95 55.89 Q 263.84 55.89 263.325 55.233 Q 262.809 54.577 262.809 53.312 L 262.809 46.733 L 260.997 46.733 L 260.997 45.843 L 262.809 45.843 L 262.809 43.327 L 263.903 43.327 Z  M 269.428 55.702 L 268.335 55.702 L 268.335 45.843 L 269.428 45.843 L 269.428 55.702 Z  M 268.147 42.999 Q 268.147 42.687 268.35 42.468 Q 268.553 42.249 268.897 42.249 Q 269.241 42.249 269.444 42.468 Q 269.647 42.687 269.647 42.999 Q 269.647 43.312 269.444 43.515 Q 269.241 43.718 268.897 43.718 Q 268.553 43.718 268.35 43.515 Q 268.147 43.312 268.147 42.999 Z  M 271.781 50.624 Q 271.781 49.202 272.328 48.077 Q 272.891 46.937 273.891 46.312 Q 274.906 45.671 276.172 45.671 Q 278.141 45.671 279.36 47.046 Q 280.594 48.421 280.594 50.702 L 280.594 50.937 Q 280.594 52.358 280.031 53.499 Q 279.485 54.64 278.485 55.265 Q 277.485 55.89 276.203 55.89 Q 274.235 55.89 273 54.515 Q 271.781 53.124 271.781 50.843 L 271.781 50.624 Z  M 272.875 50.937 Q 272.875 52.702 273.797 53.843 Q 274.719 54.968 276.203 54.968 Q 277.672 54.968 278.578 53.843 Q 279.5 52.702 279.5 50.843 L 279.5 50.624 Q 279.5 49.499 279.078 48.562 Q 278.672 47.624 277.906 47.108 Q 277.156 46.593 276.172 46.593 Q 274.719 46.593 273.797 47.733 Q 272.875 48.874 272.875 50.733 L 272.875 50.937 Z  M 283.871 45.843 L 283.918 47.53 Q 284.464 46.624 285.293 46.155 Q 286.121 45.671 287.136 45.671 Q 288.714 45.671 289.48 46.562 Q 290.261 47.452 290.277 49.233 L 290.277 55.702 L 289.183 55.702 L 289.183 49.218 Q 289.183 47.905 288.621 47.265 Q 288.074 46.608 286.871 46.608 Q 285.855 46.608 285.074 47.249 Q 284.293 47.874 283.918 48.952 L 283.918 55.702 L 282.839 55.702 L 282.839 45.843 L 283.871 45.843 Z " fill="rgb(180,167,214)"/><path d=" M 659.126 28.782 L 791.567 28.782 L 791.567 130.451 L 659.126 130.451 L 659.126 28.782 Z " fill-rule="evenodd" fill="none"/><path d=" M 677.126 49.343 L 670.922 49.343 L 670.922 54.749 L 678.047 54.749 L 678.047 55.702 L 669.797 55.702 L 669.797 42.437 L 678.016 42.437 L 678.016 43.39 L 670.922 43.39 L 670.922 48.39 L 677.126 48.39 L 677.126 49.343 Z  M 683.254 49.843 L 685.91 45.843 L 687.207 45.843 L 683.863 50.687 L 687.363 55.702 L 686.066 55.702 L 683.269 51.53 L 680.457 55.702 L 679.176 55.702 L 682.66 50.687 L 679.316 45.843 L 680.598 45.843 L 683.254 49.843 Z  M 690.921 43.327 L 690.921 45.843 L 692.967 45.843 L 692.967 46.733 L 690.921 46.733 L 690.921 53.312 Q 690.921 54.124 691.217 54.53 Q 691.514 54.921 692.217 54.921 Q 692.483 54.921 693.092 54.843 L 693.139 55.733 Q 692.717 55.89 691.967 55.89 Q 690.858 55.89 690.342 55.233 Q 689.827 54.577 689.827 53.312 L 689.827 46.733 L 688.014 46.733 L 688.014 45.843 L 689.827 45.843 L 689.827 43.327 L 690.921 43.327 Z  M 699.774 46.78 Q 699.43 46.718 699.04 46.718 Q 698.024 46.718 697.321 47.28 Q 696.618 47.843 696.305 48.937 L 696.305 55.702 L 695.227 55.702 L 695.227 45.843 L 696.29 45.843 L 696.305 47.405 Q 697.18 45.671 699.087 45.671 Q 699.54 45.671 699.805 45.78 L 699.774 46.78 Z  M 707.358 55.702 Q 707.202 55.233 707.155 54.327 Q 706.577 55.077 705.686 55.483 Q 704.795 55.89 703.811 55.89 Q 702.389 55.89 701.498 55.093 Q 700.623 54.296 700.623 53.093 Q 700.623 51.655 701.827 50.812 Q 703.03 49.968 705.17 49.968 L 707.139 49.968 L 707.139 48.858 Q 707.139 47.796 706.483 47.187 Q 705.842 46.577 704.592 46.577 Q 703.452 46.577 702.702 47.171 Q 701.952 47.749 701.952 48.577 L 700.858 48.562 Q 700.858 47.39 701.952 46.53 Q 703.045 45.671 704.639 45.671 Q 706.295 45.671 707.248 46.499 Q 708.202 47.312 708.233 48.78 L 708.233 53.452 Q 708.233 54.89 708.53 55.593 L 708.53 55.702 L 707.358 55.702 Z  M 703.936 54.921 Q 705.03 54.921 705.889 54.39 Q 706.748 53.858 707.139 52.983 L 707.139 50.812 L 705.186 50.812 Q 703.561 50.827 702.639 51.405 Q 701.717 51.983 701.717 52.999 Q 701.717 53.827 702.327 54.374 Q 702.952 54.921 703.936 54.921 Z  M 719.054 50.874 Q 719.054 53.187 718.038 54.546 Q 717.023 55.89 715.304 55.89 Q 713.288 55.89 712.21 54.468 L 712.21 59.499 L 711.117 59.499 L 711.117 45.843 L 712.132 45.843 L 712.195 47.233 Q 713.257 45.671 715.273 45.671 Q 717.038 45.671 718.038 47.015 Q 719.054 48.343 719.054 50.718 L 719.054 50.874 Z  M 717.96 50.687 Q 717.96 48.796 717.179 47.702 Q 716.413 46.608 715.023 46.608 Q 714.023 46.608 713.304 47.093 Q 712.585 47.577 712.21 48.499 L 712.21 53.218 Q 712.601 54.077 713.32 54.53 Q 714.054 54.968 715.054 54.968 Q 716.429 54.968 717.195 53.874 Q 717.96 52.765 717.96 50.687 Z  M 720.862 50.624 Q 720.862 49.202 721.409 48.077 Q 721.971 46.937 722.971 46.312 Q 723.987 45.671 725.253 45.671 Q 727.221 45.671 728.44 47.046 Q 729.675 48.421 729.675 50.702 L 729.675 50.937 Q 729.675 52.358 729.112 53.499 Q 728.565 54.64 727.565 55.265 Q 726.565 55.89 725.284 55.89 Q 723.315 55.89 722.081 54.515 Q 720.862 53.124 720.862 50.843 L 720.862 50.624 Z  M 721.956 50.937 Q 721.956 52.702 722.878 53.843 Q 723.8 54.968 725.284 54.968 Q 726.753 54.968 727.659 53.843 Q 728.581 52.702 728.581 50.843 L 728.581 50.624 Q 728.581 49.499 728.159 48.562 Q 727.753 47.624 726.987 47.108 Q 726.237 46.593 725.253 46.593 Q 723.8 46.593 722.878 47.733 Q 721.956 48.874 721.956 50.733 L 721.956 50.937 Z  M 733.139 55.702 L 732.045 55.702 L 732.045 41.702 L 733.139 41.702 L 733.139 55.702 Z  M 742.32 55.702 Q 742.164 55.233 742.117 54.327 Q 741.539 55.077 740.648 55.483 Q 739.757 55.89 738.773 55.89 Q 737.351 55.89 736.461 55.093 Q 735.586 54.296 735.586 53.093 Q 735.586 51.655 736.789 50.812 Q 737.992 49.968 740.132 49.968 L 742.101 49.968 L 742.101 48.858 Q 742.101 47.796 741.445 47.187 Q 740.804 46.577 739.554 46.577 Q 738.414 46.577 737.664 47.171 Q 736.914 47.749 736.914 48.577 L 735.82 48.562 Q 735.82 47.39 736.914 46.53 Q 738.007 45.671 739.601 45.671 Q 741.257 45.671 742.211 46.499 Q 743.164 47.312 743.195 48.78 L 743.195 53.452 Q 743.195 54.89 743.492 55.593 L 743.492 55.702 L 742.32 55.702 Z  M 738.898 54.921 Q 739.992 54.921 740.851 54.39 Q 741.711 53.858 742.101 52.983 L 742.101 50.812 L 740.148 50.812 Q 738.523 50.827 737.601 51.405 Q 736.679 51.983 736.679 52.999 Q 736.679 53.827 737.289 54.374 Q 737.914 54.921 738.898 54.921 Z  M 747.782 43.327 L 747.782 45.843 L 749.829 45.843 L 749.829 46.733 L 747.782 46.733 L 747.782 53.312 Q 747.782 54.124 748.079 54.53 Q 748.376 54.921 749.079 54.921 Q 749.344 54.921 749.954 54.843 L 750.001 55.733 Q 749.579 55.89 748.829 55.89 Q 747.719 55.89 747.204 55.233 Q 746.688 54.577 746.688 53.312 L 746.688 46.733 L 744.876 46.733 L 744.876 45.843 L 746.688 45.843 L 746.688 43.327 L 747.782 43.327 Z  M 753.307 55.702 L 752.213 55.702 L 752.213 45.843 L 753.307 45.843 L 753.307 55.702 Z  M 752.026 42.999 Q 752.026 42.687 752.229 42.468 Q 752.432 42.249 752.776 42.249 Q 753.12 42.249 753.323 42.468 Q 753.526 42.687 753.526 42.999 Q 753.526 43.312 753.323 43.515 Q 753.12 43.718 752.776 43.718 Q 752.432 43.718 752.229 43.515 Q 752.026 43.312 752.026 42.999 Z  M 755.66 50.624 Q 755.66 49.202 756.207 48.077 Q 756.77 46.937 757.77 46.312 Q 758.785 45.671 760.051 45.671 Q 762.02 45.671 763.238 47.046 Q 764.473 48.421 764.473 50.702 L 764.473 50.937 Q 764.473 52.358 763.91 53.499 Q 763.363 54.64 762.363 55.265 Q 761.363 55.89 760.082 55.89 Q 758.113 55.89 756.879 54.515 Q 755.66 53.124 755.66 50.843 L 755.66 50.624 Z  M 756.754 50.937 Q 756.754 52.702 757.676 53.843 Q 758.598 54.968 760.082 54.968 Q 761.551 54.968 762.457 53.843 Q 763.379 52.702 763.379 50.843 L 763.379 50.624 Q 763.379 49.499 762.957 48.562 Q 762.551 47.624 761.785 47.108 Q 761.035 46.593 760.051 46.593 Q 758.598 46.593 757.676 47.733 Q 756.754 48.874 756.754 50.733 L 756.754 50.937 Z  M 767.75 45.843 L 767.796 47.53 Q 768.343 46.624 769.171 46.155 Q 770 45.671 771.015 45.671 Q 772.593 45.671 773.359 46.562 Q 774.14 47.452 774.156 49.233 L 774.156 55.702 L 773.062 55.702 L 773.062 49.218 Q 773.062 47.905 772.5 47.265 Q 771.953 46.608 770.75 46.608 Q 769.734 46.608 768.953 47.249 Q 768.171 47.874 767.796 48.952 L 767.796 55.702 L 766.718 55.702 L 766.718 45.843 L 767.75 45.843 Z " fill="rgb(180,167,214)"/><path d=" M 407.749 28.782 L 561.859 28.782 L 561.859 130.451 L 407.749 130.451 L 407.749 28.782 Z " fill-rule="evenodd" fill="none"/><path d=" M 436.373 55.702 L 435.248 55.702 L 435.248 42.437 L 436.373 42.437 L 436.373 55.702 Z  M 440.744 45.843 L 440.791 47.53 Q 441.338 46.624 442.166 46.155 Q 442.994 45.671 444.01 45.671 Q 445.588 45.671 446.354 46.562 Q 447.135 47.452 447.151 49.233 L 447.151 55.702 L 446.057 55.702 L 446.057 49.218 Q 446.057 47.905 445.494 47.265 Q 444.947 46.608 443.744 46.608 Q 442.729 46.608 441.947 47.249 Q 441.166 47.874 440.791 48.952 L 440.791 55.702 L 439.713 55.702 L 439.713 45.843 L 440.744 45.843 Z  M 451.649 43.327 L 451.649 45.843 L 453.696 45.843 L 453.696 46.733 L 451.649 46.733 L 451.649 53.312 Q 451.649 54.124 451.946 54.53 Q 452.243 54.921 452.946 54.921 Q 453.211 54.921 453.821 54.843 L 453.868 55.733 Q 453.446 55.89 452.696 55.89 Q 451.586 55.89 451.071 55.233 Q 450.555 54.577 450.555 53.312 L 450.555 46.733 L 448.743 46.733 L 448.743 45.843 L 450.555 45.843 L 450.555 43.327 L 451.649 43.327 Z  M 459.768 55.89 Q 458.518 55.89 457.502 55.265 Q 456.487 54.64 455.908 53.546 Q 455.346 52.437 455.346 51.062 L 455.346 50.671 Q 455.346 49.249 455.893 48.108 Q 456.455 46.968 457.44 46.327 Q 458.424 45.671 459.565 45.671 Q 461.362 45.671 462.408 46.89 Q 463.471 48.108 463.471 50.233 L 463.471 50.843 L 456.44 50.843 L 456.44 51.062 Q 456.44 52.733 457.393 53.858 Q 458.362 54.968 459.815 54.968 Q 460.69 54.968 461.362 54.655 Q 462.033 54.327 462.58 53.624 L 463.268 54.14 Q 462.065 55.89 459.768 55.89 Z  M 459.565 46.593 Q 458.346 46.593 457.502 47.499 Q 456.658 48.39 456.471 49.921 L 462.393 49.921 L 462.393 49.796 Q 462.346 48.374 461.58 47.483 Q 460.815 46.593 459.565 46.593 Z  M 470.14 46.78 Q 469.796 46.718 469.406 46.718 Q 468.39 46.718 467.687 47.28 Q 466.984 47.843 466.671 48.937 L 466.671 55.702 L 465.593 55.702 L 465.593 45.843 L 466.656 45.843 L 466.671 47.405 Q 467.546 45.671 469.453 45.671 Q 469.906 45.671 470.171 45.78 L 470.14 46.78 Z  M 479.791 50.874 Q 479.791 53.187 478.776 54.546 Q 477.76 55.89 476.041 55.89 Q 474.026 55.89 472.948 54.468 L 472.948 59.499 L 471.854 59.499 L 471.854 45.843 L 472.87 45.843 L 472.932 47.233 Q 473.995 45.671 476.01 45.671 Q 477.776 45.671 478.776 47.015 Q 479.791 48.343 479.791 50.718 L 479.791 50.874 Z  M 478.698 50.687 Q 478.698 48.796 477.916 47.702 Q 477.151 46.608 475.76 46.608 Q 474.76 46.608 474.041 47.093 Q 473.323 47.577 472.948 48.499 L 472.948 53.218 Q 473.338 54.077 474.057 54.53 Q 474.791 54.968 475.791 54.968 Q 477.166 54.968 477.932 53.874 Q 478.698 52.765 478.698 50.687 Z  M 481.6 50.624 Q 481.6 49.202 482.146 48.077 Q 482.709 46.937 483.709 46.312 Q 484.725 45.671 485.99 45.671 Q 487.959 45.671 489.178 47.046 Q 490.412 48.421 490.412 50.702 L 490.412 50.937 Q 490.412 52.358 489.85 53.499 Q 489.303 54.64 488.303 55.265 Q 487.303 55.89 486.021 55.89 Q 484.053 55.89 482.818 54.515 Q 481.6 53.124 481.6 50.843 L 481.6 50.624 Z  M 482.693 50.937 Q 482.693 52.702 483.615 53.843 Q 484.537 54.968 486.021 54.968 Q 487.49 54.968 488.396 53.843 Q 489.318 52.702 489.318 50.843 L 489.318 50.624 Q 489.318 49.499 488.896 48.562 Q 488.49 47.624 487.725 47.108 Q 486.975 46.593 485.99 46.593 Q 484.537 46.593 483.615 47.733 Q 482.693 48.874 482.693 50.733 L 482.693 50.937 Z  M 493.876 55.702 L 492.782 55.702 L 492.782 41.702 L 493.876 41.702 L 493.876 55.702 Z  M 503.057 55.702 Q 502.901 55.233 502.854 54.327 Q 502.276 55.077 501.386 55.483 Q 500.495 55.89 499.511 55.89 Q 498.089 55.89 497.198 55.093 Q 496.323 54.296 496.323 53.093 Q 496.323 51.655 497.526 50.812 Q 498.729 49.968 500.87 49.968 L 502.839 49.968 L 502.839 48.858 Q 502.839 47.796 502.182 47.187 Q 501.542 46.577 500.292 46.577 Q 499.151 46.577 498.401 47.171 Q 497.651 47.749 497.651 48.577 L 496.557 48.562 Q 496.557 47.39 497.651 46.53 Q 498.745 45.671 500.339 45.671 Q 501.995 45.671 502.948 46.499 Q 503.901 47.312 503.932 48.78 L 503.932 53.452 Q 503.932 54.89 504.229 55.593 L 504.229 55.702 L 503.057 55.702 Z  M 499.636 54.921 Q 500.729 54.921 501.589 54.39 Q 502.448 53.858 502.839 52.983 L 502.839 50.812 L 500.886 50.812 Q 499.261 50.827 498.339 51.405 Q 497.417 51.983 497.417 52.999 Q 497.417 53.827 498.026 54.374 Q 498.651 54.921 499.636 54.921 Z  M 508.519 43.327 L 508.519 45.843 L 510.566 45.843 L 510.566 46.733 L 508.519 46.733 L 508.519 53.312 Q 508.519 54.124 508.816 54.53 Q 509.113 54.921 509.816 54.921 Q 510.082 54.921 510.691 54.843 L 510.738 55.733 Q 510.316 55.89 509.566 55.89 Q 508.457 55.89 507.941 55.233 Q 507.426 54.577 507.426 53.312 L 507.426 46.733 L 505.613 46.733 L 505.613 45.843 L 507.426 45.843 L 507.426 43.327 L 508.519 43.327 Z  M 514.045 55.702 L 512.951 55.702 L 512.951 45.843 L 514.045 45.843 L 514.045 55.702 Z  M 512.763 42.999 Q 512.763 42.687 512.967 42.468 Q 513.17 42.249 513.513 42.249 Q 513.857 42.249 514.06 42.468 Q 514.263 42.687 514.263 42.999 Q 514.263 43.312 514.06 43.515 Q 513.857 43.718 513.513 43.718 Q 513.17 43.718 512.967 43.515 Q 512.763 43.312 512.763 42.999 Z  M 516.398 50.624 Q 516.398 49.202 516.945 48.077 Q 517.507 46.937 518.507 46.312 Q 519.523 45.671 520.788 45.671 Q 522.757 45.671 523.976 47.046 Q 525.21 48.421 525.21 50.702 L 525.21 50.937 Q 525.21 52.358 524.648 53.499 Q 524.101 54.64 523.101 55.265 Q 522.101 55.89 520.82 55.89 Q 518.851 55.89 517.617 54.515 Q 516.398 53.124 516.398 50.843 L 516.398 50.624 Z  M 517.492 50.937 Q 517.492 52.702 518.413 53.843 Q 519.335 54.968 520.82 54.968 Q 522.288 54.968 523.195 53.843 Q 524.117 52.702 524.117 50.843 L 524.117 50.624 Q 524.117 49.499 523.695 48.562 Q 523.288 47.624 522.523 47.108 Q 521.773 46.593 520.788 46.593 Q 519.335 46.593 518.413 47.733 Q 517.492 48.874 517.492 50.733 L 517.492 50.937 Z  M 528.487 45.843 L 528.534 47.53 Q 529.081 46.624 529.909 46.155 Q 530.737 45.671 531.753 45.671 Q 533.331 45.671 534.096 46.562 Q 534.878 47.452 534.893 49.233 L 534.893 55.702 L 533.799 55.702 L 533.799 49.218 Q 533.799 47.905 533.237 47.265 Q 532.69 46.608 531.487 46.608 Q 530.471 46.608 529.69 47.249 Q 528.909 47.874 528.534 48.952 L 528.534 55.702 L 527.456 55.702 L 527.456 45.843 L 528.487 45.843 Z " fill="rgb(164,194,244)"/></g></g><line x1="240.808" y1="117.131" x2="728.889" y2="117.131" vector-effect="non-scaling-stroke" stroke-width="1" stroke="rgb(0,0,0)" stroke-linejoin="miter" stroke-linecap="square" stroke-miterlimit="3"/></g></svg>