<?xml version="1.0" encoding="UTF-8" standalone="no"?><!-- Generator: Gravit.io --><svg xmlns="http://www.w3.org/2000/svg" xmlns:xlink="http://www.w3.org/1999/xlink" style="isolation:isolate" viewBox="0 0 560 115" width="560pt" height="115pt"><defs><clipPath id="_clipPath_Lm37ouK0QEfCMa7Z7OAPAkWDwbBiRBlQ"><rect width="560" height="115"/></clipPath></defs><g clip-path="url(#_clipPath_Lm37ouK0QEfCMa7Z7OAPAkWDwbBiRBlQ)"><path d=" M 68 81 Q 342 81 483 81" fill="none" vector-effect="non-scaling-stroke" stroke-width="1" stroke="rgb(185,185,185)" stroke-linejoin="miter" stroke-linecap="square" stroke-miterlimit="3"/><path d=" M 69 76.5 C 120 71.5 163.05 57.092 184 47 C 204.95 36.908 241.306 8.473 277.991 9 C 313.098 9.504 348.505 38.565 371 47 C 393.495 55.435 436 73.5 479 76.5" fill="none" vector-effect="non-scaling-stroke" stroke-width="1" stroke="rgb(185,185,185)" stroke-linejoin="miter" stroke-linecap="square" stroke-miterlimit="3"/><line x1="335.991" y1="87.5" x2="335.991" y2="65.5" vector-effect="non-scaling-stroke" stroke-width="1" stroke="rgb(185,185,185)" stroke-linejoin="miter" stroke-linecap="square" stroke-miterlimit="3"/><text transform="matrix(1,0,0,1,331,100.964)" style="font-family:'Open Sans';font-weight:400;font-size:14px;font-style:normal;fill:#b9b9b9;stroke:none;">1</text><line x1="395.991" y1="87.5" x2="395.991" y2="65.5" vector-effect="non-scaling-stroke" stroke-width="1" stroke="rgb(185,185,185)" stroke-linejoin="miter" stroke-linecap="square" stroke-miterlimit="3"/><text transform="matrix(1,0,0,1,391,100.964)" style="font-family:'Open Sans';font-weight:400;font-size:14px;font-style:normal;fill:#b9b9b9;stroke:none;">2</text><line x1="155.991" y1="87.5" x2="155.991" y2="65.5" vector-effect="non-scaling-stroke" stroke-width="1" stroke="rgb(185,185,185)" stroke-linejoin="miter" stroke-linecap="square" stroke-miterlimit="3"/><text transform="matrix(1,0,0,1,146,100.964)" style="font-family:'Open Sans';font-weight:400;font-size:14px;font-style:normal;fill:#b9b9b9;stroke:none;">-2</text><line x1="215.991" y1="87.5" x2="215.991" y2="65.5" vector-effect="non-scaling-stroke" stroke-width="1" stroke="rgb(185,185,185)" stroke-linejoin="miter" stroke-linecap="square" stroke-miterlimit="3"/><text transform="matrix(1,0,0,1,207,100.964)" style="font-family:'Open Sans';font-weight:400;font-size:14px;font-style:normal;fill:#b9b9b9;stroke:none;">-1</text><line x1="275.991" y1="87.5" x2="275.991" y2="65.5" vector-effect="non-scaling-stroke" stroke-width="1" stroke="rgb(185,185,185)" stroke-linejoin="miter" stroke-linecap="square" stroke-miterlimit="3"/><text transform="matrix(1,0,0,1,271,100.964)" style="font-family:'Open Sans';font-weight:400;font-size:14px;font-style:normal;fill:#b9b9b9;stroke:none;">0</text><text transform="matrix(1,0,0,1,270,42)" style="font-family:'Tangerine';font-weight:400;font-size:20px;font-style:normal;fill:#a2a2a2;stroke:none;">Z</text></g></svg>