<?xml version="1.0" encoding="UTF-8" standalone="no"?><!-- Generator: Gravit.io --><svg xmlns="http://www.w3.org/2000/svg" xmlns:xlink="http://www.w3.org/1999/xlink" style="isolation:isolate" viewBox="0 0 800 200" width="800pt" height="200pt"><defs><clipPath id="_clipPath_1EL58yBkZGwYxqH64MCuUjoLBW5YYDXI"><rect width="800" height="200"/></clipPath></defs><g clip-path="url(#_clipPath_1EL58yBkZGwYxqH64MCuUjoLBW5YYDXI)"><circle vector-effect="non-scaling-stroke" cx="400.00000000000006" cy="37.11724137931037" r="34.117241379310315" fill="rgb(235,235,235)" stroke-width="1" stroke="rgb(0,0,0)" stroke-linejoin="miter" stroke-linecap="square" stroke-miterlimit="3"/><circle vector-effect="non-scaling-stroke" cx="400.00000000000006" cy="162.88275862068966" r="34.117241379310315" fill="rgb(255,255,255)" stroke-width="1" stroke="rgb(0,0,0)" stroke-linejoin="miter" stroke-linecap="square" stroke-miterlimit="3"/><line x1="400" y1="71.234" x2="400" y2="128.766"/><line x1="400" y1="72.703" x2="400" y2="120.069" vector-effect="non-scaling-stroke" stroke-width="3" stroke="rgb(0,0,0)" stroke-linejoin="miter" stroke-linecap="square" stroke-miterlimit="3"/><path d=" M 404.7 120.624 L 402.733 124.032 L 400.765 127.44 C 400.343 128.172 399.657 128.172 399.235 127.44 L 397.267 124.032 L 395.3 120.624 C 394.877 119.893 395.22 119.299 396.065 119.299 L 400 119.299 L 403.935 119.299 C 404.78 119.299 405.123 119.893 404.7 120.624 Z " fill="rgb(0,0,0)" vector-effect="non-scaling-stroke" stroke-width="1" stroke="rgb(0,0,0)" stroke-linejoin="miter" stroke-linecap="square" stroke-miterlimit="3"/><text transform="matrix(0.669,0,0,0.669,393.31,42.897)" style="font-family:'Alice';font-weight:400;font-size:36px;font-style:normal;fill:#000000;stroke:none;">z</text><text transform="matrix(0.669,0,0,0.669,393.31,167.994)" style="font-family:'Alice';font-weight:400;font-size:36px;font-style:normal;fill:#000000;stroke:none;">x</text></g></svg>