<svg version="1.1" viewBox="0.0 0.0 960.0 540.0" fill="none" stroke="none" stroke-linecap="square" stroke-miterlimit="10" xmlns:xlink="http://www.w3.org/1999/xlink" xmlns="http://www.w3.org/2000/svg"><clipPath id="g7d5b1ba107_1_37.0"><path d="m0 0l960.0 0l0 540.0l-960.0 0l0 -540.0z" clip-rule="nonzero"/></clipPath><g clip-path="url(#g7d5b1ba107_1_37.0)"><path fill="#ffffff" d="m0 0l960.0 0l0 540.0l-960.0 0z" fill-rule="evenodd"/><path fill="#f0f1ff" d="m284.70288 441.34106l45.921265 0l0 43.55905l-45.921265 0z" fill-rule="evenodd"/><path fill="#f0f1ff" d="m705.31006 442.90973l45.921265 0l0 43.55905l-45.921265 0z" fill-rule="evenodd"/><path fill="#6fa8dc" d="m342.18497 442.24982l45.921265 0l0 43.55905l-45.921265 0z" fill-rule="evenodd"/><path fill="#6fa8dc" d="m641.427 442.88815l45.921265 0l0 43.55905l-45.921265 0z" fill-rule="evenodd"/><path fill="#9fc5e8" d="m422.8781 442.24982l191.05511 0l0 43.55905l-191.05511 0z" fill-rule="evenodd"/><path fill="#000000" fill-opacity="0.0" d="m276.05038 466.46783l493.41733 0" fill-rule="evenodd"/><path stroke="#595959" stroke-width="1.0" stroke-linejoin="round" stroke-linecap="butt" d="m276.05038 466.46783l487.41733 0" fill-rule="evenodd"/><path fill="#595959" stroke="#595959" stroke-width="1.0" stroke-linecap="butt" d="m763.4677 468.11957l4.538086 -1.6517334l-4.538086 -1.6517334z" fill-rule="evenodd"/><path fill="#fae1e1" d="m256.90826 45.7252l42.141724 0l0 39.968502l-42.141724 0z" fill-rule="evenodd"/><path fill="#fae1e1" d="m256.90826 416.48618l42.141724 0l0 39.968506l-42.141724 0z" fill-rule="evenodd"/><path fill="#e06666" d="m256.90826 99.60479l42.141724 0l0 39.9685l-42.141724 0z" fill-rule="evenodd"/><path fill="#e06666" d="m255.58704 367.3987l42.141724 0l0 39.968506l-42.141724 0z" fill-rule="evenodd"/><path fill="#ea9999" d="m259.98883 163.21667l35.968506 0l0 180.56693l-35.968506 0z" fill-rule="evenodd"/><path fill="#000000" fill-opacity="0.0" d="m276.6471 465.5735l0 -433.88977" fill-rule="evenodd"/><path stroke="#595959" stroke-width="1.0" stroke-linejoin="round" stroke-linecap="butt" d="m276.6471 465.5735l0 -427.88977" fill-rule="evenodd"/><path fill="#595959" stroke="#595959" stroke-width="1.0" stroke-linecap="butt" d="m278.29883 37.683716l-1.6517334 -4.538101l-1.6517334 4.538101z" fill-rule="evenodd"/><path fill="#000000" fill-opacity="0.0" d="m242.60866 119.59801l70.708664 0" fill-rule="evenodd"/><path stroke="#595959" stroke-width="2.0" stroke-linejoin="round" stroke-linecap="butt" d="m242.60866 119.59801l70.708664 0" fill-rule="evenodd"/><path fill="#000000" fill-opacity="0.0" d="m242.60866 387.80493l70.708664 0" fill-rule="evenodd"/><path stroke="#595959" stroke-width="2.0" stroke-linejoin="round" stroke-linecap="butt" d="m242.60866 387.80493l70.708664 0" fill-rule="evenodd"/><path fill="#000000" fill-opacity="0.0" d="m108.16111 360.7652l146.80316 0l0 55.716522l-146.80316 0z" fill-rule="evenodd"/><path fill="#999999" d="m126.145485 381.49768l-6.1875 0l0 6.1875l-1.125 0l0 -13.265625l8.21875 0l0 0.953125l-7.09375 0l0 5.15625l6.1875 0l0 0.96875zm2.1308517 1.109375q0 -1.421875 0.546875 -2.546875q0.5625 -1.140625 1.5625 -1.765625q1.015625 -0.640625 2.28125 -0.640625q1.96875 0 3.1875 1.375q1.234375 1.375 1.234375 3.65625l0 0.234375q0 1.421875 -0.5625 2.5625q-0.546875 1.140625 -1.546875 1.765625q-1.0 0.625 -2.28125 0.625q-1.96875 0 -3.203125 -1.375q-1.21875 -1.390625 -1.21875 -3.671875l0 -0.21875zm1.09375 0.3125q0 1.765625 0.921875 2.90625q0.921875 1.125 2.40625 1.125q1.46875 0 2.375 -1.125q0.921875 -1.140625 0.921875 -3.0l0 -0.21875q0 -1.125 -0.421875 -2.0625q-0.40625 -0.9375 -1.171875 -1.453125q-0.75 -0.515625 -1.734375 -0.515625q-1.453125 0 -2.375 1.140625q-0.921875 1.140625 -0.921875 3.0l0 0.203125zm14.214218 3.125l0.078125 0.28125l0.078125 -0.28125l4.171875 -11.625l1.234375 0l-4.9375 13.265625l-1.078125 0l-4.9375 -13.265625l1.21875 0l4.171875 11.625z" fill-rule="nonzero"/><path fill="#999999" d="m155.79272 394.68518l-5.546875 0l0 -0.5625l3.03125 -3.4375q0.75 -0.859375 1.046875 -1.421875q0.296875 -0.578125 0.296875 -1.109375q0 -0.828125 -0.5 -1.3125q-0.484375 -0.5 -1.34375 -0.5q-0.90625 0 -1.453125 0.578125q-0.546875 0.5625 -0.546875 1.46875l-0.71875 0q0 -0.734375 0.328125 -1.34375q0.34375 -0.625 0.96875 -0.96875q0.625 -0.359375 1.421875 -0.359375q1.203125 0 1.890625 0.640625q0.6875 0.640625 0.6875 1.734375q0 0.625 -0.390625 1.359375q-0.390625 0.734375 -1.359375 1.828125l-2.46875 2.796875l4.65625 0l0 0.609375z" fill-rule="nonzero"/><path fill="#999999" d="m163.25325 377.8258l0.046875 1.609375q0.546875 -0.890625 1.359375 -1.328125q0.828125 -0.453125 1.828125 -0.453125q2.328125 0 2.953125 1.90625q0.53125 -0.921875 1.40625 -1.40625q0.890625 -0.5 1.953125 -0.5q3.171875 0 3.234375 3.453125l0 6.578125l-1.09375 0l0 -6.5q0 -1.3125 -0.5625 -1.953125q-0.5625 -0.640625 -1.828125 -0.640625q-1.171875 0.015625 -1.984375 0.765625q-0.8125 0.734375 -0.90625 1.8125l0 6.515625l-1.09375 0l0 -6.578125q0 -1.265625 -0.59375 -1.890625q-0.578125 -0.625 -1.8125 -0.625q-1.015625 0 -1.765625 0.59375q-0.734375 0.578125 -1.09375 1.734375l0 6.765625l-1.09375 0l0 -9.859375l1.046875 0zm14.939987 4.78125q0 -1.421875 0.546875 -2.546875q0.5625 -1.140625 1.5625 -1.765625q1.015625 -0.640625 2.28125 -0.640625q1.96875 0 3.1875 1.375q1.234375 1.375 1.234375 3.65625l0 0.234375q0 1.421875 -0.5625 2.5625q-0.546875 1.140625 -1.546875 1.765625q-1.0 0.625 -2.28125 0.625q-1.96875 0 -3.203125 -1.375q-1.21875 -1.390625 -1.21875 -3.671875l0 -0.21875zm1.09375 0.3125q0 1.765625 0.921875 2.90625q0.921875 1.125 2.40625 1.125q1.46875 0 2.375 -1.125q0.921875 -1.140625 0.921875 -3.0l0 -0.21875q0 -1.125 -0.421875 -2.0625q-0.40625 -0.9375 -1.171875 -1.453125q-0.75 -0.515625 -1.734375 -0.515625q-1.453125 0 -2.375 1.140625q-0.921875 1.140625 -0.921875 3.0l0 0.203125zm9.526718 -0.25q0 -2.296875 1.015625 -3.65625q1.03125 -1.359375 2.796875 -1.359375q1.984375 0 3.03125 1.5625l0 -5.53125l1.09375 0l0 14.0l-1.03125 0l-0.03125 -1.3125q-1.046875 1.5 -3.09375 1.5q-1.703125 0 -2.75 -1.375q-1.03125 -1.375 -1.03125 -3.703125l0 -0.125zm1.109375 0.1875q0 1.890625 0.75 2.984375q0.75 1.078125 2.125 1.078125q2.015625 0 2.859375 -1.78125l0 -4.625q-0.84375 -1.921875 -2.84375 -1.921875q-1.375 0 -2.140625 1.078125q-0.75 1.078125 -0.75 3.1875zm13.507233 5.015625q-1.25 0 -2.265625 -0.625q-1.015625 -0.625 -1.59375 -1.71875q-0.5625 -1.109375 -0.5625 -2.484375l0 -0.390625q0 -1.421875 0.546875 -2.5625q0.5625 -1.140625 1.546875 -1.78125q0.984375 -0.65625 2.125 -0.65625q1.796875 0 2.84375 1.21875q1.0625 1.21875 1.0625 3.34375l0 0.609375l-7.03125 0l0 0.21875q0 1.671875 0.953125 2.796875q0.96875 1.109375 2.421875 1.109375q0.875 0 1.546875 -0.3125q0.671875 -0.328125 1.21875 -1.03125l0.6875 0.515625q-1.203125 1.75 -3.5 1.75zm-0.203125 -9.296875q-1.21875 0 -2.0625 0.90625q-0.84375 0.890625 -1.03125 2.421875l5.921875 0l0 -0.125q-0.046875 -1.421875 -0.8125 -2.3125q-0.765625 -0.890625 -2.015625 -0.890625zm10.934723 9.109375l-1.09375 0l0 -11.953125l-3.609375 1.34375l0 -1.03125l4.515625 -1.671875l0.1875 0l0 13.3125z" fill-rule="nonzero"/><path fill="#000000" fill-opacity="0.0" d="m108.1601 94.22619l146.80316 0l0 111.05512l-146.80316 0z" fill-rule="evenodd"/><path fill="#999999" d="m126.14448 114.95869l-6.1875 0l0 6.1875l-1.125 0l0 -13.265625l8.21875 0l0 0.953125l-7.09375 0l0 5.15625l6.1875 0l0 0.96875zm2.130867 1.109375q0 -1.421875 0.546875 -2.546875q0.5625 -1.140625 1.5625 -1.765625q1.015625 -0.640625 2.28125 -0.640625q1.96875 0 3.1875 1.375q1.234375 1.375 1.234375 3.65625l0 0.234375q0 1.421875 -0.5625 2.5625q-0.546875 1.140625 -1.546875 1.765625q-1.0 0.625 -2.28125 0.625q-1.96875 0 -3.203125 -1.375q-1.21875 -1.390625 -1.21875 -3.671875l0 -0.21875zm1.09375 0.3125q0 1.765625 0.921875 2.90625q0.921875 1.125 2.40625 1.125q1.46875 0 2.375 -1.125q0.921875 -1.140625 0.921875 -3.0l0 -0.21875q0 -1.125 -0.421875 -2.0625q-0.40625 -0.9375 -1.171875 -1.453125q-0.75 -0.515625 -1.734375 -0.515625q-1.453125 0 -2.375 1.140625q-0.921875 1.140625 -0.921875 3.0l0 0.203125zm14.214218 3.125l0.078125 0.28125l0.078125 -0.28125l4.171875 -11.625l1.234375 0l-4.9375 13.265625l-1.078125 0l-4.9375 -13.265625l1.21875 0l4.171875 11.625z" fill-rule="nonzero"/><path fill="#999999" d="m155.79173 128.14618l-5.546875 0l0 -0.5624924l3.03125 -3.4375q0.75 -0.859375 1.046875 -1.421875q0.296875 -0.578125 0.296875 -1.109375q0 -0.828125 -0.5 -1.3125q-0.484375 -0.5 -1.34375 -0.5q-0.90625 0 -1.453125 0.578125q-0.546875 0.5625 -0.546875 1.46875l-0.71875 0q0 -0.734375 0.328125 -1.34375q0.34375 -0.625 0.96875 -0.96875q0.625 -0.359375 1.421875 -0.359375q1.203125 0 1.890625 0.640625q0.6875 0.640625 0.6875 1.734375q0 0.625 -0.390625 1.359375q-0.390625 0.734375 -1.359375 1.828125l-2.46875 2.796875l4.65625 0l0 0.6093674z" fill-rule="nonzero"/><path fill="#999999" d="m161.74002 111.28681l0.046875 1.609375q0.546875 -0.890625 1.359375 -1.328125q0.828125 -0.453125 1.828125 -0.453125q2.328125 0 2.953125 1.90625q0.53125 -0.921875 1.40625 -1.40625q0.890625 -0.5 1.953125 -0.5q3.171875 0 3.234375 3.453125l0 6.578125l-1.09375 0l0 -6.5q0 -1.3125 -0.5625 -1.953125q-0.5625 -0.640625 -1.828125 -0.640625q-1.171875 0.015625 -1.984375 0.765625q-0.8125 0.734375 -0.90625 1.8125l0 6.515625l-1.09375 0l0 -6.578125q0 -1.265625 -0.59375 -1.890625q-0.578125 -0.625 -1.8125 -0.625q-1.015625 0 -1.765625 0.59375q-0.734375 0.578125 -1.09375 1.734375l0 6.765625l-1.09375 0l0 -9.859375l1.046875 0zm14.939987 4.78125q0 -1.421875 0.546875 -2.546875q0.5625 -1.140625 1.5625 -1.765625q1.015625 -0.640625 2.28125 -0.640625q1.96875 0 3.1875 1.375q1.234375 1.375 1.234375 3.65625l0 0.234375q0 1.421875 -0.5625 2.5625q-0.546875 1.140625 -1.546875 1.765625q-1.0 0.625 -2.28125 0.625q-1.96875 0 -3.203125 -1.375q-1.21875 -1.390625 -1.21875 -3.671875l0 -0.21875zm1.09375 0.3125q0 1.765625 0.921875 2.90625q0.921875 1.125 2.40625 1.125q1.46875 0 2.375 -1.125q0.921875 -1.140625 0.921875 -3.0l0 -0.21875q0 -1.125 -0.421875 -2.0625q-0.40625 -0.9375 -1.171875 -1.453125q-0.75 -0.515625 -1.734375 -0.515625q-1.453125 0 -2.375 1.140625q-0.921875 1.140625 -0.921875 3.0l0 0.203125zm9.526718 -0.25q0 -2.296875 1.015625 -3.65625q1.03125 -1.359375 2.796875 -1.359375q1.984375 0 3.03125 1.5625l0 -5.53125l1.09375 0l0 14.0l-1.03125 0l-0.03125 -1.3125q-1.046875 1.5 -3.09375 1.5q-1.703125 0 -2.75 -1.375q-1.03125 -1.375 -1.03125 -3.703125l0 -0.125zm1.109375 0.1875q0 1.890625 0.75 2.984375q0.75 1.078125 2.125 1.078125q2.015625 0 2.859375 -1.78125l0 -4.625q-0.84375 -1.921875 -2.84375 -1.921875q-1.375 0 -2.140625 1.078125q-0.75 1.078125 -0.75 3.1875zm13.507233 5.015625q-1.25 0 -2.265625 -0.625q-1.015625 -0.625 -1.59375 -1.71875q-0.5625 -1.109375 -0.5625 -2.484375l0 -0.390625q0 -1.421875 0.546875 -2.5625q0.5625 -1.140625 1.546875 -1.78125q0.984375 -0.65625 2.125 -0.65625q1.796875 0 2.84375 1.21875q1.0625 1.21875 1.0625 3.34375l0 0.609375l-7.03125 0l0 0.21875q0 1.671875 0.953125 2.796875q0.96875 1.109375 2.421875 1.109375q0.875 0 1.546875 -0.3125q0.671875 -0.328125 1.21875 -1.03125l0.6875 0.515625q-1.203125 1.75 -3.5 1.75zm-0.203125 -9.296875q-1.21875 0 -2.0625 0.90625q-0.84375 0.890625 -1.03125 2.421875l5.921875 0l0 -0.125q-0.046875 -1.421875 -0.8125 -2.3125q-0.765625 -0.890625 -2.015625 -0.890625zm14.169098 9.109375l-8.3125 0l0 -0.84375l4.546875 -5.15625q1.125 -1.296875 1.5625 -2.140625q0.4375 -0.84375 0.4375 -1.65625q0 -1.25 -0.734375 -1.984375q-0.734375 -0.734375 -2.03125 -0.734375q-1.34375 0 -2.171875 0.859375q-0.8125 0.859375 -0.8125 2.21875l-1.09375 0q0 -1.125 0.5 -2.03125q0.515625 -0.921875 1.4375 -1.453125q0.9375 -0.53125 2.140625 -0.53125q1.8125 0 2.84375 0.96875q1.03125 0.953125 1.03125 2.59375q0 0.9375 -0.578125 2.046875q-0.578125 1.09375 -2.046875 2.75l-3.6875 4.171875l6.96875 0l0 0.921875z" fill-rule="nonzero"/><path fill="#000000" fill-opacity="0.0" d="m365.1292 428.107l0 73.13388" fill-rule="evenodd"/><path stroke="#595959" stroke-width="2.0" stroke-linejoin="round" stroke-linecap="butt" d="m365.1292 428.107l0 73.13388" fill-rule="evenodd"/><path fill="#000000" fill-opacity="0.0" d="m664.6705 429.2421l0 73.13385" fill-rule="evenodd"/><path stroke="#595959" stroke-width="2.0" stroke-linejoin="round" stroke-linecap="butt" d="m664.6705 429.2421l0 73.13385" fill-rule="evenodd"/><path fill="#000000" fill-opacity="0.0" d="m291.57666 493.41028l229.54327 0l0 121.102356l-229.54327 0z" fill-rule="evenodd"/><path fill="#999999" d="m309.56104 514.14276l-6.1875 0l0 6.1875l-1.125 0l0 -13.2655945l8.21875 0l0 0.953125l-7.09375 0l0 5.1562195l6.1875 0l0 0.96875zm2.1308594 1.109375q0 -1.421875 0.546875 -2.546875q0.5625 -1.1405945 1.5625 -1.7655945q1.015625 -0.640625 2.28125 -0.640625q1.96875 0 3.1875 1.375q1.234375 1.3749695 1.234375 3.6562195l0 0.234375q0 1.421875 -0.5625 2.5625q-0.546875 1.140625 -1.546875 1.765625q-1.0 0.625 -2.28125 0.625q-1.96875 0 -3.203125 -1.375q-1.21875 -1.390625 -1.21875 -3.671875l0 -0.21875zm1.09375 0.3125q0 1.765625 0.921875 2.90625q0.921875 1.125 2.40625 1.125q1.46875 0 2.375 -1.125q0.921875 -1.140625 0.921875 -3.0l0 -0.21875q0 -1.125 -0.421875 -2.0625q-0.40625 -0.9375 -1.171875 -1.4530945q-0.75 -0.515625 -1.734375 -0.515625q-1.453125 0 -2.375 1.1405945q-0.921875 1.140625 -0.921875 3.0l0 0.203125zm14.214203 3.125l0.078125 0.28125l0.078125 -0.28125l4.171875 -11.6249695l1.234375 0l-4.9375 13.2655945l-1.078125 0l-4.9375 -13.2655945l1.21875 0l4.171875 11.6249695z" fill-rule="nonzero"/><path fill="#999999" d="m337.05203 527.33026l-0.734375 0l0 -7.96875l-2.40625 0.890625l0 -0.671875l3.015625 -1.125l0.125 0l0 8.875z" fill-rule="nonzero"/><path fill="#999999" d="m346.6688 510.47092l0.046875 1.6093445q0.546875 -0.8905945 1.359375 -1.3280945q0.828125 -0.453125 1.828125 -0.453125q2.328125 0 2.953125 1.9062195q0.53125 -0.9218445 1.40625 -1.4062195q0.890625 -0.5 1.953125 -0.5q3.171875 0 3.234375 3.4530945l0 6.578125l-1.09375 0l0 -6.5q0 -1.3125 -0.5625 -1.9530945q-0.5625 -0.640625 -1.828125 -0.640625q-1.171875 0.015625 -1.984375 0.7655945q-0.8125 0.734375 -0.90625 1.8125l0 6.515625l-1.09375 0l0 -6.578125q0 -1.265625 -0.59375 -1.8905945q-0.578125 -0.625 -1.8125 -0.625q-1.015625 0 -1.765625 0.59375q-0.734375 0.5780945 -1.09375 1.7343445l0 6.765625l-1.09375 0l0 -9.8593445l1.046875 0zm14.940002 4.7812195q0 -1.421875 0.546875 -2.546875q0.5625 -1.1405945 1.5625 -1.7655945q1.015625 -0.640625 2.28125 -0.640625q1.96875 0 3.1875 1.375q1.234375 1.3749695 1.234375 3.6562195l0 0.234375q0 1.421875 -0.5625 2.5625q-0.546875 1.140625 -1.546875 1.765625q-1.0 0.625 -2.28125 0.625q-1.96875 0 -3.203125 -1.375q-1.21875 -1.390625 -1.21875 -3.671875l0 -0.21875zm1.09375 0.3125q0 1.765625 0.921875 2.90625q0.921875 1.125 2.40625 1.125q1.46875 0 2.375 -1.125q0.921875 -1.140625 0.921875 -3.0l0 -0.21875q0 -1.125 -0.421875 -2.0625q-0.40625 -0.9375 -1.171875 -1.4530945q-0.75 -0.515625 -1.734375 -0.515625q-1.453125 0 -2.375 1.1405945q-0.921875 1.140625 -0.921875 3.0l0 0.203125zm9.526703 -0.25q0 -2.296875 1.015625 -3.6562195q1.03125 -1.359375 2.796875 -1.359375q1.984375 0 3.03125 1.5625l0 -5.53125l1.09375 0l0 13.9999695l-1.03125 0l-0.03125 -1.3125q-1.046875 1.5 -3.09375 1.5q-1.703125 0 -2.75 -1.375q-1.03125 -1.375 -1.03125 -3.703125l0 -0.125zm1.109375 0.1875q0 1.890625 0.75 2.984375q0.75 1.078125 2.125 1.078125q2.015625 0 2.859375 -1.78125l0 -4.625q-0.84375 -1.9218445 -2.84375 -1.9218445q-1.375 0 -2.140625 1.0780945q-0.75 1.078125 -0.75 3.1875zm13.507233 5.015625q-1.25 0 -2.265625 -0.625q-1.015625 -0.625 -1.59375 -1.71875q-0.5625 -1.109375 -0.5625 -2.484375l0 -0.390625q0 -1.421875 0.546875 -2.5625q0.5625 -1.1405945 1.546875 -1.7812195q0.984375 -0.65625 2.125 -0.65625q1.796875 0 2.84375 1.21875q1.0625 1.2187195 1.0625 3.3437195l0 0.609375l-7.03125 0l0 0.21875q0 1.671875 0.953125 2.796875q0.96875 1.109375 2.421875 1.109375q0.875 0 1.546875 -0.3125q0.671875 -0.328125 1.21875 -1.03125l0.6875 0.515625q-1.203125 1.75 -3.5 1.75zm-0.203125 -9.2968445q-1.21875 0 -2.0625 0.9062195q-0.84375 0.890625 -1.03125 2.421875l5.921875 0l0 -0.125q-0.046875 -1.421875 -0.8125 -2.3125q-0.765625 -0.8905945 -2.015625 -0.8905945zm10.934723 9.1093445l-1.09375 0l0 -11.9530945l-3.609375 1.34375l0 -1.03125l4.515625 -1.671875l0.1875 0l0 13.3124695z" fill-rule="nonzero"/><path fill="#000000" fill-opacity="0.0" d="m590.52826 493.48663l229.54327 0l0 121.102356l-229.54327 0z" fill-rule="evenodd"/><path fill="#999999" d="m608.51263 514.2191l-6.1875 0l0 6.1875l-1.125 0l0 -13.265625l8.21875 0l0 0.953125l-7.09375 0l0 5.15625l6.1875 0l0 0.96875zm2.1308594 1.109375q0 -1.421875 0.546875 -2.546875q0.5625 -1.140625 1.5625 -1.765625q1.015625 -0.640625 2.28125 -0.640625q1.96875 0 3.1875 1.375q1.234375 1.375 1.234375 3.65625l0 0.234375q0 1.421875 -0.5625 2.5625q-0.546875 1.140625 -1.546875 1.765625q-1.0 0.625 -2.28125 0.625q-1.96875 0 -3.203125 -1.375q-1.21875 -1.390625 -1.21875 -3.671875l0 -0.21875zm1.09375 0.3125q0 1.765625 0.921875 2.90625q0.921875 1.125 2.40625 1.125q1.46875 0 2.375 -1.125q0.921875 -1.140625 0.921875 -3.0l0 -0.21875q0 -1.125 -0.421875 -2.0625q-0.40625 -0.9375 -1.171875 -1.453125q-0.75 -0.515625 -1.734375 -0.515625q-1.453125 0 -2.375 1.140625q-0.921875 1.140625 -0.921875 3.0l0 0.203125zm14.214172 3.125l0.078125 0.28125l0.078125 -0.28125l4.171875 -11.625l1.234375 0l-4.9375 13.265625l-1.078125 0l-4.9375 -13.265625l1.21875 0l4.171875 11.625z" fill-rule="nonzero"/><path fill="#999999" d="m636.0036 527.4066l-0.734375 0l0 -7.96875l-2.40625 0.890625l0 -0.671875l3.015625 -1.125l0.125 0l0 8.875z" fill-rule="nonzero"/><path fill="#999999" d="m645.62036 510.54724l0.046875 1.609375q0.546875 -0.890625 1.359375 -1.328125q0.828125 -0.453125 1.828125 -0.453125q2.328125 0 2.953125 1.90625q0.53125 -0.921875 1.40625 -1.40625q0.890625 -0.5 1.953125 -0.5q3.171875 0 3.234375 3.453125l0 6.578125l-1.09375 0l0 -6.5q0 -1.3125 -0.5625 -1.953125q-0.5625 -0.640625 -1.828125 -0.640625q-1.171875 0.015625 -1.984375 0.765625q-0.8125 0.734375 -0.90625 1.8125l0 6.515625l-1.09375 0l0 -6.578125q0 -1.265625 -0.59375 -1.890625q-0.578125 -0.625 -1.8125 -0.625q-1.015625 0 -1.765625 0.59375q-0.734375 0.578125 -1.09375 1.734375l0 6.765625l-1.09375 0l0 -9.859375l1.046875 0zm14.940002 4.78125q0 -1.421875 0.546875 -2.546875q0.5625 -1.140625 1.5625 -1.765625q1.015625 -0.640625 2.28125 -0.640625q1.96875 0 3.1875 1.375q1.234375 1.375 1.234375 3.65625l0 0.234375q0 1.421875 -0.5625 2.5625q-0.546875 1.140625 -1.546875 1.765625q-1.0 0.625 -2.28125 0.625q-1.96875 0 -3.203125 -1.375q-1.21875 -1.390625 -1.21875 -3.671875l0 -0.21875zm1.09375 0.3125q0 1.765625 0.921875 2.90625q0.921875 1.125 2.40625 1.125q1.46875 0 2.375 -1.125q0.921875 -1.140625 0.921875 -3.0l0 -0.21875q0 -1.125 -0.421875 -2.0625q-0.40625 -0.9375 -1.171875 -1.453125q-0.75 -0.515625 -1.734375 -0.515625q-1.453125 0 -2.375 1.140625q-0.921875 1.140625 -0.921875 3.0l0 0.203125zm9.526733 -0.25q0 -2.296875 1.015625 -3.65625q1.03125 -1.359375 2.796875 -1.359375q1.984375 0 3.03125 1.5625l0 -5.53125l1.09375 0l0 14.0l-1.03125 0l-0.03125 -1.3125q-1.046875 1.5 -3.09375 1.5q-1.703125 0 -2.75 -1.375q-1.03125 -1.375 -1.03125 -3.703125l0 -0.125zm1.109375 0.1875q0 1.890625 0.75 2.984375q0.75 1.078125 2.125 1.078125q2.015625 0 2.859375 -1.78125l0 -4.625q-0.84375 -1.921875 -2.84375 -1.921875q-1.375 0 -2.140625 1.078125q-0.75 1.078125 -0.75 3.1875zm13.507202 5.015625q-1.25 0 -2.265625 -0.625q-1.015625 -0.625 -1.59375 -1.71875q-0.5625 -1.109375 -0.5625 -2.484375l0 -0.390625q0 -1.421875 0.546875 -2.5625q0.5625 -1.140625 1.546875 -1.78125q0.984375 -0.65625 2.125 -0.65625q1.796875 0 2.84375 1.21875q1.0625 1.21875 1.0625 3.34375l0 0.609375l-7.03125 0l0 0.21875q0 1.671875 0.953125 2.796875q0.96875 1.109375 2.421875 1.109375q0.875 0 1.546875 -0.3125q0.671875 -0.328125 1.21875 -1.03125l0.6875 0.515625q-1.203125 1.75 -3.5 1.75zm-0.203125 -9.296875q-1.21875 0 -2.0625 0.90625q-0.84375 0.890625 -1.03125 2.421875l5.921875 0l0 -0.125q-0.046875 -1.421875 -0.8125 -2.3125q-0.765625 -0.890625 -2.015625 -0.890625zm14.169128 9.109375l-8.3125 0l0 -0.84375l4.546875 -5.15625q1.125 -1.296875 1.5625 -2.140625q0.4375 -0.84375 0.4375 -1.65625q0 -1.25 -0.734375 -1.984375q-0.734375 -0.734375 -2.03125 -0.734375q-1.34375 0 -2.171875 0.859375q-0.8125 0.859375 -0.8125 2.21875l-1.09375 0q0 -1.125 0.5 -2.03125q0.515625 -0.921875 1.4375 -1.453125q0.9375 -0.53125 2.140625 -0.53125q1.8125 0 2.84375 0.96875q1.03125 0.953125 1.03125 2.59375q0 0.9375 -0.578125 2.046875q-0.578125 1.09375 -2.046875 2.75l-3.6875 4.171875l6.96875 0l0 0.921875z" fill-rule="nonzero"/><path fill="#000000" fill-opacity="0.0" d="m99.83485 411.3491l136.12598 0l0 93.25983l-136.12598 0z" fill-rule="evenodd"/><path fill="#fae1e1" d="m117.83485 431.9097l-6.203125 0l0 5.40625l7.125 0l0 0.953125l-8.25 0l0 -13.265625l8.21875 0l0 0.953125l-7.09375 0l0 5.0l6.203125 0l0 0.953125zm6.128189 0.5l2.65625 -4.0l1.296875 0l-3.34375 4.84375l3.5000076 5.015625l-1.2968826 0l-2.796875 -4.171875l-2.8125 4.171875l-1.28125 0l3.484375 -5.015625l-3.34375 -4.84375l1.28125 0l2.65625 4.0zm7.6668167 -6.515625l0 2.515625l2.046875 0l0 0.890625l-2.046875 0l0 6.578125q0 0.8125 0.296875 1.21875q0.296875 0.390625 1.0 0.390625q0.265625 0 0.875 -0.078125l0.046875 0.890625q-0.421875 0.15625 -1.171875 0.15625q-1.109375 0 -1.625 -0.65625q-0.515625 -0.65625 -0.515625 -1.921875l0 -6.578125l-1.8125 0l0 -0.890625l1.8125 0l0 -2.515625l1.09375 0zm8.853424 3.453125q-0.34375 -0.0625 -0.734375 -0.0625q-1.015625 0 -1.71875 0.5625q-0.703125 0.5625 -1.015625 1.65625l0 6.765625l-1.078125 0l0 -9.859375l1.0625 0l0.015625 1.5625q0.875 -1.734375 2.78125 -1.734375q0.453125 0 0.71875 0.109375l-0.03125 1.0zm7.58374 8.921875q-0.15625 -0.46875 -0.203125 -1.375q-0.578125 0.75 -1.46875 1.15625q-0.890625 0.40625 -1.875 0.40625q-1.421875 0 -2.3125 -0.796875q-0.875 -0.796875 -0.875 -2.0q0 -1.4375 1.203125 -2.28125q1.203125 -0.84375 3.34375 -0.84375l1.96875 0l0 -1.109375q0 -1.0625 -0.65625 -1.671875q-0.640625 -0.609375 -1.890625 -0.609375q-1.140625 0 -1.890625 0.59375q-0.75 0.578125 -0.75 1.40625l-1.09375 -0.015625q0 -1.171875 1.09375 -2.03125q1.09375 -0.859375 2.6875 -0.859375q1.65625 0 2.609375 0.828125q0.953125 0.8125 0.984375 2.28125l0 4.671875q0 1.4375 0.296875 2.140625l0 0.109375l-1.171875 0zm-3.421875 -0.78125q1.09375 0 1.953125 -0.53125q0.859375 -0.53125 1.25 -1.40625l0 -2.171875l-1.953125 0q-1.625 0.015625 -2.546875 0.59375q-0.921875 0.578125 -0.921875 1.59375q0 0.828125 0.609375 1.375q0.625 0.546875 1.609375 0.546875zm15.118118 -4.046875q0 2.3125 -1.015625 3.671875q-1.015625 1.34375 -2.734375 1.34375q-2.015625 0 -3.09375 -1.421875l0 5.03125l-1.09375 0l0 -13.65625l1.015625 0l0.0625 1.390625q1.0625 -1.5625 3.078125 -1.5625q1.765625 0 2.765625 1.34375q1.015625 1.328125 1.015625 3.703125l0 0.15625zm-1.09375 -0.1875q0 -1.890625 -0.78125 -2.984375q-0.765625 -1.09375 -2.15625 -1.09375q-1.0 0 -1.71875 0.484375q-0.71875 0.484375 -1.09375 1.40625l0 4.71875q0.390625 0.859375 1.109375 1.3125q0.734375 0.4375 1.734375 0.4375q1.375 0 2.140625 -1.09375q0.765625 -1.109375 0.765625 -3.1875zm2.9017792 -0.0625q0 -1.421875 0.546875 -2.546875q0.5625 -1.140625 1.5625 -1.765625q1.015625 -0.640625 2.28125 -0.640625q1.96875 0 3.1875 1.375q1.234375 1.375 1.234375 3.65625l0 0.234375q0 1.421875 -0.5625 2.5625q-0.546875 1.140625 -1.546875 1.765625q-1.0 0.625 -2.28125 0.625q-1.96875 0 -3.203125 -1.375q-1.21875 -1.390625 -1.21875 -3.671875l0 -0.21875zm1.09375 0.3125q0 1.765625 0.921875 2.90625q0.921875 1.125 2.40625 1.125q1.46875 0 2.375 -1.125q0.921875 -1.140625 0.921875 -3.0l0 -0.21875q0 -1.125 -0.421875 -2.0625q-0.40625 -0.9375 -1.171875 -1.453125q-0.75 -0.515625 -1.734375 -0.515625q-1.453125 0 -2.375 1.140625q-0.921875 1.140625 -0.921875 3.0l0 0.203125zm11.182968 4.765625l-1.09375 0l0 -14.0l1.09375 0l0 14.0zm9.181259 0q-0.15625 -0.46875 -0.203125 -1.375q-0.578125 0.75 -1.46875 1.15625q-0.890625 0.40625 -1.875 0.40625q-1.421875 0 -2.3125 -0.796875q-0.875 -0.796875 -0.875 -2.0q0 -1.4375 1.203125 -2.28125q1.203125 -0.84375 3.34375 -0.84375l1.96875 0l0 -1.109375q0 -1.0625 -0.65625 -1.671875q-0.640625 -0.609375 -1.890625 -0.609375q-1.140625 0 -1.890625 0.59375q-0.75 0.578125 -0.75 1.40625l-1.09375 -0.015625q0 -1.171875 1.09375 -2.03125q1.09375 -0.859375 2.6875 -0.859375q1.65625 0 2.609375 0.828125q0.953125 0.8125 0.984375 2.28125l0 4.671875q0 1.4375 0.296875 2.140625l0 0.109375l-1.171875 0zm-3.421875 -0.78125q1.09375 0 1.953125 -0.53125q0.859375 -0.53125 1.25 -1.40625l0 -2.171875l-1.953125 0q-1.625 0.015625 -2.546875 0.59375q-0.921875 0.578125 -0.921875 1.59375q0 0.828125 0.609375 1.375q0.625 0.546875 1.609375 0.546875zm8.883743 -11.59375l0 2.515625l2.046875 0l0 0.890625l-2.046875 0l0 6.578125q0 0.8125 0.296875 1.21875q0.296875 0.390625 1.0 0.390625q0.265625 0 0.875 -0.078125l0.046875 0.890625q-0.421875 0.15625 -1.171875 0.15625q-1.109375 0 -1.625 -0.65625q-0.515625 -0.65625 -0.515625 -1.921875l0 -6.578125l-1.8125 0l0 -0.890625l1.8125 0l0 -2.515625l1.09375 0zm5.525299 12.375l-1.09375 0l0 -9.859375l1.09375 0l0 9.859375zm-1.28125 -12.703125q0 -0.3125 0.203125 -0.53125q0.203125 -0.21875 0.546875 -0.21875q0.34375 0 0.546875 0.21875q0.203125 0.21875 0.203125 0.53125q0 0.3125 -0.203125 0.515625q-0.203125 0.203125 -0.546875 0.203125q-0.34375 0 -0.546875 -0.203125q-0.203125 -0.203125 -0.203125 -0.515625zm3.6343842 7.625q0 -1.421875 0.546875 -2.546875q0.5625 -1.140625 1.5625 -1.765625q1.015625 -0.640625 2.28125 -0.640625q1.96875 0 3.1875 1.375q1.234375 1.375 1.234375 3.65625l0 0.234375q0 1.421875 -0.5625 2.5625q-0.546875 1.140625 -1.546875 1.765625q-1.0 0.625 -2.28125 0.625q-1.96875 0 -3.203125 -1.375q-1.21875 -1.390625 -1.21875 -3.671875l0 -0.21875zm1.09375 0.3125q0 1.765625 0.921875 2.90625q0.921875 1.125 2.40625 1.125q1.46875 0 2.375 -1.125q0.921875 -1.140625 0.921875 -3.0l0 -0.21875q0 -1.125 -0.421875 -2.0625q-0.40625 -0.9375 -1.171875 -1.453125q-0.75 -0.515625 -1.734375 -0.515625q-1.453125 0 -2.375 1.140625q-0.921875 1.140625 -0.921875 3.0l0 0.203125zm10.995468 -5.09375l0.046875 1.6875q0.546875 -0.90625 1.375 -1.375q0.828125 -0.484375 1.84375 -0.484375q1.578125 0 2.34375 0.890625q0.78125 0.890625 0.796875 2.671875l0 6.46875l-1.09375 0l0 -6.484375q0 -1.3125 -0.5625 -1.953125q-0.546875 -0.65625 -1.75 -0.65625q-1.015625 0 -1.796875 0.640625q-0.78125 0.625 -1.15625 1.703125l0 6.75l-1.078125 0l0 -9.859375l1.03125 0z" fill-rule="nonzero"/><path fill="#000000" fill-opacity="0.0" d="m100.07612 226.4042l131.65353 0l0 93.25983l-131.65353 0z" fill-rule="evenodd"/><path fill="#ea9999" d="m112.12299 253.3242l-1.125 0l0 -13.265625l1.125 0l0 13.265625zm4.370926 -9.859375l0.046875 1.6875q0.546875 -0.90625 1.375 -1.375q0.828125 -0.484375 1.84375 -0.484375q1.578125 0 2.34375 0.890625q0.78125 0.890625 0.796875 2.671875l0 6.46875l-1.09375 0l0 -6.484375q0 -1.3125 -0.5625 -1.953125q-0.546875 -0.65625 -1.75 -0.65625q-1.015625 0 -1.796875 0.640625q-0.78125 0.625 -1.15625 1.703125l0 6.75l-1.078125 0l0 -9.859375l1.03125 0zm10.904434 -2.515625l0 2.515625l2.0468674 0l0 0.890625l-2.0468674 0l0 6.578125q0 0.8125 0.296875 1.21875q0.296875 0.390625 0.9999924 0.390625q0.265625 0 0.875 -0.078125l0.046875 0.890625q-0.421875 0.15625 -1.171875 0.15625q-1.1093674 0 -1.6249924 -0.65625q-0.515625 -0.65625 -0.515625 -1.921875l0 -6.578125l-1.8125 0l0 -0.890625l1.8125 0l0 -2.515625l1.09375 0zm8.119041 12.5625q-1.25 0 -2.265625 -0.625q-1.015625 -0.625 -1.59375 -1.71875q-0.5625 -1.109375 -0.5625 -2.484375l0 -0.390625q0 -1.421875 0.546875 -2.5625q0.5625 -1.140625 1.546875 -1.78125q0.984375 -0.65625 2.125 -0.65625q1.796875 0 2.84375 1.21875q1.0625 1.21875 1.0625 3.34375l0 0.609375l-7.03125 0l0 0.21875q0 1.671875 0.953125 2.796875q0.96875 1.109375 2.421875 1.109375q0.875 0 1.546875 -0.3125q0.671875 -0.328125 1.21875 -1.03125l0.6875 0.515625q-1.203125 1.75 -3.5 1.75zm-0.203125 -9.296875q-1.21875 0 -2.0625 0.90625q-0.84375 0.890625 -1.03125 2.421875l5.921875 0l0 -0.125q-0.046875 -1.421875 -0.8125 -2.3125q-0.765625 -0.890625 -2.015625 -0.890625zm10.575348 0.1875q-0.34375 -0.0625 -0.734375 -0.0625q-1.015625 0 -1.71875 0.5625q-0.703125 0.5625 -1.015625 1.65625l0 6.765625l-1.078125 0l0 -9.859375l1.0625 0l0.015625 1.5625q0.875 -1.734375 2.78125 -1.734375q0.453125 0 0.71875 0.109375l-0.03125 1.0zm9.6514435 4.09375q0 2.3125 -1.015625 3.671875q-1.015625 1.34375 -2.734375 1.34375q-2.015625 0 -3.09375 -1.421875l0 5.0312347l-1.09375 0l0 -13.656235l1.015625 0l0.0625 1.390625q1.0625 -1.5625 3.078125 -1.5625q1.765625 0 2.765625 1.34375q1.015625 1.328125 1.015625 3.703125l0 0.15625zm-1.09375 -0.1875q0 -1.890625 -0.78125 -2.984375q-0.765625 -1.09375 -2.15625 -1.09375q-1.0 0 -1.71875 0.484375q-0.71875 0.484375 -1.09375 1.40625l0 4.71875q0.390625 0.859375 1.109375 1.3125q0.734375 0.4375 1.734375 0.4375q1.375 0 2.140625 -1.09375q0.765625 -1.109375 0.765625 -3.1875zm2.9017792 -0.0625q0 -1.421875 0.546875 -2.546875q0.5625 -1.140625 1.5625 -1.765625q1.015625 -0.640625 2.28125 -0.640625q1.96875 0 3.1875 1.375q1.234375 1.375 1.234375 3.65625l0 0.234375q0 1.421875 -0.5625 2.5625q-0.546875 1.140625 -1.546875 1.765625q-1.0 0.625 -2.28125 0.625q-1.96875 0 -3.203125 -1.375q-1.21875 -1.390625 -1.21875 -3.671875l0 -0.21875zm1.09375 0.3125q0 1.765625 0.921875 2.90625q0.921875 1.125 2.40625 1.125q1.46875 0 2.375 -1.125q0.921875 -1.140625 0.921875 -3.0l0 -0.21875q0 -1.125 -0.421875 -2.0625q-0.40625 -0.9375 -1.171875 -1.453125q-0.75 -0.515625 -1.734375 -0.515625q-1.453125 0 -2.375 1.140625q-0.921875 1.140625 -0.921875 3.0l0 0.203125zm11.182968 4.765625l-1.09375 0l0 -14.0l1.09375 0l0 14.0zm9.181259 0q-0.15625 -0.46875 -0.203125 -1.375q-0.578125 0.75 -1.46875 1.15625q-0.890625 0.40625 -1.875 0.40625q-1.421875 0 -2.3125 -0.796875q-0.875 -0.796875 -0.875 -2.0q0 -1.4375 1.203125 -2.28125q1.203125 -0.84375 3.34375 -0.84375l1.96875 0l0 -1.109375q0 -1.0625 -0.65625 -1.671875q-0.640625 -0.609375 -1.890625 -0.609375q-1.140625 0 -1.890625 0.59375q-0.75 0.578125 -0.75 1.40625l-1.09375 -0.015625q0 -1.171875 1.09375 -2.03125q1.09375 -0.859375 2.6875 -0.859375q1.65625 0 2.609375 0.828125q0.953125 0.8125 0.984375 2.28125l0 4.671875q0 1.4375 0.296875 2.140625l0 0.109375l-1.171875 0zm-3.421875 -0.78125q1.09375 0 1.953125 -0.53125q0.859375 -0.53125 1.25 -1.40625l0 -2.171875l-1.953125 0q-1.625 0.015625 -2.546875 0.59375q-0.921875 0.578125 -0.921875 1.59375q0 0.828125 0.609375 1.375q0.625 0.546875 1.609375 0.546875zm8.883743 -11.59375l0 2.515625l2.046875 0l0 0.890625l-2.046875 0l0 6.578125q0 0.8125 0.296875 1.21875q0.296875 0.390625 1.0 0.390625q0.265625 0 0.875 -0.078125l0.046875 0.890625q-0.421875 0.15625 -1.171875 0.15625q-1.109375 0 -1.625 -0.65625q-0.515625 -0.65625 -0.515625 -1.921875l0 -6.578125l-1.8125 0l0 -0.890625l1.8125 0l0 -2.515625l1.09375 0zm5.525299 12.375l-1.09375 0l0 -9.859375l1.09375 0l0 9.859375zm-1.28125 -12.703125q0 -0.3125 0.203125 -0.53125q0.203125 -0.21875 0.546875 -0.21875q0.34375 0 0.546875 0.21875q0.203125 0.21875 0.203125 0.53125q0 0.3125 -0.203125 0.515625q-0.203125 0.203125 -0.546875 0.203125q-0.34375 0 -0.546875 -0.203125q-0.203125 -0.203125 -0.203125 -0.515625zm3.6343842 7.625q0 -1.421875 0.546875 -2.546875q0.5625 -1.140625 1.5625 -1.765625q1.015625 -0.640625 2.28125 -0.640625q1.96875 0 3.1875 1.375q1.234375 1.375 1.234375 3.65625l0 0.234375q0 1.421875 -0.5625 2.5625q-0.546875 1.140625 -1.546875 1.765625q-1.0 0.625 -2.28125 0.625q-1.96875 0 -3.203125 -1.375q-1.21875 -1.390625 -1.21875 -3.671875l0 -0.21875zm1.09375 0.3125q0 1.765625 0.921875 2.90625q0.921875 1.125 2.40625 1.125q1.46875 0 2.375 -1.125q0.921875 -1.140625 0.921875 -3.0l0 -0.21875q0 -1.125 -0.421875 -2.0625q-0.40625 -0.9375 -1.171875 -1.453125q-0.75 -0.515625 -1.734375 -0.515625q-1.453125 0 -2.375 1.140625q-0.921875 1.140625 -0.921875 3.0l0 0.203125zm10.995468 -5.09375l0.046875 1.6875q0.546875 -0.90625 1.375 -1.375q0.828125 -0.484375 1.84375 -0.484375q1.578125 0 2.34375 0.890625q0.78125 0.890625 0.796875 2.671875l0 6.46875l-1.09375 0l0 -6.484375q0 -1.3125 -0.5625 -1.953125q-0.546875 -0.65625 -1.75 -0.65625q-1.015625 0 -1.796875 0.640625q-0.78125 0.625 -1.15625 1.703125l0 6.75l-1.078125 0l0 -9.859375l1.03125 0z" fill-rule="nonzero"/><path fill="#000000" fill-opacity="0.0" d="m100.034485 41.820152l206.4252 0l0 93.259834l-206.4252 0z" fill-rule="evenodd"/><path fill="#fae1e1" d="m118.034485 62.380775l-6.203125 0l0 5.40625l7.125 0l0 0.953125l-8.25 0l0 -13.265625l8.21875 0l0 0.953125l-7.09375 0l0 5.0l6.203125 0l0 0.953125zm6.128189 0.5l2.65625 -4.0l1.296875 0l-3.34375 4.84375l3.5 5.015625l-1.296875 0l-2.796875 -4.171875l-2.8125 4.171875l-1.28125 0l3.484375 -5.015625l-3.34375 -4.84375l1.28125 0l2.65625 4.0zm7.666809 -6.515625l0 2.515625l2.046875 0l0 0.890625l-2.046875 0l0 6.578125q0 0.8125 0.296875 1.21875q0.296875 0.390625 1.0 0.390625q0.265625 0 0.875 -0.078125l0.046875 0.890625q-0.421875 0.15625 -1.171875 0.15625q-1.109375 0 -1.625 -0.65625q-0.515625 -0.65625 -0.515625 -1.921875l0 -6.578125l-1.8125 0l0 -0.890625l1.8125 0l0 -2.515625l1.09375 0zm8.853424 3.453125q-0.34375 -0.0625 -0.734375 -0.0625q-1.015625 0 -1.71875 0.5625q-0.703125 0.5625 -1.015625 1.65625l0 6.765625l-1.078125 0l0 -9.859375l1.0625 0l0.015625 1.5625q0.875 -1.734375 2.78125 -1.734375q0.453125 0 0.71875 0.109375l-0.03125 1.0zm7.58374 8.921875q-0.15625 -0.46875 -0.203125 -1.375q-0.578125 0.75 -1.46875 1.15625q-0.890625 0.40625 -1.875 0.40625q-1.421875 0 -2.3125 -0.796875q-0.875 -0.796875 -0.875 -2.0q0 -1.4375 1.203125 -2.28125q1.203125 -0.84375 3.34375 -0.84375l1.96875 0l0 -1.109375q0 -1.0625 -0.65625 -1.671875q-0.640625 -0.609375 -1.890625 -0.609375q-1.140625 0 -1.890625 0.59375q-0.75 0.578125 -0.75 1.40625l-1.09375 -0.015625q0 -1.171875 1.09375 -2.03125q1.09375 -0.859375 2.6875 -0.859375q1.65625 0 2.609375 0.828125q0.953125 0.8125 0.984375 2.28125l0 4.671875q0 1.4375 0.296875 2.140625l0 0.109375l-1.171875 0zm-3.421875 -0.78125q1.09375 0 1.953125 -0.53125q0.859375 -0.53125 1.25 -1.40625l0 -2.171875l-1.953125 0q-1.625 0.015625 -2.546875 0.59375q-0.921875 0.578125 -0.921875 1.59375q0 0.828125 0.609375 1.375q0.625 0.546875 1.609375 0.546875zm15.118118 -4.046875q0 2.3125 -1.015625 3.671875q-1.015625 1.34375 -2.734375 1.34375q-2.015625 0 -3.09375 -1.421875l0 5.03125l-1.09375 0l0 -13.65625l1.015625 0l0.0625 1.390625q1.0625 -1.5625 3.078125 -1.5625q1.765625 0 2.765625 1.34375q1.015625 1.328125 1.015625 3.703125l0 0.15625zm-1.09375 -0.1875q0 -1.890625 -0.78125 -2.984375q-0.765625 -1.09375 -2.15625 -1.09375q-1.0 0 -1.71875 0.484375q-0.71875 0.484375 -1.09375 1.40625l0 4.71875q0.390625 0.859375 1.109375 1.3125q0.734375 0.4375 1.734375 0.4375q1.375 0 2.140625 -1.09375q0.765625 -1.109375 0.765625 -3.1875zm2.9017792 -0.0625q0 -1.421875 0.546875 -2.546875q0.5625 -1.140625 1.5625 -1.765625q1.015625 -0.640625 2.28125 -0.640625q1.96875 0 3.1875 1.375q1.234375 1.375 1.234375 3.65625l0 0.234375q0 1.421875 -0.5625 2.5625q-0.546875 1.140625 -1.546875 1.765625q-1.0 0.625 -2.28125 0.625q-1.96875 0 -3.203125 -1.375q-1.21875 -1.390625 -1.21875 -3.671875l0 -0.21875zm1.09375 0.3125q0 1.765625 0.921875 2.90625q0.921875 1.125 2.40625 1.125q1.46875 0 2.375 -1.125q0.921875 -1.140625 0.921875 -3.0l0 -0.21875q0 -1.125 -0.421875 -2.0625q-0.40625 -0.9375 -1.171875 -1.453125q-0.75 -0.515625 -1.734375 -0.515625q-1.453125 0 -2.375 1.140625q-0.921875 1.140625 -0.921875 3.0l0 0.203125zm11.182968 4.765625l-1.09375 0l0 -14.0l1.09375 0l0 14.0zm9.181259 0q-0.15625 -0.46875 -0.203125 -1.375q-0.578125 0.75 -1.46875 1.15625q-0.890625 0.40625 -1.875 0.40625q-1.421875 0 -2.3125 -0.796875q-0.875 -0.796875 -0.875 -2.0q0 -1.4375 1.203125 -2.28125q1.203125 -0.84375 3.34375 -0.84375l1.96875 0l0 -1.109375q0 -1.0625 -0.65625 -1.671875q-0.640625 -0.609375 -1.890625 -0.609375q-1.140625 0 -1.890625 0.59375q-0.75 0.578125 -0.75 1.40625l-1.09375 -0.015625q0 -1.171875 1.09375 -2.03125q1.09375 -0.859375 2.6875 -0.859375q1.65625 0 2.609375 0.828125q0.953125 0.8125 0.984375 2.28125l0 4.671875q0 1.4375 0.296875 2.140625l0 0.109375l-1.171875 0zm-3.421875 -0.78125q1.09375 0 1.953125 -0.53125q0.859375 -0.53125 1.25 -1.40625l0 -2.171875l-1.953125 0q-1.625 0.015625 -2.546875 0.59375q-0.921875 0.578125 -0.921875 1.59375q0 0.828125 0.609375 1.375q0.625 0.546875 1.609375 0.546875zm8.883743 -11.59375l0 2.515625l2.046875 0l0 0.890625l-2.046875 0l0 6.578125q0 0.8125 0.296875 1.21875q0.296875 0.390625 1.0 0.390625q0.265625 0 0.875 -0.078125l0.046875 0.890625q-0.421875 0.15625 -1.171875 0.15625q-1.109375 0 -1.625 -0.65625q-0.515625 -0.65625 -0.515625 -1.921875l0 -6.578125l-1.8125 0l0 -0.890625l1.8125 0l0 -2.515625l1.09375 0zm5.525299 12.375l-1.09375 0l0 -9.859375l1.09375 0l0 9.859375zm-1.28125 -12.703125q0 -0.3125 0.203125 -0.53125q0.203125 -0.21875 0.546875 -0.21875q0.34375 0 0.546875 0.21875q0.203125 0.21875 0.203125 0.53125q0 0.3125 -0.203125 0.515625q-0.203125 0.203125 -0.546875 0.203125q-0.34375 0 -0.546875 -0.203125q-0.203125 -0.203125 -0.203125 -0.515625zm3.6343842 7.625q0 -1.421875 0.546875 -2.546875q0.5625 -1.140625 1.5625 -1.765625q1.015625 -0.640625 2.28125 -0.640625q1.96875 0 3.1875 1.375q1.234375 1.375 1.234375 3.65625l0 0.234375q0 1.421875 -0.5625 2.5625q-0.546875 1.140625 -1.546875 1.765625q-1.0 0.625 -2.28125 0.625q-1.96875 0 -3.203125 -1.375q-1.21875 -1.390625 -1.21875 -3.671875l0 -0.21875zm1.09375 0.3125q0 1.765625 0.921875 2.90625q0.921875 1.125 2.40625 1.125q1.46875 0 2.375 -1.125q0.921875 -1.140625 0.921875 -3.0l0 -0.21875q0 -1.125 -0.421875 -2.0625q-0.40625 -0.9375 -1.171875 -1.453125q-0.75 -0.515625 -1.734375 -0.515625q-1.453125 0 -2.375 1.140625q-0.921875 1.140625 -0.921875 3.0l0 0.203125zm10.995468 -5.09375l0.046875 1.6875q0.546875 -0.90625 1.375 -1.375q0.828125 -0.484375 1.84375 -0.484375q1.578125 0 2.34375 0.890625q0.78125 0.890625 0.796875 2.671875l0 6.46875l-1.09375 0l0 -6.484375q0 -1.3125 -0.5625 -1.953125q-0.546875 -0.65625 -1.75 -0.65625q-1.015625 0 -1.796875 0.640625q-0.78125 0.625 -1.15625 1.703125l0 6.75l-1.078125 0l0 -9.859375l1.03125 0z" fill-rule="nonzero"/><path fill="#ff9900" d="m656.2587 385.55457l0 0c0 -4.644409 3.7650757 -8.409454 8.409485 -8.409454l0 0c2.2302856 0 4.3692627 0.88601685 5.94635 2.4630737c1.5770874 1.5770874 2.4630737 3.7160645 2.4630737 5.9463806l0 0c0 4.644409 -3.7650146 8.409454 -8.409424 8.409454l0 0c-4.644409 0 -8.409485 -3.7650452 -8.409485 -8.409454z" fill-rule="evenodd"/><path fill="#000000" fill-opacity="0.0" d="m664.87164 388.7674l0 -268.37793" fill-rule="evenodd"/><path stroke="#ff9900" stroke-width="3.0" stroke-linejoin="round" stroke-linecap="butt" d="m664.87164 388.7674l0 -250.37794" fill-rule="evenodd"/><path fill="#ff9900" stroke="#ff9900" stroke-width="3.0" stroke-linecap="butt" d="m669.82684 138.38945l-4.9552 -13.614288l-4.9552 13.614288z" fill-rule="evenodd"/><path fill="#000000" fill-opacity="0.0" d="m673.0788 220.76903l235.02362 0l0 55.716537l-235.02362 0z" fill-rule="evenodd"/><path fill="#ff9900" d="m691.0632 241.50153l-6.1875 0l0 6.1875l-1.125 0l0 -13.265625l8.21875 0l0 0.953125l-7.09375 0l0 5.15625l6.1875 0l0 0.96875zm4.1503906 6.1875l-1.09375 0l0 -9.859375l1.09375 0l0 9.859375zm-1.28125 -12.703125q0 -0.3125 0.203125 -0.53125q0.203125 -0.21875 0.546875 -0.21875q0.34375 0 0.546875 0.21875q0.203125 0.21875 0.203125 0.53125q0 0.3125 -0.203125 0.515625q-0.203125 0.203125 -0.546875 0.203125q-0.34375 0 -0.546875 -0.203125q-0.203125 -0.203125 -0.203125 -0.515625zm7.3375244 6.84375l2.65625 -4.0l1.296875 0l-3.34375 4.84375l3.5 5.015625l-1.296875 0l-2.796875 -4.171875l-2.8125 4.171875l-1.28125 0l3.484375 -5.015625l-3.34375 -4.84375l1.28125 0l2.65625 4.0zm9.609497 6.046875q-1.25 0 -2.265625 -0.625q-1.015625 -0.625 -1.59375 -1.71875q-0.5625 -1.109375 -0.5625 -2.484375l0 -0.390625q0 -1.421875 0.546875 -2.5625q0.5625 -1.140625 1.546875 -1.78125q0.984375 -0.65625 2.125 -0.65625q1.796875 0 2.84375 1.21875q1.0625 1.21875 1.0625 3.34375l0 0.609375l-7.03125 0l0 0.21875q0 1.671875 0.953125 2.796875q0.96875 1.109375 2.421875 1.109375q0.875 0 1.546875 -0.3125q0.671875 -0.328125 1.21875 -1.03125l0.6875 0.515625q-1.203125 1.75 -3.5 1.75zm-0.203125 -9.296875q-1.21875 0 -2.0625 0.90625q-0.84375 0.890625 -1.03125 2.421875l5.921875 0l0 -0.125q-0.046875 -1.421875 -0.8125 -2.3125q-0.765625 -0.890625 -2.015625 -0.890625zm5.5910034 4.09375q0 -2.296875 1.015625 -3.65625q1.03125 -1.359375 2.796875 -1.359375q1.984375 0 3.03125 1.5625l0 -5.53125l1.09375 0l0 14.0l-1.03125 0l-0.03125 -1.3125q-1.046875 1.5 -3.09375 1.5q-1.703125 0 -2.75 -1.375q-1.03125 -1.375 -1.03125 -3.703125l0 -0.125zm1.109375 0.1875q0 1.890625 0.75 2.984375q0.75 1.078125 2.125 1.078125q2.015625 0 2.859375 -1.78125l0 -4.625q-0.84375 -1.921875 -2.84375 -1.921875q-1.375 0 -2.140625 1.078125q-0.75 1.078125 -0.75 3.1875zm14.887512 4.828125l0 -8.96875l-1.640625 0l0 -0.890625l1.640625 0l0 -1.015625q0 -1.5625 0.859375 -2.4375q0.859375 -0.875 2.40625 -0.875q1.21875 0 2.515625 0.546875l-0.1875 0.9375q-1.109375 -0.484375 -2.25 -0.484375q-2.25 0 -2.25 2.34375l0 0.984375l2.296875 0l0 0.890625l-2.296875 0l0 8.96875l-1.09375 0zm6.375 0l-1.09375 0l0 -9.859375l1.09375 0l0 9.859375zm4.020447 -9.859375l0.046875 1.6875q0.546875 -0.90625 1.375 -1.375q0.828125 -0.484375 1.84375 -0.484375q1.578125 0 2.34375 0.890625q0.78125 0.890625 0.796875 2.671875l0 6.46875l-1.09375 0l0 -6.484375q0 -1.3125 -0.5625 -1.953125q-0.546875 -0.65625 -1.75 -0.65625q-1.015625 0 -1.796875 0.640625q-0.78125 0.625 -1.15625 1.703125l0 6.75l-1.078125 0l0 -9.859375l1.03125 0zm15.435669 9.859375q-0.15625 -0.46875 -0.203125 -1.375q-0.578125 0.75 -1.46875 1.15625q-0.890625 0.40625 -1.875 0.40625q-1.421875 0 -2.3125 -0.796875q-0.875 -0.796875 -0.875 -2.0q0 -1.4375 1.203125 -2.28125q1.203125 -0.84375 3.34375 -0.84375l1.96875 0l0 -1.109375q0 -1.0625 -0.65625 -1.671875q-0.640625 -0.609375 -1.890625 -0.609375q-1.140625 0 -1.890625 0.59375q-0.75 0.578125 -0.75 1.40625l-1.09375 -0.015625q0 -1.171875 1.09375 -2.03125q1.09375 -0.859375 2.6875 -0.859375q1.65625 0 2.609375 0.828125q0.953125 0.8125 0.984375 2.28125l0 4.671875q0 1.4375 0.296875 2.140625l0 0.109375l-1.171875 0zm-3.421875 -0.78125q1.09375 0 1.953125 -0.53125q0.859375 -0.53125 1.25 -1.40625l0 -2.171875l-1.953125 0q-1.625 0.015625 -2.546875 0.59375q-0.921875 0.578125 -0.921875 1.59375q0 0.828125 0.609375 1.375q0.625 0.546875 1.609375 0.546875zm8.414978 0.78125l-1.09375 0l0 -14.0l1.09375 0l0 14.0zm8.717773 0l-1.09375 0l0 -14.0l1.09375 0l0 14.0zm9.181274 0q-0.15625 -0.46875 -0.203125 -1.375q-0.578125 0.75 -1.46875 1.15625q-0.890625 0.40625 -1.875 0.40625q-1.421875 0 -2.3125 -0.796875q-0.875 -0.796875 -0.875 -2.0q0 -1.4375 1.203125 -2.28125q1.203125 -0.84375 3.34375 -0.84375l1.96875 0l0 -1.109375q0 -1.0625 -0.65625 -1.671875q-0.640625 -0.609375 -1.890625 -0.609375q-1.140625 0 -1.890625 0.59375q-0.75 0.578125 -0.75 1.40625l-1.09375 -0.015625q0 -1.171875 1.09375 -2.03125q1.09375 -0.859375 2.6875 -0.859375q1.65625 0 2.609375 0.828125q0.953125 0.8125 0.984375 2.28125l0 4.671875q0 1.4375 0.296875 2.140625l0 0.109375l-1.171875 0zm-3.421875 -0.78125q1.09375 0 1.953125 -0.53125q0.859375 -0.53125 1.25 -1.40625l0 -2.171875l-1.953125 0q-1.625 0.015625 -2.546875 0.59375q-0.921875 0.578125 -0.921875 1.59375q0 0.828125 0.609375 1.375q0.625 0.546875 1.609375 0.546875zm8.883728 -11.59375l0 2.515625l2.046875 0l0 0.890625l-2.046875 0l0 6.578125q0 0.8125 0.296875 1.21875q0.296875 0.390625 1.0 0.390625q0.265625 0 0.875 -0.078125l0.046875 0.890625q-0.421875 0.15625 -1.171875 0.15625q-1.109375 0 -1.625 -0.65625q-0.515625 -0.65625 -0.515625 -1.921875l0 -6.578125l-1.8125 0l0 -0.890625l1.8125 0l0 -2.515625l1.09375 0zm8.11908 12.5625q-1.25 0 -2.265625 -0.625q-1.015625 -0.625 -1.59375 -1.71875q-0.5625 -1.109375 -0.5625 -2.484375l0 -0.390625q0 -1.421875 0.546875 -2.5625q0.5625 -1.140625 1.546875 -1.78125q0.984375 -0.65625 2.125 -0.65625q1.796875 0 2.84375 1.21875q1.0625 1.21875 1.0625 3.34375l0 0.609375l-7.03125 0l0 0.21875q0 1.671875 0.953125 2.796875q0.96875 1.109375 2.421875 1.109375q0.875 0 1.546875 -0.3125q0.671875 -0.328125 1.21875 -1.03125l0.6875 0.515625q-1.203125 1.75 -3.5 1.75zm-0.203125 -9.296875q-1.21875 0 -2.0625 0.90625q-0.84375 0.890625 -1.03125 2.421875l5.921875 0l0 -0.125q-0.046875 -1.421875 -0.8125 -2.3125q-0.765625 -0.890625 -2.015625 -0.890625zm10.575317 0.1875q-0.34375 -0.0625 -0.734375 -0.0625q-1.015625 0 -1.71875 0.5625q-0.703125 0.5625 -1.015625 1.65625l0 6.765625l-1.078125 0l0 -9.859375l1.0625 0l0.015625 1.5625q0.875 -1.734375 2.78125 -1.734375q0.453125 0 0.71875 0.109375l-0.03125 1.0zm7.58374 8.921875q-0.15625 -0.46875 -0.203125 -1.375q-0.578125 0.75 -1.46875 1.15625q-0.890625 0.40625 -1.875 0.40625q-1.421875 0 -2.3125 -0.796875q-0.875 -0.796875 -0.875 -2.0q0 -1.4375 1.203125 -2.28125q1.203125 -0.84375 3.34375 -0.84375l1.96875 0l0 -1.109375q0 -1.0625 -0.65625 -1.671875q-0.640625 -0.609375 -1.890625 -0.609375q-1.140625 0 -1.890625 0.59375q-0.75 0.578125 -0.75 1.40625l-1.09375 -0.015625q0 -1.171875 1.09375 -2.03125q1.09375 -0.859375 2.6875 -0.859375q1.65625 0 2.609375 0.828125q0.953125 0.8125 0.984375 2.28125l0 4.671875q0 1.4375 0.296875 2.140625l0 0.109375l-1.171875 0zm-3.421875 -0.78125q1.09375 0 1.953125 -0.53125q0.859375 -0.53125 1.25 -1.40625l0 -2.171875l-1.953125 0q-1.625 0.015625 -2.546875 0.59375q-0.921875 0.578125 -0.921875 1.59375q0 0.828125 0.609375 1.375q0.625 0.546875 1.609375 0.546875zm8.415039 0.78125l-1.09375 0l0 -14.0l1.09375 0l0 14.0zm15.420898 -4.828125q0 2.3125 -1.015625 3.671875q-1.015625 1.34375 -2.734375 1.34375q-2.015625 0 -3.09375 -1.421875l0 5.03125l-1.09375 0l0 -13.65625l1.015625 0l0.0625 1.390625q1.0625 -1.5625 3.078125 -1.5625q1.765625 0 2.765625 1.34375q1.015625 1.328125 1.015625 3.703125l0 0.15625zm-1.09375 -0.1875q0 -1.890625 -0.78125 -2.984375q-0.765625 -1.09375 -2.15625 -1.09375q-1.0 0 -1.71875 0.484375q-0.71875 0.484375 -1.09375 1.40625l0 4.71875q0.390625 0.859375 1.109375 1.3125q0.734375 0.4375 1.734375 0.4375q1.375 0 2.140625 -1.09375q0.765625 -1.109375 0.765625 -3.1875zm2.9017944 -0.0625q0 -1.421875 0.546875 -2.546875q0.5625 -1.140625 1.5625 -1.765625q1.015625 -0.640625 2.28125 -0.640625q1.96875 0 3.1875 1.375q1.234375 1.375 1.234375 3.65625l0 0.234375q0 1.421875 -0.5625 2.5625q-0.546875 1.140625 -1.546875 1.765625q-1.0 0.625 -2.28125 0.625q-1.96875 0 -3.203125 -1.375q-1.21875 -1.390625 -1.21875 -3.671875l0 -0.21875zm1.09375 0.3125q0 1.765625 0.921875 2.90625q0.921875 1.125 2.40625 1.125q1.46875 0 2.375 -1.125q0.921875 -1.140625 0.921875 -3.0l0 -0.21875q0 -1.125 -0.421875 -2.0625q-0.40625 -0.9375 -1.171875 -1.453125q-0.75 -0.515625 -1.734375 -0.515625q-1.453125 0 -2.375 1.140625q-0.921875 1.140625 -0.921875 3.0l0 0.203125zm15.870422 2.265625q0 -0.8125 -0.65625 -1.296875q-0.65625 -0.5 -1.96875 -0.78125q-1.3125 -0.28125 -2.03125 -0.640625q-0.71875 -0.359375 -1.078125 -0.875q-0.34375 -0.515625 -0.34375 -1.25q0 -1.171875 0.96875 -1.921875q0.984375 -0.765625 2.5 -0.765625q1.65625 0 2.640625 0.8125q1.0 0.8125 1.0 2.125l-1.09375 0q0 -0.875 -0.71875 -1.4375q-0.71875 -0.578125 -1.828125 -0.578125q-1.078125 0 -1.734375 0.484375q-0.640625 0.46875 -0.640625 1.234375q0 0.734375 0.53125 1.140625q0.546875 0.40625 1.984375 0.75q1.4375 0.328125 2.140625 0.71875q0.71875 0.375 1.0625 0.921875q0.359375 0.53125 0.359375 1.296875q0 1.25 -1.015625 2.0q-1.0 0.75 -2.625 0.75q-1.71875 0 -2.796875 -0.828125q-1.0625 -0.84375 -1.0625 -2.125l1.09375 0q0.0625 0.96875 0.796875 1.5q0.75 0.53125 1.96875 0.53125q1.140625 0 1.84375 -0.5q0.703125 -0.5 0.703125 -1.265625zm4.759094 2.5l-1.09375 0l0 -9.859375l1.09375 0l0 9.859375zm-1.28125 -12.703125q0 -0.3125 0.203125 -0.53125q0.203125 -0.21875 0.546875 -0.21875q0.34375 0 0.546875 0.21875q0.203125 0.21875 0.203125 0.53125q0 0.3125 -0.203125 0.515625q-0.203125 0.203125 -0.546875 0.203125q-0.34375 0 -0.546875 -0.203125q-0.203125 -0.203125 -0.203125 -0.515625zm5.9312134 0.328125l0 2.515625l2.046875 0l0 0.890625l-2.046875 0l0 6.578125q0 0.8125 0.296875 1.21875q0.296875 0.390625 1.0 0.390625q0.265625 0 0.875 -0.078125l0.046875 0.890625q-0.421875 0.15625 -1.171875 0.15625q-1.109375 0 -1.625 -0.65625q-0.515625 -0.65625 -0.515625 -1.921875l0 -6.578125l-1.8125 0l0 -0.890625l1.8125 0l0 -2.515625l1.09375 0zm5.5253296 12.375l-1.09375 0l0 -9.859375l1.09375 0l0 9.859375zm-1.28125 -12.703125q0 -0.3125 0.203125 -0.53125q0.203125 -0.21875 0.546875 -0.21875q0.34375 0 0.546875 0.21875q0.203125 0.21875 0.203125 0.53125q0 0.3125 -0.203125 0.515625q-0.203125 0.203125 -0.546875 0.203125q-0.34375 0 -0.546875 -0.203125q-0.203125 -0.203125 -0.203125 -0.515625zm3.6343994 7.625q0 -1.421875 0.546875 -2.546875q0.5625 -1.140625 1.5625 -1.765625q1.015625 -0.640625 2.28125 -0.640625q1.96875 0 3.1875 1.375q1.234375 1.375 1.234375 3.65625l0 0.234375q0 1.421875 -0.5625 2.5625q-0.546875 1.140625 -1.546875 1.765625q-1.0 0.625 -2.28125 0.625q-1.96875 0 -3.203125 -1.375q-1.21875 -1.390625 -1.21875 -3.671875l0 -0.21875zm1.09375 0.3125q0 1.765625 0.921875 2.90625q0.921875 1.125 2.40625 1.125q1.46875 0 2.375 -1.125q0.921875 -1.140625 0.921875 -3.0l0 -0.21875q0 -1.125 -0.421875 -2.0625q-0.40625 -0.9375 -1.171875 -1.453125q-0.75 -0.515625 -1.734375 -0.515625q-1.453125 0 -2.375 1.140625q-0.921875 1.140625 -0.921875 3.0l0 0.203125zm10.995422 -5.09375l0.046875 1.6875q0.546875 -0.90625 1.375 -1.375q0.828125 -0.484375 1.84375 -0.484375q1.578125 0 2.34375 0.890625q0.78125 0.890625 0.796875 2.671875l0 6.46875l-1.09375 0l0 -6.484375q0 -1.3125 -0.5625 -1.953125q-0.546875 -0.65625 -1.75 -0.65625q-1.015625 0 -1.796875 0.640625q-0.78125 0.625 -1.15625 1.703125l0 6.75l-1.078125 0l0 -9.859375l1.03125 0zm9.12323 1.203125q0 -0.3125 0.203125 -0.53125q0.203125 -0.234375 0.5625 -0.234375q0.359375 0 0.5625 0.234375q0.21875 0.21875 0.21875 0.53125q0 0.3125 -0.21875 0.53125q-0.203125 0.203125 -0.5625 0.203125q-0.359375 0 -0.5625 -0.203125q-0.203125 -0.21875 -0.203125 -0.53125zm-0.140625 11.140625l-0.640625 -0.484375q0.828125 -1.109375 0.859375 -2.296875l0 -1.421875l1.0625 0l0 1.140625q0 1.90625 -1.28125 3.0625z" fill-rule="nonzero"/><path fill="#ff9900" d="m685.1257 269.68903l-1.125 0l0 -13.265625l1.125 0l0 13.265625zm4.3709106 -9.859375l0.046875 1.6875q0.546875 -0.90625 1.375 -1.375q0.828125 -0.484375 1.84375 -0.484375q1.578125 0 2.34375 0.890625q0.78125 0.890625 0.796875 2.671875l0 6.46875l-1.09375 0l0 -6.484375q0 -1.3125 -0.5625 -1.953125q-0.546875 -0.65625 -1.75 -0.65625q-1.015625 0 -1.796875 0.640625q-0.78125 0.625 -1.15625 1.703125l0 6.75l-1.078125 0l0 -9.859375l1.03125 0zm12.857605 9.125q1.140625 0 1.90625 -0.640625q0.78125 -0.640625 0.84375 -1.671875l1.046875 0q-0.046875 0.90625 -0.578125 1.65625q-0.515625 0.734375 -1.375 1.15625q-0.859375 0.421875 -1.84375 0.421875q-1.9375 0 -3.078125 -1.34375q-1.125 -1.359375 -1.125 -3.640625l0 -0.328125q0 -1.453125 0.5 -2.5625q0.515625 -1.125 1.46875 -1.734375q0.953125 -0.609375 2.234375 -0.609375q1.609375 0 2.65625 0.96875q1.0625 0.953125 1.140625 2.53125l-1.046875 0q-0.078125 -1.15625 -0.84375 -1.859375q-0.75 -0.71875 -1.90625 -0.71875q-1.484375 0 -2.296875 1.0625q-0.8125 1.0625 -0.8125 2.984375l0 0.328125q0 1.890625 0.8125 2.953125q0.8125 1.046875 2.296875 1.046875zm10.516724 -8.1875q-0.34375 -0.0625 -0.734375 -0.0625q-1.015625 0 -1.71875 0.5625q-0.703125 0.5625 -1.015625 1.65625l0 6.765625l-1.078125 0l0 -9.859375l1.0625 0l0.015625 1.5625q0.875 -1.734375 2.78125 -1.734375q0.453125 0 0.71875 0.109375l-0.03125 1.0zm5.3688965 9.109375q-1.25 0 -2.265625 -0.625q-1.015625 -0.625 -1.59375 -1.71875q-0.5625 -1.109375 -0.5625 -2.484375l0 -0.390625q0 -1.421875 0.546875 -2.5625q0.5625 -1.140625 1.546875 -1.78125q0.984375 -0.65625 2.125 -0.65625q1.796875 0 2.84375 1.21875q1.0625 1.21875 1.0625 3.34375l0 0.609375l-7.03125 0l0 0.21875q0 1.671875 0.953125 2.796875q0.96875 1.109375 2.421875 1.109375q0.875 0 1.546875 -0.3125q0.671875 -0.328125 1.21875 -1.03125l0.6875 0.515625q-1.203125 1.75 -3.5 1.75zm-0.203125 -9.296875q-1.21875 0 -2.0625 0.90625q-0.84375 0.890625 -1.03125 2.421875l5.921875 0l0 -0.125q-0.046875 -1.421875 -0.8125 -2.3125q-0.765625 -0.890625 -2.015625 -0.890625zm12.247253 9.109375q-0.15625 -0.46875 -0.203125 -1.375q-0.578125 0.75 -1.46875 1.15625q-0.890625 0.40625 -1.875 0.40625q-1.421875 0 -2.3125 -0.796875q-0.875 -0.796875 -0.875 -2.0q0 -1.4375 1.203125 -2.28125q1.203125 -0.84375 3.34375 -0.84375l1.96875 0l0 -1.109375q0 -1.0625 -0.65625 -1.671875q-0.640625 -0.609375 -1.890625 -0.609375q-1.140625 0 -1.890625 0.59375q-0.75 0.578125 -0.75 1.40625l-1.09375 -0.015625q0 -1.171875 1.09375 -2.03125q1.09375 -0.859375 2.6875 -0.859375q1.65625 0 2.609375 0.828125q0.953125 0.8125 0.984375 2.28125l0 4.671875q0 1.4375 0.296875 2.140625l0 0.109375l-1.171875 0zm-3.421875 -0.78125q1.09375 0 1.953125 -0.53125q0.859375 -0.53125 1.25 -1.40625l0 -2.171875l-1.953125 0q-1.625 0.015625 -2.546875 0.59375q-0.921875 0.578125 -0.921875 1.59375q0 0.828125 0.609375 1.375q0.625 0.546875 1.609375 0.546875zm13.102478 -1.71875q0 -0.8125 -0.65625 -1.296875q-0.65625 -0.5 -1.96875 -0.78125q-1.3125 -0.28125 -2.03125 -0.640625q-0.71875 -0.359375 -1.078125 -0.875q-0.34375 -0.515625 -0.34375 -1.25q0 -1.171875 0.96875 -1.921875q0.984375 -0.765625 2.5 -0.765625q1.65625 0 2.640625 0.8125q1.0 0.8125 1.0 2.125l-1.09375 0q0 -0.875 -0.71875 -1.4375q-0.71875 -0.578125 -1.828125 -0.578125q-1.078125 0 -1.734375 0.484375q-0.640625 0.46875 -0.640625 1.234375q0 0.734375 0.53125 1.140625q0.546875 0.40625 1.984375 0.75q1.4375 0.328125 2.140625 0.71875q0.71875 0.375 1.0625 0.921875q0.359375 0.53125 0.359375 1.296875q0 1.25 -1.015625 2.0q-1.0 0.75 -2.625 0.75q-1.71875 0 -2.796875 -0.828125q-1.0625 -0.84375 -1.0625 -2.125l1.09375 0q0.0625 0.96875 0.796875 1.5q0.75 0.53125 1.96875 0.53125q1.140625 0 1.84375 -0.5q0.703125 -0.5 0.703125 -1.265625zm4.759033 2.5l-1.09375 0l0 -9.859375l1.09375 0l0 9.859375zm-1.28125 -12.703125q0 -0.3125 0.203125 -0.53125q0.203125 -0.21875 0.546875 -0.21875q0.34375 0 0.546875 0.21875q0.203125 0.21875 0.203125 0.53125q0 0.3125 -0.203125 0.515625q-0.203125 0.203125 -0.546875 0.203125q-0.34375 0 -0.546875 -0.203125q-0.203125 -0.203125 -0.203125 -0.515625zm5.2750244 2.84375l0.046875 1.6875q0.546875 -0.90625 1.375 -1.375q0.828125 -0.484375 1.84375 -0.484375q1.578125 0 2.34375 0.890625q0.78125 0.890625 0.796875 2.671875l0 6.46875l-1.09375 0l0 -6.484375q0 -1.3125 -0.5625 -1.953125q-0.546875 -0.65625 -1.75 -0.65625q-1.015625 0 -1.796875 0.640625q-0.78125 0.625 -1.15625 1.703125l0 6.75l-1.078125 0l0 -9.859375l1.03125 0zm8.779419 4.84375q0 -2.3125 1.015625 -3.65625q1.03125 -1.359375 2.796875 -1.359375q2.015625 0 3.0625 1.59375l0.046875 -1.421875l1.015625 0l0 9.65625q0 1.90625 -1.0625 3.015625q-1.0625 1.109375 -2.890625 1.109375q-1.03125 0 -1.96875 -0.46875q-0.921875 -0.453125 -1.453125 -1.21875l0.609375 -0.65625q1.15625 1.421875 2.75 1.421875q1.359375 0 2.125 -0.8125q0.765625 -0.796875 0.796875 -2.21875l0 -1.25q-1.046875 1.46875 -3.0625 1.46875q-1.703125 0 -2.75 -1.359375q-1.03125 -1.375 -1.03125 -3.703125l0 -0.140625zm1.109375 0.1875q0 1.890625 0.75 2.984375q0.75 1.078125 2.125 1.078125q2.015625 0 2.859375 -1.796875l0 -4.59375q-0.390625 -0.9375 -1.109375 -1.4375q-0.71875 -0.5 -1.734375 -0.5q-1.375 0 -2.140625 1.078125q-0.75 1.078125 -0.75 3.1875zm20.119324 2.328125q0 -0.8125 -0.65625 -1.296875q-0.65625 -0.5 -1.96875 -0.78125q-1.3125 -0.28125 -2.03125 -0.640625q-0.71875 -0.359375 -1.078125 -0.875q-0.34375 -0.515625 -0.34375 -1.25q0 -1.171875 0.96875 -1.921875q0.984375 -0.765625 2.5 -0.765625q1.65625 0 2.640625 0.8125q1.0 0.8125 1.0 2.125l-1.09375 0q0 -0.875 -0.71875 -1.4375q-0.71875 -0.578125 -1.828125 -0.578125q-1.078125 0 -1.734375 0.484375q-0.640625 0.46875 -0.640625 1.234375q0 0.734375 0.53125 1.140625q0.546875 0.40625 1.984375 0.75q1.4375 0.328125 2.140625 0.71875q0.71875 0.375 1.0625 0.921875q0.359375 0.53125 0.359375 1.296875q0 1.25 -1.015625 2.0q-1.0 0.75 -2.625 0.75q-1.71875 0 -2.796875 -0.828125q-1.0625 -0.84375 -1.0625 -2.125l1.09375 0q0.0625 0.96875 0.796875 1.5q0.75 0.53125 1.96875 0.53125q1.140625 0 1.84375 -0.5q0.703125 -0.5 0.703125 -1.265625zm11.462158 -2.328125q0 2.3125 -1.015625 3.671875q-1.015625 1.34375 -2.734375 1.34375q-2.015625 0 -3.09375 -1.421875l0 5.03125l-1.09375 0l0 -13.65625l1.015625 0l0.0625 1.390625q1.0625 -1.5625 3.078125 -1.5625q1.765625 0 2.765625 1.34375q1.015625 1.328125 1.015625 3.703125l0 0.15625zm-1.09375 -0.1875q0 -1.890625 -0.78125 -2.984375q-0.765625 -1.09375 -2.15625 -1.09375q-1.0 0 -1.71875 0.484375q-0.71875 0.484375 -1.09375 1.40625l0 4.71875q0.390625 0.859375 1.109375 1.3125q0.734375 0.4375 1.734375 0.4375q1.375 0 2.140625 -1.09375q0.765625 -1.109375 0.765625 -3.1875zm7.3236694 5.203125q-1.25 0 -2.265625 -0.625q-1.015625 -0.625 -1.59375 -1.71875q-0.5625 -1.109375 -0.5625 -2.484375l0 -0.390625q0 -1.421875 0.546875 -2.5625q0.5625 -1.140625 1.546875 -1.78125q0.984375 -0.65625 2.125 -0.65625q1.796875 0 2.84375 1.21875q1.0625 1.21875 1.0625 3.34375l0 0.609375l-7.03125 0l0 0.21875q0 1.671875 0.953125 2.796875q0.96875 1.109375 2.421875 1.109375q0.875 0 1.546875 -0.3125q0.671875 -0.328125 1.21875 -1.03125l0.6875 0.515625q-1.203125 1.75 -3.5 1.75zm-0.203125 -9.296875q-1.21875 0 -2.0625 0.90625q-0.84375 0.890625 -1.03125 2.421875l5.921875 0l0 -0.125q-0.046875 -1.421875 -0.8125 -2.3125q-0.765625 -0.890625 -2.015625 -0.890625zm9.840942 9.296875q-1.25 0 -2.265625 -0.625q-1.015625 -0.625 -1.59375 -1.71875q-0.5625 -1.109375 -0.5625 -2.484375l0 -0.390625q0 -1.421875 0.546875 -2.5625q0.5625 -1.140625 1.546875 -1.78125q0.984375 -0.65625 2.125 -0.65625q1.796875 0 2.84375 1.21875q1.0625 1.21875 1.0625 3.34375l0 0.609375l-7.03125 0l0 0.21875q0 1.671875 0.953125 2.796875q0.96875 1.109375 2.421875 1.109375q0.875 0 1.546875 -0.3125q0.671875 -0.328125 1.21875 -1.03125l0.6875 0.515625q-1.203125 1.75 -3.5 1.75zm-0.203125 -9.296875q-1.21875 0 -2.0625 0.90625q-0.84375 0.890625 -1.03125 2.421875l5.921875 0l0 -0.125q-0.046875 -1.421875 -0.8125 -2.3125q-0.765625 -0.890625 -2.015625 -0.890625zm5.5910034 4.09375q0 -2.296875 1.015625 -3.65625q1.03125 -1.359375 2.796875 -1.359375q1.984375 0 3.03125 1.5625l0 -5.53125l1.09375 0l0 14.0l-1.03125 0l-0.03125 -1.3125q-1.046875 1.5 -3.09375 1.5q-1.703125 0 -2.75 -1.375q-1.03125 -1.375 -1.03125 -3.703125l0 -0.125zm1.109375 0.1875q0 1.890625 0.75 2.984375q0.75 1.078125 2.125 1.078125q2.015625 0 2.859375 -1.78125l0 -4.625q-0.84375 -1.921875 -2.84375 -1.921875q-1.375 0 -2.140625 1.078125q-0.75 1.078125 -0.75 3.1875z" fill-rule="nonzero"/><path fill="#000000" fill-opacity="0.0" d="m765.43304 445.16797l175.24414 0l0 82.36224l-175.24414 0z" fill-rule="evenodd"/><path fill="#999999" d="m775.49554 472.08798l1.546875 -8.96875l-1.59375 0l0.15625 -0.890625l1.59375 0l0.15625 -1.09375q0.234375 -1.5625 1.203125 -2.40625q0.96875 -0.84375 2.46875 -0.828125q1.09375 0.015625 2.4375 0.546875l-0.28125 0.9375q-1.078125 -0.5 -2.125 -0.515625q-1.109375 -0.015625 -1.78125 0.609375q-0.65625 0.609375 -0.828125 1.65625l-0.171875 1.09375l2.234375 0l-0.140625 0.890625l-2.234375 0l-1.5625 8.96875l-1.078125 0zm6.203125 0l-1.09375 0l1.71875 -9.859375l1.09375 0l-1.71875 9.859375zm5.717224 -9.859375l-0.328125 1.6875q0.65625 -0.90625 1.515625 -1.390625q0.859375 -0.5 1.84375 -0.46875q1.421875 0.03125 2.0625 0.984375q0.65625 0.953125 0.46875 2.640625l-1.078125 6.40625l-1.078125 0l1.078125 -6.4375q0.046875 -0.515625 0.015625 -1.0q-0.15625 -1.625 -1.765625 -1.65625q-0.953125 -0.03125 -1.796875 0.5625q-0.828125 0.59375 -1.453125 1.765625l-1.15625 6.765625l-1.078125 0l1.703125 -9.859375l1.046875 0zm13.404541 9.859375q-0.046875 -0.34375 -0.03125 -0.6875l0.09375 -0.6875q-0.6875 0.734375 -1.578125 1.15625q-0.875 0.421875 -1.890625 0.40625q-1.25 -0.03125 -2.03125 -0.796875q-0.765625 -0.765625 -0.6875 -1.9375q0.0625 -0.96875 0.65625 -1.6875q0.609375 -0.71875 1.703125 -1.109375q1.109375 -0.390625 2.46875 -0.390625l2.015625 0l0.171875 -1.125q0.109375 -1.015625 -0.4375 -1.625q-0.546875 -0.609375 -1.609375 -0.640625q-1.078125 -0.015625 -1.875 0.53125q-0.796875 0.546875 -1.0 1.453125l-1.0625 0q0.171875 -1.296875 1.3125 -2.109375q1.15625 -0.8125 2.734375 -0.796875q1.515625 0.03125 2.328125 0.921875q0.828125 0.875 0.6875 2.296875l-0.828125 4.953125l-0.078125 0.796875q-0.015625 0.484375 0.078125 0.96875l-0.015625 0.109375l-1.125 0zm-3.21875 -0.78125q1.0 0.046875 1.90625 -0.46875q0.921875 -0.515625 1.53125 -1.46875l0.359375 -2.171875l-1.734375 -0.015625q-1.65625 0 -2.703125 0.59375q-1.046875 0.59375 -1.15625 1.6875q-0.078125 0.796875 0.421875 1.3125q0.5 0.515625 1.375 0.53125zm8.080444 0.78125l-1.09375 0l2.4375 -14.0l1.09375 0l-2.4375 14.0zm8.635803 0l-1.09375 0l2.4375 -14.0l1.09375 0l-2.4375 14.0zm9.066711 0q-0.046875 -0.34375 -0.03125 -0.6875l0.09375 -0.6875q-0.6875 0.734375 -1.578125 1.15625q-0.875 0.421875 -1.890625 0.40625q-1.25 -0.03125 -2.03125 -0.796875q-0.765625 -0.765625 -0.6875 -1.9375q0.0625 -0.96875 0.65625 -1.6875q0.609375 -0.71875 1.703125 -1.109375q1.109375 -0.390625 2.46875 -0.390625l2.015625 0l0.171875 -1.125q0.109375 -1.015625 -0.4375 -1.625q-0.546875 -0.609375 -1.609375 -0.640625q-1.078125 -0.015625 -1.875 0.53125q-0.796875 0.546875 -1.0 1.453125l-1.0625 0q0.171875 -1.296875 1.3125 -2.109375q1.15625 -0.8125 2.734375 -0.796875q1.515625 0.03125 2.328125 0.921875q0.828125 0.875 0.6875 2.296875l-0.828125 4.953125l-0.078125 0.796875q-0.015625 0.484375 0.078125 0.96875l-0.015625 0.109375l-1.125 0zm-3.21875 -0.78125q1.0 0.046875 1.90625 -0.46875q0.921875 -0.515625 1.53125 -1.46875l0.359375 -2.171875l-1.734375 -0.015625q-1.65625 0 -2.703125 0.59375q-1.046875 0.59375 -1.15625 1.6875q-0.078125 0.796875 0.421875 1.3125q0.5 0.515625 1.375 0.53125zm10.68988 -11.59375l-0.4375 2.515625l1.984375 0l-0.15625 0.890625l-1.984375 0l-1.09375 6.578125l-0.015625 0.5625q0 1.0 0.90625 1.03125q0.28125 0 0.890625 -0.0625l-0.046875 0.890625q-0.53125 0.15625 -1.09375 0.125q-0.953125 -0.015625 -1.390625 -0.65625q-0.4375 -0.65625 -0.328125 -1.890625l1.09375 -6.578125l-1.765625 0l0.15625 -0.890625l1.75 0l0.453125 -2.515625l1.078125 0zm5.996704 12.5625q-1.1875 -0.03125 -2.0625 -0.671875q-0.859375 -0.640625 -1.265625 -1.734375q-0.40625 -1.109375 -0.28125 -2.40625l0.03125 -0.296875q0.125 -1.375 0.796875 -2.609375q0.6875 -1.234375 1.734375 -1.875q1.0625 -0.65625 2.25 -0.625q1.09375 0.015625 1.859375 0.59375q0.765625 0.578125 1.109375 1.625q0.34375 1.03125 0.21875 2.296875l-0.078125 0.65625l-6.8125 0l-0.03125 0.21875q-0.140625 1.0 0.140625 1.90625q0.28125 0.90625 0.921875 1.4375q0.640625 0.53125 1.546875 0.546875q0.875 0.03125 1.578125 -0.328125q0.703125 -0.375 1.296875 -0.984375l0.640625 0.515625q-0.671875 0.859375 -1.59375 1.3125q-0.90625 0.4375 -2.0 0.421875zm1.140625 -9.296875q-1.171875 -0.046875 -2.125 0.84375q-0.9375 0.875 -1.40625 2.484375l5.71875 0l0.03125 -0.125q0.171875 -1.296875 -0.453125 -2.234375q-0.625 -0.9375 -1.765625 -0.96875zm10.406189 0.171875q-0.359375 -0.078125 -0.71875 -0.078125q-1.03125 0 -1.90625 0.640625q-0.859375 0.625 -1.15625 1.59375l-1.15625 6.78125l-1.078125 0l1.703125 -9.859375l1.078125 0l-0.328125 1.5625q0.53125 -0.875 1.28125 -1.328125q0.765625 -0.453125 1.6875 -0.4375q0.3125 0 0.75 0.140625l-0.15625 0.984375zm5.9210205 8.9375q-0.046875 -0.34375 -0.03125 -0.6875l0.09375 -0.6875q-0.6875 0.734375 -1.578125 1.15625q-0.875 0.421875 -1.890625 0.40625q-1.25 -0.03125 -2.03125 -0.796875q-0.765625 -0.765625 -0.6875 -1.9375q0.0625 -0.96875 0.65625 -1.6875q0.609375 -0.71875 1.703125 -1.109375q1.109375 -0.390625 2.46875 -0.390625l2.015625 0l0.171875 -1.125q0.109375 -1.015625 -0.4375 -1.625q-0.546875 -0.609375 -1.609375 -0.640625q-1.078125 -0.015625 -1.875 0.53125q-0.796875 0.546875 -1.0 1.453125l-1.0625 0q0.171875 -1.296875 1.3125 -2.109375q1.15625 -0.8125 2.734375 -0.796875q1.515625 0.03125 2.328125 0.921875q0.828125 0.875 0.6875 2.296875l-0.828125 4.953125l-0.078125 0.796875q-0.015625 0.484375 0.078125 0.96875l-0.015625 0.109375l-1.125 0zm-3.21875 -0.78125q1.0 0.046875 1.90625 -0.46875q0.921875 -0.515625 1.53125 -1.46875l0.359375 -2.171875l-1.734375 -0.015625q-1.65625 0 -2.703125 0.59375q-1.046875 0.59375 -1.15625 1.6875q-0.078125 0.796875 0.421875 1.3125q0.5 0.515625 1.375 0.53125zm8.080444 0.78125l-1.09375 0l2.4375 -14.0l1.09375 0l-2.4375 14.0zm11.573303 0.1875q-0.859375 -0.015625 -1.609375 -0.359375q-0.75 -0.34375 -1.21875 -1.0625l-0.90625 5.03125l-1.078125 0l2.375 -13.65625l1.0 0l-0.25 1.390625q1.28125 -1.625 3.203125 -1.5625q1.390625 0.03125 2.15625 1.03125q0.78125 0.984375 0.8125 2.8125q0.015625 0.5625 -0.0625 1.109375l-0.03125 0.25q-0.21875 1.59375 -0.859375 2.75q-0.625 1.15625 -1.53125 1.734375q-0.890625 0.5625 -2.0 0.53125zm3.34375 -5.265625l0.0625 -0.875q0.015625 -1.453125 -0.546875 -2.28125q-0.546875 -0.828125 -1.640625 -0.859375q-0.953125 -0.03125 -1.734375 0.46875q-0.78125 0.484375 -1.3125 1.40625l-0.8125 4.75q0.296875 0.84375 0.921875 1.28125q0.640625 0.4375 1.515625 0.453125q1.328125 0.046875 2.234375 -0.984375q0.921875 -1.03125 1.234375 -2.875l0.078125 -0.484375zm2.9019165 0.0625q0.15625 -1.4375 0.859375 -2.625q0.71875 -1.1875 1.78125 -1.796875q1.0625 -0.625 2.296875 -0.59375q1.21875 0.015625 2.078125 0.671875q0.875 0.640625 1.265625 1.765625q0.390625 1.125 0.265625 2.5l-0.015625 0.171875q-0.265625 2.328125 -1.65625 3.75q-1.375 1.40625 -3.3125 1.359375q-1.65625 -0.03125 -2.65625 -1.21875q-0.984375 -1.203125 -0.96875 -3.15625l0.03125 -0.515625l0.03125 -0.3125zm1.046875 0.3125q-0.109375 1.078125 0.15625 2.0q0.28125 0.90625 0.890625 1.4375q0.609375 0.515625 1.53125 0.53125q0.984375 0.03125 1.796875 -0.484375q0.8125 -0.53125 1.34375 -1.46875q0.53125 -0.953125 0.6875 -2.109375l0.015625 -0.296875q0.171875 -1.75 -0.53125 -2.859375q-0.703125 -1.125 -2.046875 -1.15625q-1.453125 -0.046875 -2.515625 1.125q-1.0625 1.171875 -1.296875 3.109375l-0.03125 0.171875zm15.151855 2.140625q0.140625 -1.265625 -1.53125 -1.828125l-1.578125 -0.46875q-2.15625 -0.71875 -2.03125 -2.421875q0.0625 -1.234375 1.125 -2.0q1.078125 -0.78125 2.546875 -0.75q1.453125 0.015625 2.34375 0.8125q0.90625 0.796875 0.84375 2.125l-1.0625 0q0.046875 -0.890625 -0.5625 -1.4375q-0.59375 -0.5625 -1.609375 -0.578125q-1.03125 0 -1.75 0.484375q-0.703125 0.484375 -0.796875 1.296875q-0.140625 1.171875 1.4375 1.640625l1.140625 0.328125l0.609375 0.21875q2.0625 0.765625 1.9375 2.515625q-0.0625 1.1875 -1.015625 1.953125q-0.953125 0.75 -2.453125 0.84375l-0.375 0.015625q-1.0 -0.03125 -1.796875 -0.390625q-0.796875 -0.375 -1.234375 -1.03125q-0.421875 -0.671875 -0.375 -1.53125l1.09375 0q0 0.9375 0.625 1.484375q0.625 0.53125 1.734375 0.546875q1.09375 0 1.859375 -0.5q0.765625 -0.5 0.875 -1.328125zm4.223999 2.5625l-1.09375 0l1.734375 -9.859375l1.078125 0l-1.71875 9.859375zm0.9375 -12.703125q0.046875 -0.59375 0.78125 -0.75q0.359375 0.0625 0.5 0.21875q0.15625 0.15625 0.203125 0.53125q-0.09375 0.34375 -0.265625 0.5q-0.171875 0.15625 -0.515625 0.234375q-0.75 -0.109375 -0.703125 -0.734375zm5.8167114 0.328125l-0.4375 2.515625l1.984375 0l-0.15625 0.890625l-1.984375 0l-1.09375 6.578125l-0.015625 0.5625q0 1.0 0.90625 1.03125q0.28125 0 0.890625 -0.0625l-0.046875 0.890625q-0.53125 0.15625 -1.09375 0.125q-0.953125 -0.015625 -1.390625 -0.65625q-0.4375 -0.65625 -0.328125 -1.890625l1.09375 -6.578125l-1.765625 0l0.15625 -0.890625l1.75 0l0.453125 -2.515625l1.078125 0zm3.293579 12.375l-1.09375 0l1.734375 -9.859375l1.078125 0l-1.71875 9.859375zm0.9375 -12.703125q0.046875 -0.59375 0.78125 -0.75q0.359375 0.0625 0.5 0.21875q0.15625 0.15625 0.203125 0.53125q-0.09375 0.34375 -0.265625 0.5q-0.171875 0.15625 -0.515625 0.234375q-0.75 -0.109375 -0.703125 -0.734375zm2.2697754 7.6875q0.15625 -1.4375 0.859375 -2.625q0.71875 -1.1875 1.78125 -1.796875q1.0625 -0.625 2.296875 -0.59375q1.21875 0.015625 2.078125 0.671875q0.875 0.640625 1.265625 1.765625q0.390625 1.125 0.265625 2.5l-0.015625 0.171875q-0.265625 2.328125 -1.65625 3.75q-1.375 1.40625 -3.3125 1.359375q-1.65625 -0.03125 -2.65625 -1.21875q-0.984375 -1.203125 -0.96875 -3.15625l0.03125 -0.515625l0.03125 -0.3125zm1.046875 0.3125q-0.109375 1.078125 0.15625 2.0q0.28125 0.90625 0.890625 1.4375q0.609375 0.515625 1.53125 0.53125q0.984375 0.03125 1.796875 -0.484375q0.8125 -0.53125 1.34375 -1.46875q0.53125 -0.953125 0.6875 -2.109375l0.015625 -0.296875q0.171875 -1.75 -0.53125 -2.859375q-0.703125 -1.125 -2.046875 -1.15625q-1.453125 -0.046875 -2.515625 1.125q-1.0625 1.171875 -1.296875 3.109375l-0.03125 0.171875zm11.66748 -5.15625l-0.328125 1.6875q0.65625 -0.90625 1.515625 -1.390625q0.859375 -0.5 1.84375 -0.46875q1.421875 0.03125 2.0625 0.984375q0.65625 0.953125 0.46875 2.640625l-1.078125 6.40625l-1.078125 0l1.078125 -6.4375q0.046875 -0.515625 0.015625 -1.0q-0.15625 -1.625 -1.765625 -1.65625q-0.953125 -0.03125 -1.796875 0.5625q-0.828125 0.59375 -1.453125 1.765625l-1.15625 6.765625l-1.078125 0l1.703125 -9.859375l1.046875 0z" fill-rule="nonzero"/><path fill="#000000" fill-opacity="0.0" d="m244.51962 -3.9169402l175.24411 0l0 82.362206l-175.24411 0z" fill-rule="evenodd"/><path fill="#999999" d="m260.17587 20.440557q0.140625 -1.265625 -1.53125 -1.828125l-1.578125 -0.46875q-2.15625 -0.71875 -2.03125 -2.421874q0.0625 -1.234375 1.125 -2.0q1.078125 -0.78125 2.546875 -0.75q1.453125 0.015625 2.34375 0.8125q0.90625 0.796875 0.84375 2.125l-1.0625 0q0.046875 -0.890625 -0.5625 -1.4375q-0.59375 -0.5625 -1.609375 -0.578125q-1.03125 0 -1.75 0.484375q-0.703125 0.484375 -0.796875 1.296875q-0.140625 1.171874 1.4375 1.640624l1.140625 0.328125l0.609375 0.21875q2.0625 0.765625 1.9375 2.515625q-0.0625 1.1875 -1.015625 1.953125q-0.953125 0.75 -2.453125 0.84375l-0.375 0.015625q-1.0 -0.03125 -1.796875 -0.390625q-0.796875 -0.375 -1.234375 -1.03125q-0.421875 -0.671875 -0.375 -1.53125l1.09375 0q0 0.9375 0.625 1.484375q0.625 0.53125 1.734375 0.546875q1.09375 0 1.859375 -0.5q0.765625 -0.5 0.875 -1.328125zm7.161499 2.75q-0.859375 -0.015625 -1.609375 -0.359375q-0.75 -0.34375 -1.21875 -1.0625l-0.90625 5.03125l-1.078125 0l2.375 -13.656249l1.0 0l-0.25 1.390625q1.28125 -1.625 3.203125 -1.5625q1.390625 0.03125 2.15625 1.03125q0.78125 0.984375 0.8125 2.812499q0.015625 0.5625 -0.0625 1.109375l-0.03125 0.25q-0.21875 1.59375 -0.859375 2.75q-0.625 1.15625 -1.53125 1.734375q-0.890625 0.5625 -2.0 0.53125zm3.34375 -5.265625l0.0625 -0.875q0.015625 -1.453124 -0.546875 -2.281249q-0.546875 -0.828125 -1.640625 -0.859375q-0.953125 -0.03125 -1.734375 0.46875q-0.78125 0.484375 -1.3125 1.40625l-0.8125 4.749999q0.296875 0.84375 0.921875 1.28125q0.640625 0.4375 1.515625 0.453125q1.328125 0.046875 2.234375 -0.984375q0.921875 -1.03125 1.234375 -2.875l0.078125 -0.484375zm6.5425415 5.265625q-1.1875 -0.03125 -2.0625 -0.671875q-0.859375 -0.640625 -1.265625 -1.734375q-0.40625 -1.109375 -0.28125 -2.40625l0.03125 -0.296875q0.125 -1.375 0.796875 -2.609374q0.6875 -1.234375 1.734375 -1.875q1.0625 -0.65625 2.25 -0.625q1.09375 0.015625 1.859375 0.59375q0.765625 0.578125 1.109375 1.625q0.34375 1.031249 0.21875 2.296874l-0.078125 0.65625l-6.8125 0l-0.03125 0.21875q-0.140625 1.0 0.140625 1.90625q0.28125 0.90625 0.921875 1.4375q0.640625 0.53125 1.546875 0.546875q0.875 0.03125 1.578125 -0.328125q0.703125 -0.375 1.296875 -0.984375l0.640625 0.515625q-0.671875 0.859375 -1.59375 1.3125q-0.90625 0.4375 -2.0 0.421875zm1.140625 -9.296874q-1.171875 -0.046875 -2.125 0.84375q-0.9375 0.875 -1.40625 2.484374l5.71875 0l0.03125 -0.125q0.171875 -1.296874 -0.453125 -2.234374q-0.625 -0.9375 -1.765625 -0.96875zm8.296814 9.296874q-1.1875 -0.03125 -2.0625 -0.671875q-0.859375 -0.640625 -1.265625 -1.734375q-0.40625 -1.109375 -0.28125 -2.40625l0.03125 -0.296875q0.125 -1.375 0.796875 -2.609374q0.6875 -1.234375 1.734375 -1.875q1.0625 -0.65625 2.25 -0.625q1.09375 0.015625 1.859375 0.59375q0.765625 0.578125 1.109375 1.625q0.34375 1.031249 0.21875 2.296874l-0.078125 0.65625l-6.8125 0l-0.03125 0.21875q-0.140625 1.0 0.140625 1.90625q0.28125 0.90625 0.921875 1.4375q0.640625 0.53125 1.546875 0.546875q0.875 0.03125 1.578125 -0.328125q0.703125 -0.375 1.296875 -0.984375l0.640625 0.515625q-0.671875 0.859375 -1.59375 1.3125q-0.90625 0.4375 -2.0 0.421875zm1.140625 -9.296874q-1.171875 -0.046875 -2.125 0.84375q-0.9375 0.875 -1.40625 2.484374l5.71875 0l0.03125 -0.125q0.171875 -1.296874 -0.453125 -2.234374q-0.625 -0.9375 -1.765625 -0.96875zm4.828064 4.156249q0.203125 -1.546875 0.84375 -2.749999q0.640625 -1.203125 1.5625 -1.78125q0.921875 -0.578125 2.078125 -0.546875q0.875 0.015625 1.59375 0.40625q0.71875 0.375 1.140625 1.15625l1.0 -5.53125l1.0625 0l-2.421875 13.999999l-1.015625 0l0.25 -1.3125q-1.28125 1.546875 -3.1875 1.5q-1.375 -0.046875 -2.15625 -1.078125q-0.78125 -1.03125 -0.8125 -2.78125q-0.015625 -0.5625 0.046875 -1.09375l0.015625 -0.1875zm1.09375 0.1875q-0.078125 0.609375 -0.0625 1.296875q0.046875 1.25 0.578125 1.96875q0.546875 0.703125 1.546875 0.75q1.015625 0.015625 1.78125 -0.46875q0.765625 -0.5 1.296875 -1.3125l0.78125 -4.640624q-0.265625 -0.890625 -0.875 -1.390625q-0.59375 -0.515625 -1.53125 -0.53125q-1.390625 -0.046875 -2.3125 1.0625q-0.921875 1.093749 -1.1875 3.062499l-0.015625 0.203125z" fill-rule="nonzero"/></g></svg>