<svg version="1.1" viewBox="0.0 0.0 960.0 540.0" fill="none" stroke="none" stroke-linecap="square" stroke-miterlimit="10" xmlns:xlink="http://www.w3.org/1999/xlink" xmlns="http://www.w3.org/2000/svg"><clipPath id="g7d5b1ba107_1_139.0"><path d="m0 0l960.0 0l0 540.0l-960.0 0l0 -540.0z" clip-rule="nonzero"/></clipPath><g clip-path="url(#g7d5b1ba107_1_139.0)"><path fill="#ffffff" d="m0 0l960.0 0l0 540.0l-960.0 0z" fill-rule="evenodd"/><path fill="#000000" fill-opacity="0.0" d="m242.60866 119.59801l70.708664 0" fill-rule="evenodd"/><path stroke="#595959" stroke-width="2.0" stroke-linejoin="round" stroke-linecap="butt" d="m242.60866 119.59801l70.708664 0" fill-rule="evenodd"/><path fill="#000000" fill-opacity="0.0" d="m242.60866 387.80493l70.708664 0" fill-rule="evenodd"/><path stroke="#595959" stroke-width="2.0" stroke-linejoin="round" stroke-linecap="butt" d="m242.60866 387.80493l70.708664 0" fill-rule="evenodd"/><path fill="#000000" fill-opacity="0.0" d="m108.16111 360.7652l146.80316 0l0 55.716522l-146.80316 0z" fill-rule="evenodd"/><path fill="#999999" d="m126.145485 381.49768l-6.1875 0l0 6.1875l-1.125 0l0 -13.265625l8.21875 0l0 0.953125l-7.09375 0l0 5.15625l6.1875 0l0 0.96875zm2.1308517 1.109375q0 -1.421875 0.546875 -2.546875q0.5625 -1.140625 1.5625 -1.765625q1.015625 -0.640625 2.28125 -0.640625q1.96875 0 3.1875 1.375q1.234375 1.375 1.234375 3.65625l0 0.234375q0 1.421875 -0.5625 2.5625q-0.546875 1.140625 -1.546875 1.765625q-1.0 0.625 -2.28125 0.625q-1.96875 0 -3.203125 -1.375q-1.21875 -1.390625 -1.21875 -3.671875l0 -0.21875zm1.09375 0.3125q0 1.765625 0.921875 2.90625q0.921875 1.125 2.40625 1.125q1.46875 0 2.375 -1.125q0.921875 -1.140625 0.921875 -3.0l0 -0.21875q0 -1.125 -0.421875 -2.0625q-0.40625 -0.9375 -1.171875 -1.453125q-0.75 -0.515625 -1.734375 -0.515625q-1.453125 0 -2.375 1.140625q-0.921875 1.140625 -0.921875 3.0l0 0.203125zm14.214218 3.125l0.078125 0.28125l0.078125 -0.28125l4.171875 -11.625l1.234375 0l-4.9375 13.265625l-1.078125 0l-4.9375 -13.265625l1.21875 0l4.171875 11.625z" fill-rule="nonzero"/><path fill="#999999" d="m155.79272 394.68518l-5.546875 0l0 -0.5625l3.03125 -3.4375q0.75 -0.859375 1.046875 -1.421875q0.296875 -0.578125 0.296875 -1.109375q0 -0.828125 -0.5 -1.3125q-0.484375 -0.5 -1.34375 -0.5q-0.90625 0 -1.453125 0.578125q-0.546875 0.5625 -0.546875 1.46875l-0.71875 0q0 -0.734375 0.328125 -1.34375q0.34375 -0.625 0.96875 -0.96875q0.625 -0.359375 1.421875 -0.359375q1.203125 0 1.890625 0.640625q0.6875 0.640625 0.6875 1.734375q0 0.625 -0.390625 1.359375q-0.390625 0.734375 -1.359375 1.828125l-2.46875 2.796875l4.65625 0l0 0.609375z" fill-rule="nonzero"/><path fill="#999999" d="m163.25325 377.8258l0.046875 1.609375q0.546875 -0.890625 1.359375 -1.328125q0.828125 -0.453125 1.828125 -0.453125q2.328125 0 2.953125 1.90625q0.53125 -0.921875 1.40625 -1.40625q0.890625 -0.5 1.953125 -0.5q3.171875 0 3.234375 3.453125l0 6.578125l-1.09375 0l0 -6.5q0 -1.3125 -0.5625 -1.953125q-0.5625 -0.640625 -1.828125 -0.640625q-1.171875 0.015625 -1.984375 0.765625q-0.8125 0.734375 -0.90625 1.8125l0 6.515625l-1.09375 0l0 -6.578125q0 -1.265625 -0.59375 -1.890625q-0.578125 -0.625 -1.8125 -0.625q-1.015625 0 -1.765625 0.59375q-0.734375 0.578125 -1.09375 1.734375l0 6.765625l-1.09375 0l0 -9.859375l1.046875 0zm14.939987 4.78125q0 -1.421875 0.546875 -2.546875q0.5625 -1.140625 1.5625 -1.765625q1.015625 -0.640625 2.28125 -0.640625q1.96875 0 3.1875 1.375q1.234375 1.375 1.234375 3.65625l0 0.234375q0 1.421875 -0.5625 2.5625q-0.546875 1.140625 -1.546875 1.765625q-1.0 0.625 -2.28125 0.625q-1.96875 0 -3.203125 -1.375q-1.21875 -1.390625 -1.21875 -3.671875l0 -0.21875zm1.09375 0.3125q0 1.765625 0.921875 2.90625q0.921875 1.125 2.40625 1.125q1.46875 0 2.375 -1.125q0.921875 -1.140625 0.921875 -3.0l0 -0.21875q0 -1.125 -0.421875 -2.0625q-0.40625 -0.9375 -1.171875 -1.453125q-0.75 -0.515625 -1.734375 -0.515625q-1.453125 0 -2.375 1.140625q-0.921875 1.140625 -0.921875 3.0l0 0.203125zm9.526718 -0.25q0 -2.296875 1.015625 -3.65625q1.03125 -1.359375 2.796875 -1.359375q1.984375 0 3.03125 1.5625l0 -5.53125l1.09375 0l0 14.0l-1.03125 0l-0.03125 -1.3125q-1.046875 1.5 -3.09375 1.5q-1.703125 0 -2.75 -1.375q-1.03125 -1.375 -1.03125 -3.703125l0 -0.125zm1.109375 0.1875q0 1.890625 0.75 2.984375q0.75 1.078125 2.125 1.078125q2.015625 0 2.859375 -1.78125l0 -4.625q-0.84375 -1.921875 -2.84375 -1.921875q-1.375 0 -2.140625 1.078125q-0.75 1.078125 -0.75 3.1875zm13.507233 5.015625q-1.25 0 -2.265625 -0.625q-1.015625 -0.625 -1.59375 -1.71875q-0.5625 -1.109375 -0.5625 -2.484375l0 -0.390625q0 -1.421875 0.546875 -2.5625q0.5625 -1.140625 1.546875 -1.78125q0.984375 -0.65625 2.125 -0.65625q1.796875 0 2.84375 1.21875q1.0625 1.21875 1.0625 3.34375l0 0.609375l-7.03125 0l0 0.21875q0 1.671875 0.953125 2.796875q0.96875 1.109375 2.421875 1.109375q0.875 0 1.546875 -0.3125q0.671875 -0.328125 1.21875 -1.03125l0.6875 0.515625q-1.203125 1.75 -3.5 1.75zm-0.203125 -9.296875q-1.21875 0 -2.0625 0.90625q-0.84375 0.890625 -1.03125 2.421875l5.921875 0l0 -0.125q-0.046875 -1.421875 -0.8125 -2.3125q-0.765625 -0.890625 -2.015625 -0.890625zm10.934723 9.109375l-1.09375 0l0 -11.953125l-3.609375 1.34375l0 -1.03125l4.515625 -1.671875l0.1875 0l0 13.3125z" fill-rule="nonzero"/><path fill="#000000" fill-opacity="0.0" d="m108.1601 94.22619l146.80316 0l0 111.05512l-146.80316 0z" fill-rule="evenodd"/><path fill="#999999" d="m126.14448 114.95869l-6.1875 0l0 6.1875l-1.125 0l0 -13.265625l8.21875 0l0 0.953125l-7.09375 0l0 5.15625l6.1875 0l0 0.96875zm2.130867 1.109375q0 -1.421875 0.546875 -2.546875q0.5625 -1.140625 1.5625 -1.765625q1.015625 -0.640625 2.28125 -0.640625q1.96875 0 3.1875 1.375q1.234375 1.375 1.234375 3.65625l0 0.234375q0 1.421875 -0.5625 2.5625q-0.546875 1.140625 -1.546875 1.765625q-1.0 0.625 -2.28125 0.625q-1.96875 0 -3.203125 -1.375q-1.21875 -1.390625 -1.21875 -3.671875l0 -0.21875zm1.09375 0.3125q0 1.765625 0.921875 2.90625q0.921875 1.125 2.40625 1.125q1.46875 0 2.375 -1.125q0.921875 -1.140625 0.921875 -3.0l0 -0.21875q0 -1.125 -0.421875 -2.0625q-0.40625 -0.9375 -1.171875 -1.453125q-0.75 -0.515625 -1.734375 -0.515625q-1.453125 0 -2.375 1.140625q-0.921875 1.140625 -0.921875 3.0l0 0.203125zm14.214218 3.125l0.078125 0.28125l0.078125 -0.28125l4.171875 -11.625l1.234375 0l-4.9375 13.265625l-1.078125 0l-4.9375 -13.265625l1.21875 0l4.171875 11.625z" fill-rule="nonzero"/><path fill="#999999" d="m155.79173 128.14618l-5.546875 0l0 -0.5624924l3.03125 -3.4375q0.75 -0.859375 1.046875 -1.421875q0.296875 -0.578125 0.296875 -1.109375q0 -0.828125 -0.5 -1.3125q-0.484375 -0.5 -1.34375 -0.5q-0.90625 0 -1.453125 0.578125q-0.546875 0.5625 -0.546875 1.46875l-0.71875 0q0 -0.734375 0.328125 -1.34375q0.34375 -0.625 0.96875 -0.96875q0.625 -0.359375 1.421875 -0.359375q1.203125 0 1.890625 0.640625q0.6875 0.640625 0.6875 1.734375q0 0.625 -0.390625 1.359375q-0.390625 0.734375 -1.359375 1.828125l-2.46875 2.796875l4.65625 0l0 0.6093674z" fill-rule="nonzero"/><path fill="#999999" d="m161.74002 111.28681l0.046875 1.609375q0.546875 -0.890625 1.359375 -1.328125q0.828125 -0.453125 1.828125 -0.453125q2.328125 0 2.953125 1.90625q0.53125 -0.921875 1.40625 -1.40625q0.890625 -0.5 1.953125 -0.5q3.171875 0 3.234375 3.453125l0 6.578125l-1.09375 0l0 -6.5q0 -1.3125 -0.5625 -1.953125q-0.5625 -0.640625 -1.828125 -0.640625q-1.171875 0.015625 -1.984375 0.765625q-0.8125 0.734375 -0.90625 1.8125l0 6.515625l-1.09375 0l0 -6.578125q0 -1.265625 -0.59375 -1.890625q-0.578125 -0.625 -1.8125 -0.625q-1.015625 0 -1.765625 0.59375q-0.734375 0.578125 -1.09375 1.734375l0 6.765625l-1.09375 0l0 -9.859375l1.046875 0zm14.939987 4.78125q0 -1.421875 0.546875 -2.546875q0.5625 -1.140625 1.5625 -1.765625q1.015625 -0.640625 2.28125 -0.640625q1.96875 0 3.1875 1.375q1.234375 1.375 1.234375 3.65625l0 0.234375q0 1.421875 -0.5625 2.5625q-0.546875 1.140625 -1.546875 1.765625q-1.0 0.625 -2.28125 0.625q-1.96875 0 -3.203125 -1.375q-1.21875 -1.390625 -1.21875 -3.671875l0 -0.21875zm1.09375 0.3125q0 1.765625 0.921875 2.90625q0.921875 1.125 2.40625 1.125q1.46875 0 2.375 -1.125q0.921875 -1.140625 0.921875 -3.0l0 -0.21875q0 -1.125 -0.421875 -2.0625q-0.40625 -0.9375 -1.171875 -1.453125q-0.75 -0.515625 -1.734375 -0.515625q-1.453125 0 -2.375 1.140625q-0.921875 1.140625 -0.921875 3.0l0 0.203125zm9.526718 -0.25q0 -2.296875 1.015625 -3.65625q1.03125 -1.359375 2.796875 -1.359375q1.984375 0 3.03125 1.5625l0 -5.53125l1.09375 0l0 14.0l-1.03125 0l-0.03125 -1.3125q-1.046875 1.5 -3.09375 1.5q-1.703125 0 -2.75 -1.375q-1.03125 -1.375 -1.03125 -3.703125l0 -0.125zm1.109375 0.1875q0 1.890625 0.75 2.984375q0.75 1.078125 2.125 1.078125q2.015625 0 2.859375 -1.78125l0 -4.625q-0.84375 -1.921875 -2.84375 -1.921875q-1.375 0 -2.140625 1.078125q-0.75 1.078125 -0.75 3.1875zm13.507233 5.015625q-1.25 0 -2.265625 -0.625q-1.015625 -0.625 -1.59375 -1.71875q-0.5625 -1.109375 -0.5625 -2.484375l0 -0.390625q0 -1.421875 0.546875 -2.5625q0.5625 -1.140625 1.546875 -1.78125q0.984375 -0.65625 2.125 -0.65625q1.796875 0 2.84375 1.21875q1.0625 1.21875 1.0625 3.34375l0 0.609375l-7.03125 0l0 0.21875q0 1.671875 0.953125 2.796875q0.96875 1.109375 2.421875 1.109375q0.875 0 1.546875 -0.3125q0.671875 -0.328125 1.21875 -1.03125l0.6875 0.515625q-1.203125 1.75 -3.5 1.75zm-0.203125 -9.296875q-1.21875 0 -2.0625 0.90625q-0.84375 0.890625 -1.03125 2.421875l5.921875 0l0 -0.125q-0.046875 -1.421875 -0.8125 -2.3125q-0.765625 -0.890625 -2.015625 -0.890625zm14.169098 9.109375l-8.3125 0l0 -0.84375l4.546875 -5.15625q1.125 -1.296875 1.5625 -2.140625q0.4375 -0.84375 0.4375 -1.65625q0 -1.25 -0.734375 -1.984375q-0.734375 -0.734375 -2.03125 -0.734375q-1.34375 0 -2.171875 0.859375q-0.8125 0.859375 -0.8125 2.21875l-1.09375 0q0 -1.125 0.5 -2.03125q0.515625 -0.921875 1.4375 -1.453125q0.9375 -0.53125 2.140625 -0.53125q1.8125 0 2.84375 0.96875q1.03125 0.953125 1.03125 2.59375q0 0.9375 -0.578125 2.046875q-0.578125 1.09375 -2.046875 2.75l-3.6875 4.171875l6.96875 0l0 0.921875z" fill-rule="nonzero"/><path fill="#000000" fill-opacity="0.0" d="m365.1292 428.107l0 73.13388" fill-rule="evenodd"/><path stroke="#595959" stroke-width="2.0" stroke-linejoin="round" stroke-linecap="butt" d="m365.1292 428.107l0 73.13388" fill-rule="evenodd"/><path fill="#000000" fill-opacity="0.0" d="m664.6705 429.2421l0 73.13385" fill-rule="evenodd"/><path stroke="#595959" stroke-width="2.0" stroke-linejoin="round" stroke-linecap="butt" d="m664.6705 429.2421l0 73.13385" fill-rule="evenodd"/><path fill="#000000" fill-opacity="0.0" d="m299.59763 120.04002l441.44882 0" fill-rule="evenodd"/><path stroke="#595959" stroke-width="1.0" stroke-linejoin="round" stroke-linecap="butt" stroke-dasharray="1.0,3.0" d="m299.59763 120.04002l441.44882 0" fill-rule="evenodd"/><path fill="#000000" fill-opacity="0.0" d="m364.60678 58.06916l0 372.063" fill-rule="evenodd"/><path stroke="#595959" stroke-width="1.0" stroke-linejoin="round" stroke-linecap="butt" stroke-dasharray="1.0,3.0" d="m364.60678 58.06916l0 372.063" fill-rule="evenodd"/><path fill="#000000" fill-opacity="0.0" d="m297.72876 387.38297l437.4488 1.3858337" fill-rule="evenodd"/><path stroke="#595959" stroke-width="1.0" stroke-linejoin="round" stroke-linecap="butt" stroke-dasharray="1.0,3.0" d="m297.72876 387.38297l437.4488 1.3858337" fill-rule="evenodd"/><path fill="#000000" fill-opacity="0.0" d="m664.41705 58.06916l0 372.063" fill-rule="evenodd"/><path stroke="#595959" stroke-width="1.0" stroke-linejoin="round" stroke-linecap="butt" stroke-dasharray="1.0,3.0" d="m664.41705 58.06916l0 372.063" fill-rule="evenodd"/><path fill="#000000" fill-opacity="0.0" d="m291.57666 493.41028l229.54327 0l0 121.102356l-229.54327 0z" fill-rule="evenodd"/><path fill="#999999" d="m309.56104 514.14276l-6.1875 0l0 6.1875l-1.125 0l0 -13.2655945l8.21875 0l0 0.953125l-7.09375 0l0 5.1562195l6.1875 0l0 0.96875zm2.1308594 1.109375q0 -1.421875 0.546875 -2.546875q0.5625 -1.1405945 1.5625 -1.7655945q1.015625 -0.640625 2.28125 -0.640625q1.96875 0 3.1875 1.375q1.234375 1.3749695 1.234375 3.6562195l0 0.234375q0 1.421875 -0.5625 2.5625q-0.546875 1.140625 -1.546875 1.765625q-1.0 0.625 -2.28125 0.625q-1.96875 0 -3.203125 -1.375q-1.21875 -1.390625 -1.21875 -3.671875l0 -0.21875zm1.09375 0.3125q0 1.765625 0.921875 2.90625q0.921875 1.125 2.40625 1.125q1.46875 0 2.375 -1.125q0.921875 -1.140625 0.921875 -3.0l0 -0.21875q0 -1.125 -0.421875 -2.0625q-0.40625 -0.9375 -1.171875 -1.4530945q-0.75 -0.515625 -1.734375 -0.515625q-1.453125 0 -2.375 1.1405945q-0.921875 1.140625 -0.921875 3.0l0 0.203125zm14.214203 3.125l0.078125 0.28125l0.078125 -0.28125l4.171875 -11.6249695l1.234375 0l-4.9375 13.2655945l-1.078125 0l-4.9375 -13.2655945l1.21875 0l4.171875 11.6249695z" fill-rule="nonzero"/><path fill="#999999" d="m337.05203 527.33026l-0.734375 0l0 -7.96875l-2.40625 0.890625l0 -0.671875l3.015625 -1.125l0.125 0l0 8.875z" fill-rule="nonzero"/><path fill="#999999" d="m346.6688 510.47092l0.046875 1.6093445q0.546875 -0.8905945 1.359375 -1.3280945q0.828125 -0.453125 1.828125 -0.453125q2.328125 0 2.953125 1.9062195q0.53125 -0.9218445 1.40625 -1.4062195q0.890625 -0.5 1.953125 -0.5q3.171875 0 3.234375 3.4530945l0 6.578125l-1.09375 0l0 -6.5q0 -1.3125 -0.5625 -1.9530945q-0.5625 -0.640625 -1.828125 -0.640625q-1.171875 0.015625 -1.984375 0.7655945q-0.8125 0.734375 -0.90625 1.8125l0 6.515625l-1.09375 0l0 -6.578125q0 -1.265625 -0.59375 -1.8905945q-0.578125 -0.625 -1.8125 -0.625q-1.015625 0 -1.765625 0.59375q-0.734375 0.5780945 -1.09375 1.7343445l0 6.765625l-1.09375 0l0 -9.8593445l1.046875 0zm14.940002 4.7812195q0 -1.421875 0.546875 -2.546875q0.5625 -1.1405945 1.5625 -1.7655945q1.015625 -0.640625 2.28125 -0.640625q1.96875 0 3.1875 1.375q1.234375 1.3749695 1.234375 3.6562195l0 0.234375q0 1.421875 -0.5625 2.5625q-0.546875 1.140625 -1.546875 1.765625q-1.0 0.625 -2.28125 0.625q-1.96875 0 -3.203125 -1.375q-1.21875 -1.390625 -1.21875 -3.671875l0 -0.21875zm1.09375 0.3125q0 1.765625 0.921875 2.90625q0.921875 1.125 2.40625 1.125q1.46875 0 2.375 -1.125q0.921875 -1.140625 0.921875 -3.0l0 -0.21875q0 -1.125 -0.421875 -2.0625q-0.40625 -0.9375 -1.171875 -1.4530945q-0.75 -0.515625 -1.734375 -0.515625q-1.453125 0 -2.375 1.1405945q-0.921875 1.140625 -0.921875 3.0l0 0.203125zm9.526703 -0.25q0 -2.296875 1.015625 -3.6562195q1.03125 -1.359375 2.796875 -1.359375q1.984375 0 3.03125 1.5625l0 -5.53125l1.09375 0l0 13.9999695l-1.03125 0l-0.03125 -1.3125q-1.046875 1.5 -3.09375 1.5q-1.703125 0 -2.75 -1.375q-1.03125 -1.375 -1.03125 -3.703125l0 -0.125zm1.109375 0.1875q0 1.890625 0.75 2.984375q0.75 1.078125 2.125 1.078125q2.015625 0 2.859375 -1.78125l0 -4.625q-0.84375 -1.9218445 -2.84375 -1.9218445q-1.375 0 -2.140625 1.0780945q-0.75 1.078125 -0.75 3.1875zm13.507233 5.015625q-1.25 0 -2.265625 -0.625q-1.015625 -0.625 -1.59375 -1.71875q-0.5625 -1.109375 -0.5625 -2.484375l0 -0.390625q0 -1.421875 0.546875 -2.5625q0.5625 -1.1405945 1.546875 -1.7812195q0.984375 -0.65625 2.125 -0.65625q1.796875 0 2.84375 1.21875q1.0625 1.2187195 1.0625 3.3437195l0 0.609375l-7.03125 0l0 0.21875q0 1.671875 0.953125 2.796875q0.96875 1.109375 2.421875 1.109375q0.875 0 1.546875 -0.3125q0.671875 -0.328125 1.21875 -1.03125l0.6875 0.515625q-1.203125 1.75 -3.5 1.75zm-0.203125 -9.2968445q-1.21875 0 -2.0625 0.9062195q-0.84375 0.890625 -1.03125 2.421875l5.921875 0l0 -0.125q-0.046875 -1.421875 -0.8125 -2.3125q-0.765625 -0.8905945 -2.015625 -0.8905945zm10.934723 9.1093445l-1.09375 0l0 -11.9530945l-3.609375 1.34375l0 -1.03125l4.515625 -1.671875l0.1875 0l0 13.3124695z" fill-rule="nonzero"/><path fill="#000000" fill-opacity="0.0" d="m590.52826 493.48663l229.54327 0l0 121.102356l-229.54327 0z" fill-rule="evenodd"/><path fill="#999999" d="m608.51263 514.2191l-6.1875 0l0 6.1875l-1.125 0l0 -13.265625l8.21875 0l0 0.953125l-7.09375 0l0 5.15625l6.1875 0l0 0.96875zm2.1308594 1.109375q0 -1.421875 0.546875 -2.546875q0.5625 -1.140625 1.5625 -1.765625q1.015625 -0.640625 2.28125 -0.640625q1.96875 0 3.1875 1.375q1.234375 1.375 1.234375 3.65625l0 0.234375q0 1.421875 -0.5625 2.5625q-0.546875 1.140625 -1.546875 1.765625q-1.0 0.625 -2.28125 0.625q-1.96875 0 -3.203125 -1.375q-1.21875 -1.390625 -1.21875 -3.671875l0 -0.21875zm1.09375 0.3125q0 1.765625 0.921875 2.90625q0.921875 1.125 2.40625 1.125q1.46875 0 2.375 -1.125q0.921875 -1.140625 0.921875 -3.0l0 -0.21875q0 -1.125 -0.421875 -2.0625q-0.40625 -0.9375 -1.171875 -1.453125q-0.75 -0.515625 -1.734375 -0.515625q-1.453125 0 -2.375 1.140625q-0.921875 1.140625 -0.921875 3.0l0 0.203125zm14.214172 3.125l0.078125 0.28125l0.078125 -0.28125l4.171875 -11.625l1.234375 0l-4.9375 13.265625l-1.078125 0l-4.9375 -13.265625l1.21875 0l4.171875 11.625z" fill-rule="nonzero"/><path fill="#999999" d="m636.0036 527.4066l-0.734375 0l0 -7.96875l-2.40625 0.890625l0 -0.671875l3.015625 -1.125l0.125 0l0 8.875z" fill-rule="nonzero"/><path fill="#999999" d="m645.62036 510.54724l0.046875 1.609375q0.546875 -0.890625 1.359375 -1.328125q0.828125 -0.453125 1.828125 -0.453125q2.328125 0 2.953125 1.90625q0.53125 -0.921875 1.40625 -1.40625q0.890625 -0.5 1.953125 -0.5q3.171875 0 3.234375 3.453125l0 6.578125l-1.09375 0l0 -6.5q0 -1.3125 -0.5625 -1.953125q-0.5625 -0.640625 -1.828125 -0.640625q-1.171875 0.015625 -1.984375 0.765625q-0.8125 0.734375 -0.90625 1.8125l0 6.515625l-1.09375 0l0 -6.578125q0 -1.265625 -0.59375 -1.890625q-0.578125 -0.625 -1.8125 -0.625q-1.015625 0 -1.765625 0.59375q-0.734375 0.578125 -1.09375 1.734375l0 6.765625l-1.09375 0l0 -9.859375l1.046875 0zm14.940002 4.78125q0 -1.421875 0.546875 -2.546875q0.5625 -1.140625 1.5625 -1.765625q1.015625 -0.640625 2.28125 -0.640625q1.96875 0 3.1875 1.375q1.234375 1.375 1.234375 3.65625l0 0.234375q0 1.421875 -0.5625 2.5625q-0.546875 1.140625 -1.546875 1.765625q-1.0 0.625 -2.28125 0.625q-1.96875 0 -3.203125 -1.375q-1.21875 -1.390625 -1.21875 -3.671875l0 -0.21875zm1.09375 0.3125q0 1.765625 0.921875 2.90625q0.921875 1.125 2.40625 1.125q1.46875 0 2.375 -1.125q0.921875 -1.140625 0.921875 -3.0l0 -0.21875q0 -1.125 -0.421875 -2.0625q-0.40625 -0.9375 -1.171875 -1.453125q-0.75 -0.515625 -1.734375 -0.515625q-1.453125 0 -2.375 1.140625q-0.921875 1.140625 -0.921875 3.0l0 0.203125zm9.526733 -0.25q0 -2.296875 1.015625 -3.65625q1.03125 -1.359375 2.796875 -1.359375q1.984375 0 3.03125 1.5625l0 -5.53125l1.09375 0l0 14.0l-1.03125 0l-0.03125 -1.3125q-1.046875 1.5 -3.09375 1.5q-1.703125 0 -2.75 -1.375q-1.03125 -1.375 -1.03125 -3.703125l0 -0.125zm1.109375 0.1875q0 1.890625 0.75 2.984375q0.75 1.078125 2.125 1.078125q2.015625 0 2.859375 -1.78125l0 -4.625q-0.84375 -1.921875 -2.84375 -1.921875q-1.375 0 -2.140625 1.078125q-0.75 1.078125 -0.75 3.1875zm13.507202 5.015625q-1.25 0 -2.265625 -0.625q-1.015625 -0.625 -1.59375 -1.71875q-0.5625 -1.109375 -0.5625 -2.484375l0 -0.390625q0 -1.421875 0.546875 -2.5625q0.5625 -1.140625 1.546875 -1.78125q0.984375 -0.65625 2.125 -0.65625q1.796875 0 2.84375 1.21875q1.0625 1.21875 1.0625 3.34375l0 0.609375l-7.03125 0l0 0.21875q0 1.671875 0.953125 2.796875q0.96875 1.109375 2.421875 1.109375q0.875 0 1.546875 -0.3125q0.671875 -0.328125 1.21875 -1.03125l0.6875 0.515625q-1.203125 1.75 -3.5 1.75zm-0.203125 -9.296875q-1.21875 0 -2.0625 0.90625q-0.84375 0.890625 -1.03125 2.421875l5.921875 0l0 -0.125q-0.046875 -1.421875 -0.8125 -2.3125q-0.765625 -0.890625 -2.015625 -0.890625zm14.169128 9.109375l-8.3125 0l0 -0.84375l4.546875 -5.15625q1.125 -1.296875 1.5625 -2.140625q0.4375 -0.84375 0.4375 -1.65625q0 -1.25 -0.734375 -1.984375q-0.734375 -0.734375 -2.03125 -0.734375q-1.34375 0 -2.171875 0.859375q-0.8125 0.859375 -0.8125 2.21875l-1.09375 0q0 -1.125 0.5 -2.03125q0.515625 -0.921875 1.4375 -1.453125q0.9375 -0.53125 2.140625 -0.53125q1.8125 0 2.84375 0.96875q1.03125 0.953125 1.03125 2.59375q0 0.9375 -0.578125 2.046875q-0.578125 1.09375 -2.046875 2.75l-3.6875 4.171875l6.96875 0l0 0.921875z" fill-rule="nonzero"/><path fill="#000000" fill-opacity="0.0" d="m516.6471 465.5735l0 -433.88977" fill-rule="evenodd"/><path stroke="#595959" stroke-width="1.0" stroke-linejoin="round" stroke-linecap="butt" d="m516.64703 465.5735l0 -427.88977" fill-rule="evenodd"/><path fill="#595959" stroke="#595959" stroke-width="1.0" stroke-linecap="butt" d="m518.29877 37.683716l-1.6517334 -4.538101l-1.6516724 4.538101z" fill-rule="evenodd"/><path fill="#000000" fill-opacity="0.0" d="m276.05038 250.46783l493.41733 0" fill-rule="evenodd"/><path stroke="#595959" stroke-width="1.0" stroke-linejoin="round" stroke-linecap="butt" d="m276.05038 250.46785l487.41733 0" fill-rule="evenodd"/><path fill="#595959" stroke="#595959" stroke-width="1.0" stroke-linecap="butt" d="m763.4677 252.11958l4.538086 -1.6517334l-4.538086 -1.6517334z" fill-rule="evenodd"/><path fill="#000000" fill-opacity="0.0" d="m498.70587 -8.177101l36.094482 0l0 43.59055l-36.094482 0z" fill-rule="evenodd"/><path fill="#999999" d="m509.8465 17.821022l6.40625 0l0 0.921875l-7.75 0l0 -0.796875l5.96875 -8.125l-5.796875 0l0 -0.9375l7.171875 0l0 0.8125l-6.0 8.125z" fill-rule="nonzero"/><path fill="#ffab40" d="m523.4352 25.742897l-6.0625 0l0 -1.203125l2.875 -3.046875q0.578125 -0.640625 0.859375 -1.125q0.28125 -0.484375 0.28125 -0.90625q0 -0.59375 -0.296875 -0.921875q-0.296875 -0.34375 -0.84375 -0.34375q-0.59375 0 -0.9375 0.40625q-0.34375 0.40625 -0.34375 1.078125l-1.765625 0q0 -0.8125 0.390625 -1.46875q0.390625 -0.671875 1.09375 -1.046875q0.703125 -0.390625 1.59375 -0.390625q1.359375 0 2.109375 0.65625q0.765625 0.65625 0.765625 1.859375q0 0.65625 -0.34375 1.34375q-0.328125 0.671875 -1.15625 1.578125l-2.015625 2.109375l3.796875 0l0 1.421875z" fill-rule="nonzero"/><path fill="#000000" fill-opacity="0.0" d="m769.46704 226.83078l36.094482 0l0 43.590546l-36.094482 0z" fill-rule="evenodd"/><path fill="#999999" d="m780.60767 252.8289l6.40625 0l0 0.921875l-7.75 0l0 -0.796875l5.96875 -8.125l-5.796875 0l0 -0.9375l7.171875 0l0 0.8125l-6.0 8.125z" fill-rule="nonzero"/><path fill="#ffab40" d="m792.3995 260.75076l-1.75 0l0 -6.7656097l-2.09375 0.65625l0 -1.4375l3.65625 -1.3125l0.1875 0l0 8.85936z" fill-rule="nonzero"/><path fill="#ff9900" d="m535.36774 323.0437l0 0c0 -4.644409 3.7650146 -8.409454 8.409424 -8.409454l0 0c2.2303467 0 4.3693237 0.8859863 5.946411 2.4630737c1.5770874 1.5770569 2.4630737 3.716034 2.4630737 5.9463806l0 0c0 4.644409 -3.7650757 8.409424 -8.409485 8.409424l0 0c-4.644409 0 -8.409424 -3.7650146 -8.409424 -8.409424z" fill-rule="evenodd"/><path fill="#000000" fill-opacity="0.0" d="m512.12225 211.44696l66.74017 0l0 31.779526l-66.74017 0z" fill-rule="evenodd"/><path fill="#999999" d="m522.4035 233.00758q0 -1.984375 0.5 -3.859375q0.515625 -1.875 1.5 -3.421875q0.984375 -1.546875 2.109375 -2.21875l0.265625 0.734375q-0.59375 0.421875 -1.1875 1.25q-0.59375 0.8125 -1.0625 1.953125q-0.46875 1.125 -0.75 2.53125q-0.28125 1.40625 -0.28125 3.1875q0 1.90625 0.421875 3.671875q0.4375 1.75 1.1875 3.09375q0.765625 1.34375 1.671875 2.015625l-0.265625 0.703125q-1.15625 -0.6875 -2.140625 -2.234375q-0.984375 -1.546875 -1.484375 -3.390625q-0.484375 -1.859375 -0.484375 -4.015625zm13.917236 -0.171875q0 2.8125 -1.03125 4.265625q-1.03125 1.453125 -3.03125 1.453125q-1.96875 0 -3.015625 -1.421875q-1.046875 -1.4375 -1.078125 -4.15625l0 -2.375q0 -2.796875 1.03125 -4.234375q1.046875 -1.453125 3.046875 -1.453125q1.953125 0 2.984375 1.390625q1.046875 1.390625 1.09375 4.09375l0 2.4375zm-1.09375 -2.375q0 -2.28125 -0.75 -3.4375q-0.734375 -1.171875 -2.234375 -1.171875q-1.484375 0 -2.234375 1.140625q-0.734375 1.140625 -0.765625 3.359375l0 2.609375q0 2.265625 0.765625 3.46875q0.78125 1.203125 2.25 1.203125q1.453125 0 2.203125 -1.171875q0.75 -1.1875 0.765625 -3.453125l0 -2.546875zm3.3705444 10.390625l-0.640625 -0.484375q0.828125 -1.109375 0.859375 -2.296875l0 -1.421875l1.0625 0l0 1.140625q0 1.90625 -1.28125 3.0625zm11.633423 -8.015625q0 2.8125 -1.03125 4.265625q-1.03125 1.453125 -3.03125 1.453125q-1.96875 0 -3.015625 -1.421875q-1.046875 -1.4375 -1.078125 -4.15625l0 -2.375q0 -2.796875 1.03125 -4.234375q1.046875 -1.453125 3.046875 -1.453125q1.953125 0 2.984375 1.390625q1.046875 1.390625 1.09375 4.09375l0 2.4375zm-1.09375 -2.375q0 -2.28125 -0.75 -3.4375q-0.734375 -1.171875 -2.234375 -1.171875q-1.484375 0 -2.234375 1.140625q-0.734375 1.140625 -0.765625 3.359375l0 2.609375q0 2.265625 0.765625 3.46875q0.78125 1.203125 2.25 1.203125q1.453125 0 2.203125 -1.171875q0.75 -1.1875 0.765625 -3.453125l0 -2.546875zm6.8705444 2.6875q0 2.0 -0.5 3.859375q-0.5 1.84375 -1.484375 3.390625q-0.96875 1.546875 -2.140625 2.25l-0.265625 -0.703125q0.890625 -0.640625 1.65625 -1.984375q0.765625 -1.328125 1.203125 -3.109375q0.4375 -1.78125 0.4375 -3.875q0 -1.875 -0.4375 -3.625q-0.4375 -1.765625 -1.21875 -3.140625q-0.765625 -1.375 -1.640625 -2.015625l0.265625 -0.6875q1.15625 0.6875 2.125 2.234375q0.96875 1.53125 1.484375 3.421875q0.515625 1.875 0.515625 3.984375z" fill-rule="nonzero"/><path fill="#000000" fill-opacity="0.0" d="m656.31647 81.348915l66.74017 0l0 31.779526l-66.74017 0z" fill-rule="evenodd"/><path fill="#999999" d="m666.5977 102.90954q0 -1.984375 0.5 -3.859375q0.515625 -1.875 1.5 -3.421875q0.984375 -1.546875 2.109375 -2.21875l0.265625 0.734375q-0.59375 0.421875 -1.1875 1.25q-0.59375 0.8125 -1.0625 1.953125q-0.46875 1.125 -0.75 2.53125q-0.28125 1.40625 -0.28125 3.1875q0 1.90625 0.421875 3.671875q0.4375 1.75 1.1875 3.09375q0.765625 1.34375 1.671875 2.015625l-0.265625 0.703125q-1.15625 -0.6875 -2.140625 -2.234375q-0.984375 -1.546875 -1.484375 -3.390625q-0.484375 -1.859375 -0.484375 -4.015625zm14.229797 5.359375l-8.3125 0l0 -0.84375l4.546875 -5.15625q1.125 -1.296875 1.5625 -2.140625q0.4375 -0.84375 0.4375 -1.65625q0 -1.25 -0.734375 -1.984375q-0.734375 -0.734375 -2.03125 -0.734375q-1.34375 0 -2.171875 0.859375q-0.8125 0.859375 -0.8125 2.21875l-1.09375 0q0 -1.125 0.5 -2.03125q0.515625 -0.921875 1.4375 -1.453125q0.9375 -0.53125 2.140625 -0.53125q1.8125 0 2.84375 0.96875q1.03125 0.953125 1.03125 2.59375q0 0.9375 -0.578125 2.046875q-0.578125 1.09375 -2.046875 2.75l-3.6875 4.171875l6.96875 0l0 0.921875zm1.9642334 2.484375l-0.640625 -0.484375q0.828125 -1.109375 0.859375 -2.296875l0 -1.421875l1.0625 0l0 1.140625q0 1.90625 -1.28125 3.0625zm11.945923 -2.484375l-8.3125 0l0 -0.84375l4.546875 -5.15625q1.125 -1.296875 1.5625 -2.140625q0.4375 -0.84375 0.4375 -1.65625q0 -1.25 -0.734375 -1.984375q-0.734375 -0.734375 -2.03125 -0.734375q-1.34375 0 -2.171875 0.859375q-0.8125 0.859375 -0.8125 2.21875l-1.09375 0q0 -1.125 0.5 -2.03125q0.515625 -0.921875 1.4375 -1.453125q0.9375 -0.53125 2.140625 -0.53125q1.8125 0 2.84375 0.96875q1.03125 0.953125 1.03125 2.59375q0 0.9375 -0.578125 2.046875q-0.578125 1.09375 -2.046875 2.75l-3.6875 4.171875l6.96875 0l0 0.921875zm5.4642944 -5.21875q0 2.0 -0.5 3.859375q-0.5 1.84375 -1.484375 3.390625q-0.96875 1.546875 -2.140625 2.25l-0.265625 -0.703125q0.890625 -0.640625 1.65625 -1.984375q0.765625 -1.328125 1.203125 -3.109375q0.4375 -1.78125 0.4375 -3.875q0 -1.875 -0.4375 -3.625q-0.4375 -1.765625 -1.21875 -3.140625q-0.765625 -1.375 -1.640625 -2.015625l0.265625 -0.6875q1.15625 0.6875 2.125 2.234375q0.96875 1.53125 1.484375 3.421875q0.515625 1.875 0.515625 3.984375z" fill-rule="nonzero"/><path fill="#000000" fill-opacity="0.0" d="m660.55597 351.84836l75.653564 0l0 31.779541l-75.653564 0z" fill-rule="evenodd"/><path fill="#999999" d="m670.8372 373.409q0 -1.984375 0.5 -3.859375q0.515625 -1.875 1.5 -3.421875q0.984375 -1.546875 2.109375 -2.21875l0.265625 0.734375q-0.59375 0.421875 -1.1875 1.25q-0.59375 0.8125 -1.0625 1.953125q-0.46875 1.125 -0.75 2.53125q-0.28125 1.40625 -0.28125 3.1875q0 1.90625 0.421875 3.671875q0.4375 1.75 1.1875 3.09375q0.765625 1.34375 1.671875 2.015625l-0.265625 0.703125q-1.15625 -0.6875 -2.140625 -2.234375q-0.984375 -1.546875 -1.484375 -3.390625q-0.484375 -1.859375 -0.484375 -4.015625zm14.229797 5.359375l-8.3125 0l0 -0.84375l4.546875 -5.15625q1.125 -1.296875 1.5625 -2.140625q0.4375 -0.84375 0.4375 -1.65625q0 -1.25 -0.734375 -1.984375q-0.734375 -0.734375 -2.03125 -0.734375q-1.34375 0 -2.171875 0.859375q-0.8125 0.859375 -0.8125 2.21875l-1.09375 0q0 -1.125 0.5 -2.03125q0.515625 -0.921875 1.4375 -1.453125q0.9375 -0.53125 2.140625 -0.53125q1.8125 0 2.84375 0.96875q1.03125 0.953125 1.03125 2.59375q0 0.9375 -0.578125 2.046875q-0.578125 1.09375 -2.046875 2.75l-3.6875 4.171875l6.96875 0l0 0.921875zm1.9642334 2.484375l-0.640625 -0.484375q0.828125 -1.109375 0.859375 -2.296875l0 -1.421875l1.0625 0l0 1.140625q0 1.90625 -1.28125 3.0625z" fill-rule="nonzero"/><path fill="#999999" d="m696.8184 373.37775l-4.359375 0l0 -0.921875l4.359375 0l0 0.921875z" fill-rule="nonzero"/><path fill="#999999" d="m709.4978 378.76837l-8.3125 0l0 -0.84375l4.546875 -5.15625q1.125 -1.296875 1.5625 -2.140625q0.4375 -0.84375 0.4375 -1.65625q0 -1.25 -0.734375 -1.984375q-0.734375 -0.734375 -2.03125 -0.734375q-1.34375 0 -2.171875 0.859375q-0.8125 0.859375 -0.8125 2.21875l-1.09375 0q0 -1.125 0.5 -2.03125q0.515625 -0.921875 1.4375 -1.453125q0.9375 -0.53125 2.140625 -0.53125q1.8125 0 2.84375 0.96875q1.03125 0.953125 1.03125 2.59375q0 0.9375 -0.578125 2.046875q-0.578125 1.09375 -2.046875 2.75l-3.6875 4.171875l6.96875 0l0 0.921875zm5.4642944 -5.21875q0 2.0 -0.5 3.859375q-0.5 1.84375 -1.484375 3.390625q-0.96875 1.546875 -2.140625 2.25l-0.265625 -0.703125q0.890625 -0.640625 1.65625 -1.984375q0.765625 -1.328125 1.203125 -3.109375q0.4375 -1.78125 0.4375 -3.875q0 -1.875 -0.4375 -3.625q-0.4375 -1.765625 -1.21875 -3.140625q-0.765625 -1.375 -1.640625 -2.015625l0.265625 -0.6875q1.15625 0.6875 2.125 2.234375q0.96875 1.53125 1.484375 3.421875q0.515625 1.875 0.515625 3.984375z" fill-rule="nonzero"/><path fill="#000000" fill-opacity="0.0" d="m355.16754 350.02975l75.653534 0l0 31.77951l-75.653534 0z" fill-rule="evenodd"/><path fill="#999999" d="m365.4488 371.59036q0 -1.984375 0.5 -3.859375q0.515625 -1.875 1.5 -3.421875q0.984375 -1.546875 2.109375 -2.21875l0.265625 0.734375q-0.59375 0.421875 -1.1875 1.25q-0.59375 0.8125 -1.0625 1.953125q-0.46875 1.125 -0.75 2.53125q-0.28125 1.40625 -0.28125 3.1875q0 1.90625 0.421875 3.671875q0.4375 1.75 1.1875 3.09375q0.765625 1.34375 1.671875 2.015625l-0.265625 0.703125q-1.15625 -0.6875 -2.140625 -2.234375q-0.984375 -1.546875 -1.484375 -3.390625q-0.484375 -1.859375 -0.484375 -4.015625zm9.479767 -0.03125l-4.359375 0l0 -0.921875l4.359375 0l0 0.921875z" fill-rule="nonzero"/><path fill="#999999" d="m387.60794 376.94974l-8.3125 0l0 -0.84375l4.546875 -5.15625q1.125 -1.296875 1.5625 -2.140625q0.4375 -0.84375 0.4375 -1.65625q0 -1.25 -0.734375 -1.984375q-0.734375 -0.734375 -2.03125 -0.734375q-1.34375 0 -2.171875 0.859375q-0.8125 0.859375 -0.8125 2.21875l-1.09375 0q0 -1.125 0.5 -2.03125q0.515625 -0.921875 1.4375 -1.453125q0.9375 -0.53125 2.140625 -0.53125q1.8125 0 2.84375 0.96875q1.03125 0.953125 1.03125 2.59375q0 0.9375 -0.578125 2.046875q-0.578125 1.09375 -2.046875 2.75l-3.6875 4.171875l6.96875 0l0 0.921875zm1.9642639 2.484375l-0.640625 -0.484375q0.828125 -1.109375 0.859375 -2.296875l0 -1.421875l1.0625 0l0 1.140625q0 1.90625 -1.28125 3.0625z" fill-rule="nonzero"/><path fill="#999999" d="m399.35934 371.5591l-4.359375 0l0 -0.921875l4.359375 0l0 0.921875z" fill-rule="nonzero"/><path fill="#999999" d="m412.03873 376.94974l-8.3125 0l0 -0.84375l4.546875 -5.15625q1.125 -1.296875 1.5625 -2.140625q0.4375 -0.84375 0.4375 -1.65625q0 -1.25 -0.734375 -1.984375q-0.734375 -0.734375 -2.03125 -0.734375q-1.34375 0 -2.171875 0.859375q-0.8125 0.859375 -0.8125 2.21875l-1.09375 0q0 -1.125 0.5 -2.03125q0.515625 -0.921875 1.4375 -1.453125q0.9375 -0.53125 2.140625 -0.53125q1.8125 0 2.84375 0.96875q1.03125 0.953125 1.03125 2.59375q0 0.9375 -0.578125 2.046875q-0.578125 1.09375 -2.046875 2.75l-3.6875 4.171875l6.96875 0l0 0.921875zm5.4642944 -5.21875q0 2.0 -0.5 3.859375q-0.5 1.84375 -1.484375 3.390625q-0.96875 1.546875 -2.140625 2.25l-0.265625 -0.703125q0.890625 -0.640625 1.65625 -1.984375q0.765625 -1.328125 1.203125 -3.109375q0.4375 -1.78125 0.4375 -3.875q0 -1.875 -0.4375 -3.625q-0.4375 -1.765625 -1.21875 -3.140625q-0.765625 -1.375 -1.640625 -2.015625l0.265625 -0.6875q1.15625 0.6875 2.125 2.234375q0.96875 1.53125 1.484375 3.421875q0.515625 1.875 0.515625 3.984375z" fill-rule="nonzero"/><path fill="#000000" fill-opacity="0.0" d="m355.21 82.45915l75.653534 0l0 31.779526l-75.653534 0z" fill-rule="evenodd"/><path fill="#999999" d="m365.49124 104.019775q0 -1.984375 0.5 -3.859375q0.515625 -1.875 1.5 -3.421875q0.984375 -1.546875 2.109375 -2.21875l0.265625 0.734375q-0.59375 0.421875 -1.1875 1.25q-0.59375 0.8125 -1.0625 1.953125q-0.46875 1.125 -0.75 2.53125q-0.28125 1.40625 -0.28125 3.1875q0 1.90625 0.421875 3.671875q0.4375 1.75 1.1875 3.09375q0.765625 1.34375 1.671875 2.015625l-0.265625 0.703125q-1.15625 -0.6875 -2.140625 -2.234375q-0.984375 -1.546875 -1.484375 -3.390625q-0.484375 -1.859375 -0.484375 -4.015625zm9.479736 -0.03125l-4.359375 0l0 -0.921875l4.359375 0l0 0.921875z" fill-rule="nonzero"/><path fill="#999999" d="m387.65036 109.37915l-8.3125 0l0 -0.84375l4.546875 -5.15625q1.125 -1.296875 1.5625 -2.140625q0.4375 -0.84375 0.4375 -1.65625q0 -1.25 -0.734375 -1.984375q-0.734375 -0.734375 -2.03125 -0.734375q-1.34375 0 -2.171875 0.859375q-0.8125 0.859375 -0.8125 2.21875l-1.09375 0q0 -1.125 0.5 -2.03125q0.515625 -0.921875 1.4375 -1.453125q0.9375 -0.53125 2.140625 -0.53125q1.8125 0 2.84375 0.96875q1.03125 0.953125 1.03125 2.59375q0 0.9375 -0.578125 2.046875q-0.578125 1.09375 -2.046875 2.75l-3.6875 4.171875l6.96875 0l0 0.921875zm1.9642944 2.484375l-0.640625 -0.484375q0.828125 -1.109375 0.859375 -2.296875l0 -1.421875l1.0625 0l0 1.140625q0 1.90625 -1.28125 3.0625z" fill-rule="nonzero"/><path fill="#999999" d="m404.1518 109.37915l-8.3125 0l0 -0.84375l4.546875 -5.15625q1.125 -1.296875 1.5625 -2.140625q0.4375 -0.84375 0.4375 -1.65625q0 -1.25 -0.734375 -1.984375q-0.734375 -0.734375 -2.03125 -0.734375q-1.34375 0 -2.171875 0.859375q-0.8125 0.859375 -0.8125 2.21875l-1.09375 0q0 -1.125 0.5 -2.03125q0.515625 -0.921875 1.4375 -1.453125q0.9375 -0.53125 2.140625 -0.53125q1.8125 0 2.84375 0.96875q1.03125 0.953125 1.03125 2.59375q0 0.9375 -0.578125 2.046875q-0.578125 1.09375 -2.046875 2.75l-3.6875 4.171875l6.96875 0l0 0.921875zm5.464264 -5.21875q0 2.0 -0.5 3.859375q-0.5 1.84375 -1.484375 3.390625q-0.96875 1.546875 -2.140625 2.25l-0.265625 -0.703125q0.890625 -0.640625 1.65625 -1.984375q0.765625 -1.328125 1.203125 -3.109375q0.4375 -1.78125 0.4375 -3.875q0 -1.875 -0.4375 -3.625q-0.4375 -1.765625 -1.21875 -3.140625q-0.765625 -1.375 -1.640625 -2.015625l0.265625 -0.6875q1.15625 0.6875 2.125 2.234375q0.96875 1.53125 1.484375 3.421875q0.515625 1.875 0.515625 3.984375z" fill-rule="nonzero"/><path fill="#000000" fill-opacity="0.0" d="m544.70605 301.88977l100.81885 0l0 31.77951l-100.81885 0z" fill-rule="evenodd"/><path fill="#ff9900" d="m554.9873 323.45038q0 -1.984375 0.5 -3.859375q0.515625 -1.875 1.5 -3.421875q0.984375 -1.546875 2.109375 -2.21875l0.265625 0.734375q-0.59375 0.421875 -1.1875 1.25q-0.59375 0.8125 -1.0625 1.953125q-0.46875 1.125 -0.75 2.53125q-0.28125 1.40625 -0.28125 3.1875q0 1.90625 0.421875 3.671875q0.4375 1.75 1.1875 3.09375q0.765625 1.34375 1.671875 2.015625l-0.265625 0.703125q-1.15625 -0.6875 -2.140625 -2.234375q-0.984375 -1.546875 -1.484375 -3.390625q-0.484375 -1.859375 -0.484375 -4.015625zm13.917236 -0.171875q0 2.8125 -1.03125 4.265625q-1.03125 1.453125 -3.03125 1.453125q-1.96875 0 -3.015625 -1.421875q-1.046875 -1.4375 -1.078125 -4.15625l0 -2.375q0 -2.796875 1.03125 -4.234375q1.046875 -1.453125 3.046875 -1.453125q1.953125 0 2.984375 1.390625q1.046875 1.390625 1.09375 4.09375l0 2.4375zm-1.09375 -2.375q0 -2.28125 -0.75 -3.4375q-0.734375 -1.171875 -2.234375 -1.171875q-1.484375 0 -2.234375 1.140625q-0.734375 1.140625 -0.765625 3.359375l0 2.609375q0 2.265625 0.765625 3.46875q0.78125 1.203125 2.25 1.203125q1.453125 0 2.203125 -1.171875q0.75 -1.1875 0.765625 -3.453125l0 -2.546875zm3.5111694 7.25q0 -0.3125 0.203125 -0.53125q0.203125 -0.234375 0.5625 -0.234375q0.359375 0 0.5625 0.234375q0.21875 0.21875 0.21875 0.53125q0 0.3125 -0.21875 0.53125q-0.203125 0.203125 -0.5625 0.203125q-0.359375 0 -0.5625 -0.203125q-0.203125 -0.21875 -0.203125 -0.53125zm11.063904 -3.609375l2.078125 0l0 0.90625l-2.078125 0l0 3.359375l-1.09375 0l0 -3.359375l-6.234375 0l0 -0.609375l6.140625 -9.296875l1.1875 0l0 9.0zm-5.984375 0l4.890625 0l0 -7.578125l-0.46875 0.828125l-4.421875 6.75zm9.573669 6.75l-0.640625 -0.484375q0.828125 -1.109375 0.859375 -2.296875l0 -1.421875l1.0625 0l0 1.140625q0 1.90625 -1.28125 3.0625z" fill-rule="nonzero"/><path fill="#ff9900" d="m600.9447 323.41913l-4.359375 0l0 -0.921875l4.359375 0l0 0.921875zm6.853821 5.390625l-1.09375 0l0 -11.953125l-3.609375 1.34375l0 -1.03125l4.515625 -1.671875l0.1875 0l0 13.3125zm5.3392334 -0.65625q0 -0.3125 0.203125 -0.53125q0.203125 -0.234375 0.5625 -0.234375q0.359375 0 0.5625 0.234375q0.21875 0.21875 0.21875 0.53125q0 0.3125 -0.21875 0.53125q-0.203125 0.203125 -0.5625 0.203125q-0.359375 0 -0.5625 -0.203125q-0.203125 -0.21875 -0.203125 -0.53125zm12.376465 -4.875q0 2.8125 -1.03125 4.265625q-1.03125 1.453125 -3.03125 1.453125q-1.96875 0 -3.015625 -1.421875q-1.046875 -1.4375 -1.078125 -4.15625l0 -2.375q0 -2.796875 1.03125 -4.234375q1.046875 -1.453125 3.046875 -1.453125q1.953125 0 2.984375 1.390625q1.046875 1.390625 1.09375 4.09375l0 2.4375zm-1.09375 -2.375q0 -2.28125 -0.75 -3.4375q-0.734375 -1.171875 -2.234375 -1.171875q-1.484375 0 -2.234375 1.140625q-0.734375 1.140625 -0.765625 3.359375l0 2.609375q0 2.265625 0.765625 3.46875q0.78125 1.203125 2.25 1.203125q1.453125 0 2.203125 -1.171875q0.75 -1.1875 0.765625 -3.453125l0 -2.546875zm6.8704834 2.6875q0 2.0 -0.5 3.859375q-0.5 1.84375 -1.484375 3.390625q-0.96875 1.546875 -2.140625 2.25l-0.265625 -0.703125q0.890625 -0.640625 1.65625 -1.984375q0.765625 -1.328125 1.203125 -3.109375q0.4375 -1.78125 0.4375 -3.875q0 -1.875 -0.4375 -3.625q-0.4375 -1.765625 -1.21875 -3.140625q-0.765625 -1.375 -1.640625 -2.015625l0.265625 -0.6875q1.15625 0.6875 2.125 2.234375q0.96875 1.53125 1.484375 3.421875q0.515625 1.875 0.515625 3.984375z" fill-rule="nonzero"/><path fill="#cc0000" d="m454.23495 184.17345l0 0c0 -4.644409 3.7650452 -8.409454 8.409454 -8.409454l0 0c2.2303162 0 4.369293 0.8860016 5.9463806 2.4630737c1.5770874 1.5770874 2.4630737 3.7160492 2.4630737 5.9463806l0 0c0 4.644409 -3.7650452 8.409454 -8.409454 8.409454l0 0c-4.644409 0 -8.409454 -3.7650452 -8.409454 -8.409454z" fill-rule="evenodd"/><path fill="#000000" fill-opacity="0.0" d="m463.57327 163.01952l100.81888 0l0 31.779526l-100.81888 0z" fill-rule="evenodd"/><path fill="#cc0000" d="m473.85452 184.58014q0 -1.984375 0.5 -3.859375q0.515625 -1.875 1.5 -3.421875q0.984375 -1.546875 2.109375 -2.21875l0.265625 0.734375q-0.59375 0.421875 -1.1875 1.25q-0.59375 0.8125 -1.0625 1.953125q-0.46875 1.125 -0.75 2.53125q-0.28125 1.40625 -0.28125 3.1875q0 1.90625 0.421875 3.671875q0.4375 1.75 1.1875 3.09375q0.765625 1.34375 1.671875 2.015625l-0.265625 0.703125q-1.15625 -0.6875 -2.140625 -2.234375q-0.984375 -1.546875 -1.484375 -3.390625q-0.484375 -1.859375 -0.484375 -4.015625zm9.479736 -0.03125l-4.359375 0l0 -0.921875l4.359375 0l0 0.921875zm9.775665 -0.140625q0 2.8125 -1.03125 4.265625q-1.03125 1.453125 -3.03125 1.453125q-1.96875 0 -3.015625 -1.421875q-1.046875 -1.4375 -1.078125 -4.15625l0 -2.375q0 -2.796875 1.03125 -4.234375q1.046875 -1.453125 3.046875 -1.453125q1.953125 0 2.984375 1.390625q1.046875 1.390625 1.09375 4.09375l0 2.4375zm-1.09375 -2.375q0 -2.28125 -0.75 -3.4375q-0.734375 -1.171875 -2.234375 -1.171875q-1.484375 0 -2.234375 1.140625q-0.734375 1.140625 -0.765625 3.359375l0 2.609375q0 2.265625 0.765625 3.46875q0.78125 1.203125 2.25 1.203125q1.453125 0 2.203125 -1.171875q0.75 -1.1875 0.765625 -3.453125l0 -2.546875zm3.5111694 7.25q0 -0.3125 0.203125 -0.53125q0.203125 -0.234375 0.5625 -0.234375q0.359375 0 0.5625 0.234375q0.21875 0.21875 0.21875 0.53125q0 0.3125 -0.21875 0.53125q-0.203125 0.203125 -0.5625 0.203125q-0.359375 0 -0.5625 -0.203125q-0.203125 -0.21875 -0.203125 -0.53125zm10.798279 -12.703125l0 0.953125l-0.125 0q-2.375 0 -3.75 1.40625q-1.359375 1.390625 -1.5 3.875q0.546875 -0.75 1.390625 -1.15625q0.84375 -0.421875 1.890625 -0.421875q1.75 0 2.78125 1.203125q1.046875 1.203125 1.046875 3.15625q0 1.296875 -0.484375 2.34375q-0.484375 1.03125 -1.390625 1.609375q-0.90625 0.578125 -2.0625 0.578125q-1.890625 0 -3.09375 -1.375q-1.1875 -1.390625 -1.1875 -3.578125l0 -1.09375q0 -3.5625 1.609375 -5.515625q1.625 -1.953125 4.609375 -1.984375l0.265625 0zm-2.265625 5.59375q-1.03125 0 -1.9375 0.609375q-0.890625 0.609375 -1.1875 1.5625l0 0.921875q0 1.734375 0.875 2.828125q0.890625 1.09375 2.3125 1.09375q1.28125 0 2.0625 -1.0q0.796875 -1.015625 0.796875 -2.5625q0 -1.5625 -0.796875 -2.5q-0.78125 -0.953125 -2.125 -0.953125zm6.1205444 10.25l-0.640625 -0.484375q0.828125 -1.109375 0.859375 -2.296875l0 -1.421875l1.0625 0l0 1.140625q0 1.90625 -1.28125 3.0625z" fill-rule="nonzero"/><path fill="#cc0000" d="m526.6657 189.93951l-1.09375 0l0 -11.953125l-3.609375 1.34375l0 -1.03125l4.515625 -1.671875l0.1875 0l0 13.3125zm5.3392944 -0.65625q0 -0.3125 0.203125 -0.53125q0.203125 -0.234375 0.5625 -0.234375q0.359375 0 0.5625 0.234375q0.21875 0.21875 0.21875 0.53125q0 0.3125 -0.21875 0.53125q-0.203125 0.203125 -0.5625 0.203125q-0.359375 0 -0.5625 -0.203125q-0.203125 -0.21875 -0.203125 -0.53125zm12.688904 0.65625l-8.3125 0l0 -0.84375l4.546875 -5.15625q1.125 -1.296875 1.5625 -2.140625q0.4375 -0.84375 0.4375 -1.65625q0 -1.25 -0.734375 -1.984375q-0.734375 -0.734375 -2.03125 -0.734375q-1.34375 0 -2.171875 0.859375q-0.8125 0.859375 -0.8125 2.21875l-1.09375 0q0 -1.125 0.5 -2.03125q0.515625 -0.921875 1.4375 -1.453125q0.9375 -0.53125 2.140625 -0.53125q1.8125 0 2.84375 0.96875q1.03125 0.953125 1.03125 2.59375q0 0.9375 -0.578125 2.046875q-0.578125 1.09375 -2.046875 2.75l-3.6875 4.171875l6.96875 0l0 0.921875zm5.4642944 -5.21875q0 2.0 -0.5 3.859375q-0.5 1.84375 -1.484375 3.390625q-0.96875 1.546875 -2.140625 2.25l-0.265625 -0.703125q0.890625 -0.640625 1.65625 -1.984375q0.765625 -1.328125 1.203125 -3.109375q0.4375 -1.78125 0.4375 -3.875q0 -1.875 -0.4375 -3.625q-0.4375 -1.765625 -1.21875 -3.140625q-0.765625 -1.375 -1.640625 -2.015625l0.265625 -0.6875q1.15625 0.6875 2.125 2.234375q0.96875 1.53125 1.484375 3.421875q0.515625 1.875 0.515625 3.984375z" fill-rule="nonzero"/></g></svg>